%TF.GenerationSoftware,KiCad,Pcbnew,7.0.10*%
%TF.CreationDate,2024-03-23T12:12:29+07:00*%
%TF.ProjectId,BTL_ESD,42544c5f-4553-4442-9e6b-696361645f70,rev?*%
%TF.SameCoordinates,Original*%
%TF.FileFunction,Drillmap*%
%TF.FilePolarity,Positive*%
%FSLAX45Y45*%
G04 Gerber Fmt 4.5, Leading zero omitted, Abs format (unit mm)*
G04 Created by KiCad (PCBNEW 7.0.10) date 2024-03-23 12:12:29*
%MOMM*%
%LPD*%
G01*
G04 APERTURE LIST*
%ADD10C,0.100000*%
%ADD11C,0.200000*%
G04 APERTURE END LIST*
D10*
X16888460Y-13738857D02*
G75*
G03*
X17116207Y-13511113I0J227747D01*
G01*
X14950000Y-11579000D02*
X14950000Y-12408000D01*
X9766300Y-13511113D02*
X9766300Y-4895000D01*
X14499977Y-12858343D02*
X14499977Y-13600000D01*
X17116207Y-4682073D02*
X17116207Y-13511113D01*
X14600000Y-13600000D02*
X14600000Y-12900000D01*
X17116204Y-4682073D02*
G75*
G03*
X16888460Y-4454326I-227744J3D01*
G01*
X9833000Y-4829000D02*
X13717153Y-4829000D01*
X15050000Y-12450000D02*
X15050000Y-11600000D01*
X15600000Y-11550000D02*
X15450000Y-11400000D01*
X15150000Y-11500000D02*
X15382240Y-11500000D01*
X15382240Y-11500000D02*
X15482240Y-11600000D01*
X15050000Y-11600000D02*
X15150000Y-11500000D01*
X14600026Y-12899974D02*
X15050006Y-12449993D01*
X9766300Y-13511113D02*
G75*
G03*
X9994047Y-13738860I227750J3D01*
G01*
X13716853Y-4829393D02*
G75*
G03*
X13864173Y-4682073I-3J147323D01*
G01*
X14091920Y-4454326D02*
X16888460Y-4454326D01*
X16050000Y-12217760D02*
X16050000Y-12100000D01*
X14500000Y-13600000D02*
X14600000Y-13600000D01*
X14949684Y-12408636D02*
X14499977Y-12858343D01*
X9833088Y-4828996D02*
G75*
G03*
X9766496Y-4895592I2J-66594D01*
G01*
X14091920Y-4454323D02*
G75*
G03*
X13864173Y-4682073I0J-227747D01*
G01*
X15600000Y-11950000D02*
X15600000Y-11550000D01*
X15750000Y-12100000D02*
X15600000Y-11950000D01*
X16050000Y-12100000D02*
X15750000Y-12100000D01*
X15482240Y-12000000D02*
X15700000Y-12217760D01*
X15482240Y-11600000D02*
X15482240Y-12000000D01*
X15450000Y-11400000D02*
X15129000Y-11400000D01*
X15700000Y-12217760D02*
X16050000Y-12217760D01*
X15128948Y-11400055D02*
X14950035Y-11578968D01*
X16888460Y-13738860D02*
X9994900Y-13738860D01*
D11*
D10*
X14150400Y-4883080D02*
X14230400Y-4963080D01*
X14230400Y-4883080D02*
X14150400Y-4963080D01*
X14650400Y-4883080D02*
X14730400Y-4963080D01*
X14730400Y-4883080D02*
X14650400Y-4963080D01*
D11*
X10022077Y-14055344D02*
X10022077Y-13855344D01*
X10022077Y-13855344D02*
X10069696Y-13855344D01*
X10069696Y-13855344D02*
X10098267Y-13864868D01*
X10098267Y-13864868D02*
X10117315Y-13883915D01*
X10117315Y-13883915D02*
X10126839Y-13902963D01*
X10126839Y-13902963D02*
X10136363Y-13941058D01*
X10136363Y-13941058D02*
X10136363Y-13969629D01*
X10136363Y-13969629D02*
X10126839Y-14007725D01*
X10126839Y-14007725D02*
X10117315Y-14026772D01*
X10117315Y-14026772D02*
X10098267Y-14045820D01*
X10098267Y-14045820D02*
X10069696Y-14055344D01*
X10069696Y-14055344D02*
X10022077Y-14055344D01*
X10222077Y-14055344D02*
X10222077Y-13922010D01*
X10222077Y-13960106D02*
X10231601Y-13941058D01*
X10231601Y-13941058D02*
X10241124Y-13931534D01*
X10241124Y-13931534D02*
X10260172Y-13922010D01*
X10260172Y-13922010D02*
X10279220Y-13922010D01*
X10345886Y-14055344D02*
X10345886Y-13922010D01*
X10345886Y-13855344D02*
X10336363Y-13864868D01*
X10336363Y-13864868D02*
X10345886Y-13874391D01*
X10345886Y-13874391D02*
X10355410Y-13864868D01*
X10355410Y-13864868D02*
X10345886Y-13855344D01*
X10345886Y-13855344D02*
X10345886Y-13874391D01*
X10469696Y-14055344D02*
X10450648Y-14045820D01*
X10450648Y-14045820D02*
X10441124Y-14026772D01*
X10441124Y-14026772D02*
X10441124Y-13855344D01*
X10574458Y-14055344D02*
X10555410Y-14045820D01*
X10555410Y-14045820D02*
X10545886Y-14026772D01*
X10545886Y-14026772D02*
X10545886Y-13855344D01*
X10803029Y-14055344D02*
X10803029Y-13855344D01*
X10803029Y-13855344D02*
X10869696Y-13998201D01*
X10869696Y-13998201D02*
X10936363Y-13855344D01*
X10936363Y-13855344D02*
X10936363Y-14055344D01*
X11117315Y-14055344D02*
X11117315Y-13950582D01*
X11117315Y-13950582D02*
X11107791Y-13931534D01*
X11107791Y-13931534D02*
X11088744Y-13922010D01*
X11088744Y-13922010D02*
X11050648Y-13922010D01*
X11050648Y-13922010D02*
X11031601Y-13931534D01*
X11117315Y-14045820D02*
X11098267Y-14055344D01*
X11098267Y-14055344D02*
X11050648Y-14055344D01*
X11050648Y-14055344D02*
X11031601Y-14045820D01*
X11031601Y-14045820D02*
X11022077Y-14026772D01*
X11022077Y-14026772D02*
X11022077Y-14007725D01*
X11022077Y-14007725D02*
X11031601Y-13988677D01*
X11031601Y-13988677D02*
X11050648Y-13979153D01*
X11050648Y-13979153D02*
X11098267Y-13979153D01*
X11098267Y-13979153D02*
X11117315Y-13969629D01*
X11212553Y-13922010D02*
X11212553Y-14122010D01*
X11212553Y-13931534D02*
X11231601Y-13922010D01*
X11231601Y-13922010D02*
X11269696Y-13922010D01*
X11269696Y-13922010D02*
X11288743Y-13931534D01*
X11288743Y-13931534D02*
X11298267Y-13941058D01*
X11298267Y-13941058D02*
X11307791Y-13960106D01*
X11307791Y-13960106D02*
X11307791Y-14017248D01*
X11307791Y-14017248D02*
X11298267Y-14036296D01*
X11298267Y-14036296D02*
X11288743Y-14045820D01*
X11288743Y-14045820D02*
X11269696Y-14055344D01*
X11269696Y-14055344D02*
X11231601Y-14055344D01*
X11231601Y-14055344D02*
X11212553Y-14045820D01*
X11393505Y-14036296D02*
X11403029Y-14045820D01*
X11403029Y-14045820D02*
X11393505Y-14055344D01*
X11393505Y-14055344D02*
X11383982Y-14045820D01*
X11383982Y-14045820D02*
X11393505Y-14036296D01*
X11393505Y-14036296D02*
X11393505Y-14055344D01*
X11393505Y-13931534D02*
X11403029Y-13941058D01*
X11403029Y-13941058D02*
X11393505Y-13950582D01*
X11393505Y-13950582D02*
X11383982Y-13941058D01*
X11383982Y-13941058D02*
X11393505Y-13931534D01*
X11393505Y-13931534D02*
X11393505Y-13950582D01*
D10*
X9681300Y-14343860D02*
X9761300Y-14423860D01*
X9761300Y-14343860D02*
X9681300Y-14423860D01*
D11*
X10060172Y-14275344D02*
X10079220Y-14275344D01*
X10079220Y-14275344D02*
X10098267Y-14284868D01*
X10098267Y-14284868D02*
X10107791Y-14294391D01*
X10107791Y-14294391D02*
X10117315Y-14313439D01*
X10117315Y-14313439D02*
X10126839Y-14351534D01*
X10126839Y-14351534D02*
X10126839Y-14399153D01*
X10126839Y-14399153D02*
X10117315Y-14437248D01*
X10117315Y-14437248D02*
X10107791Y-14456296D01*
X10107791Y-14456296D02*
X10098267Y-14465820D01*
X10098267Y-14465820D02*
X10079220Y-14475344D01*
X10079220Y-14475344D02*
X10060172Y-14475344D01*
X10060172Y-14475344D02*
X10041124Y-14465820D01*
X10041124Y-14465820D02*
X10031601Y-14456296D01*
X10031601Y-14456296D02*
X10022077Y-14437248D01*
X10022077Y-14437248D02*
X10012553Y-14399153D01*
X10012553Y-14399153D02*
X10012553Y-14351534D01*
X10012553Y-14351534D02*
X10022077Y-14313439D01*
X10022077Y-14313439D02*
X10031601Y-14294391D01*
X10031601Y-14294391D02*
X10041124Y-14284868D01*
X10041124Y-14284868D02*
X10060172Y-14275344D01*
X10212553Y-14456296D02*
X10222077Y-14465820D01*
X10222077Y-14465820D02*
X10212553Y-14475344D01*
X10212553Y-14475344D02*
X10203029Y-14465820D01*
X10203029Y-14465820D02*
X10212553Y-14456296D01*
X10212553Y-14456296D02*
X10212553Y-14475344D01*
X10336363Y-14361058D02*
X10317315Y-14351534D01*
X10317315Y-14351534D02*
X10307791Y-14342010D01*
X10307791Y-14342010D02*
X10298267Y-14322963D01*
X10298267Y-14322963D02*
X10298267Y-14313439D01*
X10298267Y-14313439D02*
X10307791Y-14294391D01*
X10307791Y-14294391D02*
X10317315Y-14284868D01*
X10317315Y-14284868D02*
X10336363Y-14275344D01*
X10336363Y-14275344D02*
X10374458Y-14275344D01*
X10374458Y-14275344D02*
X10393505Y-14284868D01*
X10393505Y-14284868D02*
X10403029Y-14294391D01*
X10403029Y-14294391D02*
X10412553Y-14313439D01*
X10412553Y-14313439D02*
X10412553Y-14322963D01*
X10412553Y-14322963D02*
X10403029Y-14342010D01*
X10403029Y-14342010D02*
X10393505Y-14351534D01*
X10393505Y-14351534D02*
X10374458Y-14361058D01*
X10374458Y-14361058D02*
X10336363Y-14361058D01*
X10336363Y-14361058D02*
X10317315Y-14370582D01*
X10317315Y-14370582D02*
X10307791Y-14380106D01*
X10307791Y-14380106D02*
X10298267Y-14399153D01*
X10298267Y-14399153D02*
X10298267Y-14437248D01*
X10298267Y-14437248D02*
X10307791Y-14456296D01*
X10307791Y-14456296D02*
X10317315Y-14465820D01*
X10317315Y-14465820D02*
X10336363Y-14475344D01*
X10336363Y-14475344D02*
X10374458Y-14475344D01*
X10374458Y-14475344D02*
X10393505Y-14465820D01*
X10393505Y-14465820D02*
X10403029Y-14456296D01*
X10403029Y-14456296D02*
X10412553Y-14437248D01*
X10412553Y-14437248D02*
X10412553Y-14399153D01*
X10412553Y-14399153D02*
X10403029Y-14380106D01*
X10403029Y-14380106D02*
X10393505Y-14370582D01*
X10393505Y-14370582D02*
X10374458Y-14361058D01*
X10536363Y-14275344D02*
X10555410Y-14275344D01*
X10555410Y-14275344D02*
X10574458Y-14284868D01*
X10574458Y-14284868D02*
X10583982Y-14294391D01*
X10583982Y-14294391D02*
X10593505Y-14313439D01*
X10593505Y-14313439D02*
X10603029Y-14351534D01*
X10603029Y-14351534D02*
X10603029Y-14399153D01*
X10603029Y-14399153D02*
X10593505Y-14437248D01*
X10593505Y-14437248D02*
X10583982Y-14456296D01*
X10583982Y-14456296D02*
X10574458Y-14465820D01*
X10574458Y-14465820D02*
X10555410Y-14475344D01*
X10555410Y-14475344D02*
X10536363Y-14475344D01*
X10536363Y-14475344D02*
X10517315Y-14465820D01*
X10517315Y-14465820D02*
X10507791Y-14456296D01*
X10507791Y-14456296D02*
X10498267Y-14437248D01*
X10498267Y-14437248D02*
X10488744Y-14399153D01*
X10488744Y-14399153D02*
X10488744Y-14351534D01*
X10488744Y-14351534D02*
X10498267Y-14313439D01*
X10498267Y-14313439D02*
X10507791Y-14294391D01*
X10507791Y-14294391D02*
X10517315Y-14284868D01*
X10517315Y-14284868D02*
X10536363Y-14275344D01*
X10726839Y-14275344D02*
X10745886Y-14275344D01*
X10745886Y-14275344D02*
X10764934Y-14284868D01*
X10764934Y-14284868D02*
X10774458Y-14294391D01*
X10774458Y-14294391D02*
X10783982Y-14313439D01*
X10783982Y-14313439D02*
X10793505Y-14351534D01*
X10793505Y-14351534D02*
X10793505Y-14399153D01*
X10793505Y-14399153D02*
X10783982Y-14437248D01*
X10783982Y-14437248D02*
X10774458Y-14456296D01*
X10774458Y-14456296D02*
X10764934Y-14465820D01*
X10764934Y-14465820D02*
X10745886Y-14475344D01*
X10745886Y-14475344D02*
X10726839Y-14475344D01*
X10726839Y-14475344D02*
X10707791Y-14465820D01*
X10707791Y-14465820D02*
X10698267Y-14456296D01*
X10698267Y-14456296D02*
X10688744Y-14437248D01*
X10688744Y-14437248D02*
X10679220Y-14399153D01*
X10679220Y-14399153D02*
X10679220Y-14351534D01*
X10679220Y-14351534D02*
X10688744Y-14313439D01*
X10688744Y-14313439D02*
X10698267Y-14294391D01*
X10698267Y-14294391D02*
X10707791Y-14284868D01*
X10707791Y-14284868D02*
X10726839Y-14275344D01*
X10879220Y-14475344D02*
X10879220Y-14342010D01*
X10879220Y-14361058D02*
X10888744Y-14351534D01*
X10888744Y-14351534D02*
X10907791Y-14342010D01*
X10907791Y-14342010D02*
X10936363Y-14342010D01*
X10936363Y-14342010D02*
X10955410Y-14351534D01*
X10955410Y-14351534D02*
X10964934Y-14370582D01*
X10964934Y-14370582D02*
X10964934Y-14475344D01*
X10964934Y-14370582D02*
X10974458Y-14351534D01*
X10974458Y-14351534D02*
X10993505Y-14342010D01*
X10993505Y-14342010D02*
X11022077Y-14342010D01*
X11022077Y-14342010D02*
X11041125Y-14351534D01*
X11041125Y-14351534D02*
X11050648Y-14370582D01*
X11050648Y-14370582D02*
X11050648Y-14475344D01*
X11145886Y-14475344D02*
X11145886Y-14342010D01*
X11145886Y-14361058D02*
X11155410Y-14351534D01*
X11155410Y-14351534D02*
X11174458Y-14342010D01*
X11174458Y-14342010D02*
X11203029Y-14342010D01*
X11203029Y-14342010D02*
X11222077Y-14351534D01*
X11222077Y-14351534D02*
X11231601Y-14370582D01*
X11231601Y-14370582D02*
X11231601Y-14475344D01*
X11231601Y-14370582D02*
X11241124Y-14351534D01*
X11241124Y-14351534D02*
X11260172Y-14342010D01*
X11260172Y-14342010D02*
X11288743Y-14342010D01*
X11288743Y-14342010D02*
X11307791Y-14351534D01*
X11307791Y-14351534D02*
X11317315Y-14370582D01*
X11317315Y-14370582D02*
X11317315Y-14475344D01*
X11707791Y-14265820D02*
X11536363Y-14522963D01*
X11964934Y-14275344D02*
X11983982Y-14275344D01*
X11983982Y-14275344D02*
X12003029Y-14284868D01*
X12003029Y-14284868D02*
X12012553Y-14294391D01*
X12012553Y-14294391D02*
X12022077Y-14313439D01*
X12022077Y-14313439D02*
X12031601Y-14351534D01*
X12031601Y-14351534D02*
X12031601Y-14399153D01*
X12031601Y-14399153D02*
X12022077Y-14437248D01*
X12022077Y-14437248D02*
X12012553Y-14456296D01*
X12012553Y-14456296D02*
X12003029Y-14465820D01*
X12003029Y-14465820D02*
X11983982Y-14475344D01*
X11983982Y-14475344D02*
X11964934Y-14475344D01*
X11964934Y-14475344D02*
X11945886Y-14465820D01*
X11945886Y-14465820D02*
X11936363Y-14456296D01*
X11936363Y-14456296D02*
X11926839Y-14437248D01*
X11926839Y-14437248D02*
X11917315Y-14399153D01*
X11917315Y-14399153D02*
X11917315Y-14351534D01*
X11917315Y-14351534D02*
X11926839Y-14313439D01*
X11926839Y-14313439D02*
X11936363Y-14294391D01*
X11936363Y-14294391D02*
X11945886Y-14284868D01*
X11945886Y-14284868D02*
X11964934Y-14275344D01*
X12117315Y-14456296D02*
X12126839Y-14465820D01*
X12126839Y-14465820D02*
X12117315Y-14475344D01*
X12117315Y-14475344D02*
X12107791Y-14465820D01*
X12107791Y-14465820D02*
X12117315Y-14456296D01*
X12117315Y-14456296D02*
X12117315Y-14475344D01*
X12250648Y-14275344D02*
X12269696Y-14275344D01*
X12269696Y-14275344D02*
X12288744Y-14284868D01*
X12288744Y-14284868D02*
X12298267Y-14294391D01*
X12298267Y-14294391D02*
X12307791Y-14313439D01*
X12307791Y-14313439D02*
X12317315Y-14351534D01*
X12317315Y-14351534D02*
X12317315Y-14399153D01*
X12317315Y-14399153D02*
X12307791Y-14437248D01*
X12307791Y-14437248D02*
X12298267Y-14456296D01*
X12298267Y-14456296D02*
X12288744Y-14465820D01*
X12288744Y-14465820D02*
X12269696Y-14475344D01*
X12269696Y-14475344D02*
X12250648Y-14475344D01*
X12250648Y-14475344D02*
X12231601Y-14465820D01*
X12231601Y-14465820D02*
X12222077Y-14456296D01*
X12222077Y-14456296D02*
X12212553Y-14437248D01*
X12212553Y-14437248D02*
X12203029Y-14399153D01*
X12203029Y-14399153D02*
X12203029Y-14351534D01*
X12203029Y-14351534D02*
X12212553Y-14313439D01*
X12212553Y-14313439D02*
X12222077Y-14294391D01*
X12222077Y-14294391D02*
X12231601Y-14284868D01*
X12231601Y-14284868D02*
X12250648Y-14275344D01*
X12383982Y-14275344D02*
X12507791Y-14275344D01*
X12507791Y-14275344D02*
X12441125Y-14351534D01*
X12441125Y-14351534D02*
X12469696Y-14351534D01*
X12469696Y-14351534D02*
X12488744Y-14361058D01*
X12488744Y-14361058D02*
X12498267Y-14370582D01*
X12498267Y-14370582D02*
X12507791Y-14389629D01*
X12507791Y-14389629D02*
X12507791Y-14437248D01*
X12507791Y-14437248D02*
X12498267Y-14456296D01*
X12498267Y-14456296D02*
X12488744Y-14465820D01*
X12488744Y-14465820D02*
X12469696Y-14475344D01*
X12469696Y-14475344D02*
X12412553Y-14475344D01*
X12412553Y-14475344D02*
X12393506Y-14465820D01*
X12393506Y-14465820D02*
X12383982Y-14456296D01*
X12698267Y-14475344D02*
X12583982Y-14475344D01*
X12641125Y-14475344D02*
X12641125Y-14275344D01*
X12641125Y-14275344D02*
X12622077Y-14303915D01*
X12622077Y-14303915D02*
X12603029Y-14322963D01*
X12603029Y-14322963D02*
X12583982Y-14332487D01*
X12879220Y-14275344D02*
X12783982Y-14275344D01*
X12783982Y-14275344D02*
X12774458Y-14370582D01*
X12774458Y-14370582D02*
X12783982Y-14361058D01*
X12783982Y-14361058D02*
X12803029Y-14351534D01*
X12803029Y-14351534D02*
X12850648Y-14351534D01*
X12850648Y-14351534D02*
X12869696Y-14361058D01*
X12869696Y-14361058D02*
X12879220Y-14370582D01*
X12879220Y-14370582D02*
X12888744Y-14389629D01*
X12888744Y-14389629D02*
X12888744Y-14437248D01*
X12888744Y-14437248D02*
X12879220Y-14456296D01*
X12879220Y-14456296D02*
X12869696Y-14465820D01*
X12869696Y-14465820D02*
X12850648Y-14475344D01*
X12850648Y-14475344D02*
X12803029Y-14475344D01*
X12803029Y-14475344D02*
X12783982Y-14465820D01*
X12783982Y-14465820D02*
X12774458Y-14456296D01*
X12964934Y-14275344D02*
X12964934Y-14313439D01*
X13041125Y-14275344D02*
X13041125Y-14313439D01*
X13336363Y-14551534D02*
X13326839Y-14542010D01*
X13326839Y-14542010D02*
X13307791Y-14513439D01*
X13307791Y-14513439D02*
X13298268Y-14494391D01*
X13298268Y-14494391D02*
X13288744Y-14465820D01*
X13288744Y-14465820D02*
X13279220Y-14418201D01*
X13279220Y-14418201D02*
X13279220Y-14380106D01*
X13279220Y-14380106D02*
X13288744Y-14332487D01*
X13288744Y-14332487D02*
X13298268Y-14303915D01*
X13298268Y-14303915D02*
X13307791Y-14284868D01*
X13307791Y-14284868D02*
X13326839Y-14256296D01*
X13326839Y-14256296D02*
X13336363Y-14246772D01*
X13403029Y-14294391D02*
X13412553Y-14284868D01*
X13412553Y-14284868D02*
X13431601Y-14275344D01*
X13431601Y-14275344D02*
X13479220Y-14275344D01*
X13479220Y-14275344D02*
X13498268Y-14284868D01*
X13498268Y-14284868D02*
X13507791Y-14294391D01*
X13507791Y-14294391D02*
X13517315Y-14313439D01*
X13517315Y-14313439D02*
X13517315Y-14332487D01*
X13517315Y-14332487D02*
X13507791Y-14361058D01*
X13507791Y-14361058D02*
X13393506Y-14475344D01*
X13393506Y-14475344D02*
X13517315Y-14475344D01*
X13755410Y-14475344D02*
X13755410Y-14275344D01*
X13841125Y-14475344D02*
X13841125Y-14370582D01*
X13841125Y-14370582D02*
X13831601Y-14351534D01*
X13831601Y-14351534D02*
X13812553Y-14342010D01*
X13812553Y-14342010D02*
X13783982Y-14342010D01*
X13783982Y-14342010D02*
X13764934Y-14351534D01*
X13764934Y-14351534D02*
X13755410Y-14361058D01*
X13964934Y-14475344D02*
X13945887Y-14465820D01*
X13945887Y-14465820D02*
X13936363Y-14456296D01*
X13936363Y-14456296D02*
X13926839Y-14437248D01*
X13926839Y-14437248D02*
X13926839Y-14380106D01*
X13926839Y-14380106D02*
X13936363Y-14361058D01*
X13936363Y-14361058D02*
X13945887Y-14351534D01*
X13945887Y-14351534D02*
X13964934Y-14342010D01*
X13964934Y-14342010D02*
X13993506Y-14342010D01*
X13993506Y-14342010D02*
X14012553Y-14351534D01*
X14012553Y-14351534D02*
X14022077Y-14361058D01*
X14022077Y-14361058D02*
X14031601Y-14380106D01*
X14031601Y-14380106D02*
X14031601Y-14437248D01*
X14031601Y-14437248D02*
X14022077Y-14456296D01*
X14022077Y-14456296D02*
X14012553Y-14465820D01*
X14012553Y-14465820D02*
X13993506Y-14475344D01*
X13993506Y-14475344D02*
X13964934Y-14475344D01*
X14145887Y-14475344D02*
X14126839Y-14465820D01*
X14126839Y-14465820D02*
X14117315Y-14446772D01*
X14117315Y-14446772D02*
X14117315Y-14275344D01*
X14298268Y-14465820D02*
X14279220Y-14475344D01*
X14279220Y-14475344D02*
X14241125Y-14475344D01*
X14241125Y-14475344D02*
X14222077Y-14465820D01*
X14222077Y-14465820D02*
X14212553Y-14446772D01*
X14212553Y-14446772D02*
X14212553Y-14370582D01*
X14212553Y-14370582D02*
X14222077Y-14351534D01*
X14222077Y-14351534D02*
X14241125Y-14342010D01*
X14241125Y-14342010D02*
X14279220Y-14342010D01*
X14279220Y-14342010D02*
X14298268Y-14351534D01*
X14298268Y-14351534D02*
X14307791Y-14370582D01*
X14307791Y-14370582D02*
X14307791Y-14389629D01*
X14307791Y-14389629D02*
X14212553Y-14408677D01*
X14383982Y-14465820D02*
X14403030Y-14475344D01*
X14403030Y-14475344D02*
X14441125Y-14475344D01*
X14441125Y-14475344D02*
X14460172Y-14465820D01*
X14460172Y-14465820D02*
X14469696Y-14446772D01*
X14469696Y-14446772D02*
X14469696Y-14437248D01*
X14469696Y-14437248D02*
X14460172Y-14418201D01*
X14460172Y-14418201D02*
X14441125Y-14408677D01*
X14441125Y-14408677D02*
X14412553Y-14408677D01*
X14412553Y-14408677D02*
X14393506Y-14399153D01*
X14393506Y-14399153D02*
X14383982Y-14380106D01*
X14383982Y-14380106D02*
X14383982Y-14370582D01*
X14383982Y-14370582D02*
X14393506Y-14351534D01*
X14393506Y-14351534D02*
X14412553Y-14342010D01*
X14412553Y-14342010D02*
X14441125Y-14342010D01*
X14441125Y-14342010D02*
X14460172Y-14351534D01*
X14536363Y-14551534D02*
X14545887Y-14542010D01*
X14545887Y-14542010D02*
X14564934Y-14513439D01*
X14564934Y-14513439D02*
X14574458Y-14494391D01*
X14574458Y-14494391D02*
X14583982Y-14465820D01*
X14583982Y-14465820D02*
X14593506Y-14418201D01*
X14593506Y-14418201D02*
X14593506Y-14380106D01*
X14593506Y-14380106D02*
X14583982Y-14332487D01*
X14583982Y-14332487D02*
X14574458Y-14303915D01*
X14574458Y-14303915D02*
X14564934Y-14284868D01*
X14564934Y-14284868D02*
X14545887Y-14256296D01*
X14545887Y-14256296D02*
X14536363Y-14246772D01*
X14898268Y-14551534D02*
X14888744Y-14542010D01*
X14888744Y-14542010D02*
X14869696Y-14513439D01*
X14869696Y-14513439D02*
X14860172Y-14494391D01*
X14860172Y-14494391D02*
X14850649Y-14465820D01*
X14850649Y-14465820D02*
X14841125Y-14418201D01*
X14841125Y-14418201D02*
X14841125Y-14380106D01*
X14841125Y-14380106D02*
X14850649Y-14332487D01*
X14850649Y-14332487D02*
X14860172Y-14303915D01*
X14860172Y-14303915D02*
X14869696Y-14284868D01*
X14869696Y-14284868D02*
X14888744Y-14256296D01*
X14888744Y-14256296D02*
X14898268Y-14246772D01*
X14974458Y-14342010D02*
X14974458Y-14475344D01*
X14974458Y-14361058D02*
X14983982Y-14351534D01*
X14983982Y-14351534D02*
X15003030Y-14342010D01*
X15003030Y-14342010D02*
X15031601Y-14342010D01*
X15031601Y-14342010D02*
X15050649Y-14351534D01*
X15050649Y-14351534D02*
X15060172Y-14370582D01*
X15060172Y-14370582D02*
X15060172Y-14475344D01*
X15183982Y-14475344D02*
X15164934Y-14465820D01*
X15164934Y-14465820D02*
X15155411Y-14456296D01*
X15155411Y-14456296D02*
X15145887Y-14437248D01*
X15145887Y-14437248D02*
X15145887Y-14380106D01*
X15145887Y-14380106D02*
X15155411Y-14361058D01*
X15155411Y-14361058D02*
X15164934Y-14351534D01*
X15164934Y-14351534D02*
X15183982Y-14342010D01*
X15183982Y-14342010D02*
X15212553Y-14342010D01*
X15212553Y-14342010D02*
X15231601Y-14351534D01*
X15231601Y-14351534D02*
X15241125Y-14361058D01*
X15241125Y-14361058D02*
X15250649Y-14380106D01*
X15250649Y-14380106D02*
X15250649Y-14437248D01*
X15250649Y-14437248D02*
X15241125Y-14456296D01*
X15241125Y-14456296D02*
X15231601Y-14465820D01*
X15231601Y-14465820D02*
X15212553Y-14475344D01*
X15212553Y-14475344D02*
X15183982Y-14475344D01*
X15307792Y-14342010D02*
X15383982Y-14342010D01*
X15336363Y-14275344D02*
X15336363Y-14446772D01*
X15336363Y-14446772D02*
X15345887Y-14465820D01*
X15345887Y-14465820D02*
X15364934Y-14475344D01*
X15364934Y-14475344D02*
X15383982Y-14475344D01*
X15603030Y-14342010D02*
X15603030Y-14542010D01*
X15603030Y-14351534D02*
X15622077Y-14342010D01*
X15622077Y-14342010D02*
X15660173Y-14342010D01*
X15660173Y-14342010D02*
X15679220Y-14351534D01*
X15679220Y-14351534D02*
X15688744Y-14361058D01*
X15688744Y-14361058D02*
X15698268Y-14380106D01*
X15698268Y-14380106D02*
X15698268Y-14437248D01*
X15698268Y-14437248D02*
X15688744Y-14456296D01*
X15688744Y-14456296D02*
X15679220Y-14465820D01*
X15679220Y-14465820D02*
X15660173Y-14475344D01*
X15660173Y-14475344D02*
X15622077Y-14475344D01*
X15622077Y-14475344D02*
X15603030Y-14465820D01*
X15812553Y-14475344D02*
X15793506Y-14465820D01*
X15793506Y-14465820D02*
X15783982Y-14446772D01*
X15783982Y-14446772D02*
X15783982Y-14275344D01*
X15974458Y-14475344D02*
X15974458Y-14370582D01*
X15974458Y-14370582D02*
X15964934Y-14351534D01*
X15964934Y-14351534D02*
X15945887Y-14342010D01*
X15945887Y-14342010D02*
X15907792Y-14342010D01*
X15907792Y-14342010D02*
X15888744Y-14351534D01*
X15974458Y-14465820D02*
X15955411Y-14475344D01*
X15955411Y-14475344D02*
X15907792Y-14475344D01*
X15907792Y-14475344D02*
X15888744Y-14465820D01*
X15888744Y-14465820D02*
X15879220Y-14446772D01*
X15879220Y-14446772D02*
X15879220Y-14427725D01*
X15879220Y-14427725D02*
X15888744Y-14408677D01*
X15888744Y-14408677D02*
X15907792Y-14399153D01*
X15907792Y-14399153D02*
X15955411Y-14399153D01*
X15955411Y-14399153D02*
X15974458Y-14389629D01*
X16041125Y-14342010D02*
X16117315Y-14342010D01*
X16069696Y-14275344D02*
X16069696Y-14446772D01*
X16069696Y-14446772D02*
X16079220Y-14465820D01*
X16079220Y-14465820D02*
X16098268Y-14475344D01*
X16098268Y-14475344D02*
X16117315Y-14475344D01*
X16260173Y-14465820D02*
X16241125Y-14475344D01*
X16241125Y-14475344D02*
X16203030Y-14475344D01*
X16203030Y-14475344D02*
X16183982Y-14465820D01*
X16183982Y-14465820D02*
X16174458Y-14446772D01*
X16174458Y-14446772D02*
X16174458Y-14370582D01*
X16174458Y-14370582D02*
X16183982Y-14351534D01*
X16183982Y-14351534D02*
X16203030Y-14342010D01*
X16203030Y-14342010D02*
X16241125Y-14342010D01*
X16241125Y-14342010D02*
X16260173Y-14351534D01*
X16260173Y-14351534D02*
X16269696Y-14370582D01*
X16269696Y-14370582D02*
X16269696Y-14389629D01*
X16269696Y-14389629D02*
X16174458Y-14408677D01*
X16441125Y-14475344D02*
X16441125Y-14275344D01*
X16441125Y-14465820D02*
X16422077Y-14475344D01*
X16422077Y-14475344D02*
X16383982Y-14475344D01*
X16383982Y-14475344D02*
X16364934Y-14465820D01*
X16364934Y-14465820D02*
X16355411Y-14456296D01*
X16355411Y-14456296D02*
X16345887Y-14437248D01*
X16345887Y-14437248D02*
X16345887Y-14380106D01*
X16345887Y-14380106D02*
X16355411Y-14361058D01*
X16355411Y-14361058D02*
X16364934Y-14351534D01*
X16364934Y-14351534D02*
X16383982Y-14342010D01*
X16383982Y-14342010D02*
X16422077Y-14342010D01*
X16422077Y-14342010D02*
X16441125Y-14351534D01*
X16517315Y-14551534D02*
X16526839Y-14542010D01*
X16526839Y-14542010D02*
X16545887Y-14513439D01*
X16545887Y-14513439D02*
X16555411Y-14494391D01*
X16555411Y-14494391D02*
X16564934Y-14465820D01*
X16564934Y-14465820D02*
X16574458Y-14418201D01*
X16574458Y-14418201D02*
X16574458Y-14380106D01*
X16574458Y-14380106D02*
X16564934Y-14332487D01*
X16564934Y-14332487D02*
X16555411Y-14303915D01*
X16555411Y-14303915D02*
X16545887Y-14284868D01*
X16545887Y-14284868D02*
X16526839Y-14256296D01*
X16526839Y-14256296D02*
X16517315Y-14246772D01*
M02*
