%TF.GenerationSoftware,KiCad,Pcbnew,7.0.10*%
%TF.CreationDate,2024-03-23T12:12:28+07:00*%
%TF.ProjectId,BTL_ESD,42544c5f-4553-4442-9e6b-696361645f70,rev?*%
%TF.SameCoordinates,Original*%
%TF.FileFunction,Drillmap*%
%TF.FilePolarity,Positive*%
%FSLAX45Y45*%
G04 Gerber Fmt 4.5, Leading zero omitted, Abs format (unit mm)*
G04 Created by KiCad (PCBNEW 7.0.10) date 2024-03-23 12:12:28*
%MOMM*%
%LPD*%
G01*
G04 APERTURE LIST*
%ADD10C,0.100000*%
%ADD11C,0.200000*%
%ADD12C,0.110000*%
%ADD13C,0.130000*%
%ADD14C,0.320000*%
G04 APERTURE END LIST*
D10*
X16888460Y-13738857D02*
G75*
G03*
X17116207Y-13511113I0J227747D01*
G01*
X14950000Y-11579000D02*
X14950000Y-12408000D01*
X9766300Y-13511113D02*
X9766300Y-4895000D01*
X14499977Y-12858343D02*
X14499977Y-13600000D01*
X17116207Y-4682073D02*
X17116207Y-13511113D01*
X14600000Y-13600000D02*
X14600000Y-12900000D01*
X17116204Y-4682073D02*
G75*
G03*
X16888460Y-4454326I-227744J3D01*
G01*
X9833000Y-4829000D02*
X13717153Y-4829000D01*
X15050000Y-12450000D02*
X15050000Y-11600000D01*
X15600000Y-11550000D02*
X15450000Y-11400000D01*
X15150000Y-11500000D02*
X15382240Y-11500000D01*
X15382240Y-11500000D02*
X15482240Y-11600000D01*
X15050000Y-11600000D02*
X15150000Y-11500000D01*
X14600026Y-12899974D02*
X15050006Y-12449993D01*
X9766300Y-13511113D02*
G75*
G03*
X9994047Y-13738860I227750J3D01*
G01*
X13716853Y-4829393D02*
G75*
G03*
X13864173Y-4682073I-3J147323D01*
G01*
X14091920Y-4454326D02*
X16888460Y-4454326D01*
X16050000Y-12217760D02*
X16050000Y-12100000D01*
X14500000Y-13600000D02*
X14600000Y-13600000D01*
X14949684Y-12408636D02*
X14499977Y-12858343D01*
X9833088Y-4828996D02*
G75*
G03*
X9766496Y-4895592I2J-66594D01*
G01*
X14091920Y-4454323D02*
G75*
G03*
X13864173Y-4682073I0J-227747D01*
G01*
X15600000Y-11950000D02*
X15600000Y-11550000D01*
X15750000Y-12100000D02*
X15600000Y-11950000D01*
X16050000Y-12100000D02*
X15750000Y-12100000D01*
X15482240Y-12000000D02*
X15700000Y-12217760D01*
X15482240Y-11600000D02*
X15482240Y-12000000D01*
X15450000Y-11400000D02*
X15129000Y-11400000D01*
X15700000Y-12217760D02*
X16050000Y-12217760D01*
X15128948Y-11400055D02*
X14950035Y-11578968D01*
X16888460Y-13738860D02*
X9994900Y-13738860D01*
D11*
D10*
X10926640Y-5652480D02*
X10946640Y-5672480D01*
X10946640Y-5652480D02*
X10926640Y-5672480D01*
X10926640Y-5792480D02*
X10946640Y-5812480D01*
X10946640Y-5792480D02*
X10926640Y-5812480D01*
X10996640Y-5582480D02*
X11016640Y-5602480D01*
X11016640Y-5582480D02*
X10996640Y-5602480D01*
X10996640Y-5722480D02*
X11016640Y-5742480D01*
X11016640Y-5722480D02*
X10996640Y-5742480D01*
X10996640Y-5862480D02*
X11016640Y-5882480D01*
X11016640Y-5862480D02*
X10996640Y-5882480D01*
X11066640Y-5652480D02*
X11086640Y-5672480D01*
X11086640Y-5652480D02*
X11066640Y-5672480D01*
X11066640Y-5792480D02*
X11086640Y-5812480D01*
X11086640Y-5792480D02*
X11066640Y-5812480D01*
X11136640Y-5582480D02*
X11156640Y-5602480D01*
X11156640Y-5582480D02*
X11136640Y-5602480D01*
X11136640Y-5722480D02*
X11156640Y-5742480D01*
X11156640Y-5722480D02*
X11136640Y-5742480D01*
X11136640Y-5862480D02*
X11156640Y-5882480D01*
X11156640Y-5862480D02*
X11136640Y-5882480D01*
X11206640Y-5652480D02*
X11226640Y-5672480D01*
X11226640Y-5652480D02*
X11206640Y-5672480D01*
X11206640Y-5792480D02*
X11226640Y-5812480D01*
X11226640Y-5792480D02*
X11206640Y-5812480D01*
X9883000Y-5423000D02*
G75*
G03*
X9843000Y-5423000I-20000J0D01*
G01*
X9843000Y-5423000D02*
G75*
G03*
X9883000Y-5423000I20000J0D01*
G01*
X9883000Y-5673000D02*
G75*
G03*
X9843000Y-5673000I-20000J0D01*
G01*
X9843000Y-5673000D02*
G75*
G03*
X9883000Y-5673000I20000J0D01*
G01*
X9883000Y-5923000D02*
G75*
G03*
X9843000Y-5923000I-20000J0D01*
G01*
X9843000Y-5923000D02*
G75*
G03*
X9883000Y-5923000I20000J0D01*
G01*
X9883000Y-6173000D02*
G75*
G03*
X9843000Y-6173000I-20000J0D01*
G01*
X9843000Y-6173000D02*
G75*
G03*
X9883000Y-6173000I20000J0D01*
G01*
X10081000Y-6885000D02*
G75*
G03*
X10041000Y-6885000I-20000J0D01*
G01*
X10041000Y-6885000D02*
G75*
G03*
X10081000Y-6885000I20000J0D01*
G01*
X10131740Y-10612120D02*
G75*
G03*
X10091740Y-10612120I-20000J0D01*
G01*
X10091740Y-10612120D02*
G75*
G03*
X10131740Y-10612120I20000J0D01*
G01*
X10131740Y-10853420D02*
G75*
G03*
X10091740Y-10853420I-20000J0D01*
G01*
X10091740Y-10853420D02*
G75*
G03*
X10131740Y-10853420I20000J0D01*
G01*
X10152060Y-7686040D02*
G75*
G03*
X10112060Y-7686040I-20000J0D01*
G01*
X10112060Y-7686040D02*
G75*
G03*
X10152060Y-7686040I20000J0D01*
G01*
X10154600Y-7216140D02*
G75*
G03*
X10114600Y-7216140I-20000J0D01*
G01*
X10114600Y-7216140D02*
G75*
G03*
X10154600Y-7216140I20000J0D01*
G01*
X10154600Y-7863840D02*
G75*
G03*
X10114600Y-7863840I-20000J0D01*
G01*
X10114600Y-7863840D02*
G75*
G03*
X10154600Y-7863840I20000J0D01*
G01*
X10154600Y-8338820D02*
G75*
G03*
X10114600Y-8338820I-20000J0D01*
G01*
X10114600Y-8338820D02*
G75*
G03*
X10154600Y-8338820I20000J0D01*
G01*
X10154600Y-8516620D02*
G75*
G03*
X10114600Y-8516620I-20000J0D01*
G01*
X10114600Y-8516620D02*
G75*
G03*
X10154600Y-8516620I20000J0D01*
G01*
X10212000Y-6611000D02*
G75*
G03*
X10172000Y-6611000I-20000J0D01*
G01*
X10172000Y-6611000D02*
G75*
G03*
X10212000Y-6611000I20000J0D01*
G01*
X10291760Y-10929620D02*
G75*
G03*
X10251760Y-10929620I-20000J0D01*
G01*
X10251760Y-10929620D02*
G75*
G03*
X10291760Y-10929620I20000J0D01*
G01*
X10367960Y-9471660D02*
G75*
G03*
X10327960Y-9471660I-20000J0D01*
G01*
X10327960Y-9471660D02*
G75*
G03*
X10367960Y-9471660I20000J0D01*
G01*
X10373040Y-10274300D02*
G75*
G03*
X10333040Y-10274300I-20000J0D01*
G01*
X10333040Y-10274300D02*
G75*
G03*
X10373040Y-10274300I20000J0D01*
G01*
X10373040Y-10579100D02*
G75*
G03*
X10333040Y-10579100I-20000J0D01*
G01*
X10333040Y-10579100D02*
G75*
G03*
X10373040Y-10579100I20000J0D01*
G01*
X10500040Y-10716260D02*
G75*
G03*
X10460040Y-10716260I-20000J0D01*
G01*
X10460040Y-10716260D02*
G75*
G03*
X10500040Y-10716260I20000J0D01*
G01*
X10502580Y-9616440D02*
G75*
G03*
X10462580Y-9616440I-20000J0D01*
G01*
X10462580Y-9616440D02*
G75*
G03*
X10502580Y-9616440I20000J0D01*
G01*
X10535600Y-8336280D02*
G75*
G03*
X10495600Y-8336280I-20000J0D01*
G01*
X10495600Y-8336280D02*
G75*
G03*
X10535600Y-8336280I20000J0D01*
G01*
X10538140Y-9017000D02*
G75*
G03*
X10498140Y-9017000I-20000J0D01*
G01*
X10498140Y-9017000D02*
G75*
G03*
X10538140Y-9017000I20000J0D01*
G01*
X10538140Y-9144000D02*
G75*
G03*
X10498140Y-9144000I-20000J0D01*
G01*
X10498140Y-9144000D02*
G75*
G03*
X10538140Y-9144000I20000J0D01*
G01*
X10540680Y-7680960D02*
G75*
G03*
X10500680Y-7680960I-20000J0D01*
G01*
X10500680Y-7680960D02*
G75*
G03*
X10540680Y-7680960I20000J0D01*
G01*
X10728640Y-9017000D02*
G75*
G03*
X10688640Y-9017000I-20000J0D01*
G01*
X10688640Y-9017000D02*
G75*
G03*
X10728640Y-9017000I20000J0D01*
G01*
X10728640Y-9144000D02*
G75*
G03*
X10688640Y-9144000I-20000J0D01*
G01*
X10688640Y-9144000D02*
G75*
G03*
X10728640Y-9144000I20000J0D01*
G01*
X10733720Y-7668260D02*
G75*
G03*
X10693720Y-7668260I-20000J0D01*
G01*
X10693720Y-7668260D02*
G75*
G03*
X10733720Y-7668260I20000J0D01*
G01*
X10733720Y-8326120D02*
G75*
G03*
X10693720Y-8326120I-20000J0D01*
G01*
X10693720Y-8326120D02*
G75*
G03*
X10733720Y-8326120I20000J0D01*
G01*
X10794680Y-13121640D02*
G75*
G03*
X10754680Y-13121640I-20000J0D01*
G01*
X10754680Y-13121640D02*
G75*
G03*
X10794680Y-13121640I20000J0D01*
G01*
X10799760Y-7150100D02*
G75*
G03*
X10759760Y-7150100I-20000J0D01*
G01*
X10759760Y-7150100D02*
G75*
G03*
X10799760Y-7150100I20000J0D01*
G01*
X10804840Y-6915000D02*
G75*
G03*
X10764840Y-6915000I-20000J0D01*
G01*
X10764840Y-6915000D02*
G75*
G03*
X10804840Y-6915000I20000J0D01*
G01*
X10893740Y-9319260D02*
G75*
G03*
X10853740Y-9319260I-20000J0D01*
G01*
X10853740Y-9319260D02*
G75*
G03*
X10893740Y-9319260I20000J0D01*
G01*
X10896280Y-9530080D02*
G75*
G03*
X10856280Y-9530080I-20000J0D01*
G01*
X10856280Y-9530080D02*
G75*
G03*
X10896280Y-9530080I20000J0D01*
G01*
X10919140Y-9017000D02*
G75*
G03*
X10879140Y-9017000I-20000J0D01*
G01*
X10879140Y-9017000D02*
G75*
G03*
X10919140Y-9017000I20000J0D01*
G01*
X10919140Y-9144000D02*
G75*
G03*
X10879140Y-9144000I-20000J0D01*
G01*
X10879140Y-9144000D02*
G75*
G03*
X10919140Y-9144000I20000J0D01*
G01*
X10942000Y-12954000D02*
G75*
G03*
X10902000Y-12954000I-20000J0D01*
G01*
X10902000Y-12954000D02*
G75*
G03*
X10942000Y-12954000I20000J0D01*
G01*
X11048680Y-9423400D02*
G75*
G03*
X11008680Y-9423400I-20000J0D01*
G01*
X11008680Y-9423400D02*
G75*
G03*
X11048680Y-9423400I20000J0D01*
G01*
X11074080Y-8671560D02*
G75*
G03*
X11034080Y-8671560I-20000J0D01*
G01*
X11034080Y-8671560D02*
G75*
G03*
X11074080Y-8671560I20000J0D01*
G01*
X11361100Y-8933180D02*
G75*
G03*
X11321100Y-8933180I-20000J0D01*
G01*
X11321100Y-8933180D02*
G75*
G03*
X11361100Y-8933180I20000J0D01*
G01*
X11490640Y-10985500D02*
G75*
G03*
X11450640Y-10985500I-20000J0D01*
G01*
X11450640Y-10985500D02*
G75*
G03*
X11490640Y-10985500I20000J0D01*
G01*
X11490640Y-11112500D02*
G75*
G03*
X11450640Y-11112500I-20000J0D01*
G01*
X11450640Y-11112500D02*
G75*
G03*
X11490640Y-11112500I20000J0D01*
G01*
X11541440Y-9923780D02*
G75*
G03*
X11501440Y-9923780I-20000J0D01*
G01*
X11501440Y-9923780D02*
G75*
G03*
X11541440Y-9923780I20000J0D01*
G01*
X11566840Y-8935720D02*
G75*
G03*
X11526840Y-8935720I-20000J0D01*
G01*
X11526840Y-8935720D02*
G75*
G03*
X11566840Y-8935720I20000J0D01*
G01*
X11617640Y-10840720D02*
G75*
G03*
X11577640Y-10840720I-20000J0D01*
G01*
X11577640Y-10840720D02*
G75*
G03*
X11617640Y-10840720I20000J0D01*
G01*
X11744640Y-10985500D02*
G75*
G03*
X11704640Y-10985500I-20000J0D01*
G01*
X11704640Y-10985500D02*
G75*
G03*
X11744640Y-10985500I20000J0D01*
G01*
X11744640Y-11112500D02*
G75*
G03*
X11704640Y-11112500I-20000J0D01*
G01*
X11704640Y-11112500D02*
G75*
G03*
X11744640Y-11112500I20000J0D01*
G01*
X11752260Y-8912860D02*
G75*
G03*
X11712260Y-8912860I-20000J0D01*
G01*
X11712260Y-8912860D02*
G75*
G03*
X11752260Y-8912860I20000J0D01*
G01*
X11958000Y-13462000D02*
G75*
G03*
X11918000Y-13462000I-20000J0D01*
G01*
X11918000Y-13462000D02*
G75*
G03*
X11958000Y-13462000I20000J0D01*
G01*
X11998640Y-10985500D02*
G75*
G03*
X11958640Y-10985500I-20000J0D01*
G01*
X11958640Y-10985500D02*
G75*
G03*
X11998640Y-10985500I20000J0D01*
G01*
X11998640Y-11112500D02*
G75*
G03*
X11958640Y-11112500I-20000J0D01*
G01*
X11958640Y-11112500D02*
G75*
G03*
X11998640Y-11112500I20000J0D01*
G01*
X11998640Y-12255500D02*
G75*
G03*
X11958640Y-12255500I-20000J0D01*
G01*
X11958640Y-12255500D02*
G75*
G03*
X11998640Y-12255500I20000J0D01*
G01*
X12252640Y-10985500D02*
G75*
G03*
X12212640Y-10985500I-20000J0D01*
G01*
X12212640Y-10985500D02*
G75*
G03*
X12252640Y-10985500I20000J0D01*
G01*
X12252640Y-11112500D02*
G75*
G03*
X12212640Y-11112500I-20000J0D01*
G01*
X12212640Y-11112500D02*
G75*
G03*
X12252640Y-11112500I20000J0D01*
G01*
X12252640Y-12255500D02*
G75*
G03*
X12212640Y-12255500I-20000J0D01*
G01*
X12212640Y-12255500D02*
G75*
G03*
X12252640Y-12255500I20000J0D01*
G01*
X12300900Y-6611480D02*
G75*
G03*
X12260900Y-6611480I-20000J0D01*
G01*
X12260900Y-6611480D02*
G75*
G03*
X12300900Y-6611480I20000J0D01*
G01*
X12333600Y-9908220D02*
G75*
G03*
X12293600Y-9908220I-20000J0D01*
G01*
X12293600Y-9908220D02*
G75*
G03*
X12333600Y-9908220I20000J0D01*
G01*
X12396150Y-8117840D02*
G75*
G03*
X12356150Y-8117840I-20000J0D01*
G01*
X12356150Y-8117840D02*
G75*
G03*
X12396150Y-8117840I20000J0D01*
G01*
X12397420Y-6055360D02*
G75*
G03*
X12357420Y-6055360I-20000J0D01*
G01*
X12357420Y-6055360D02*
G75*
G03*
X12397420Y-6055360I20000J0D01*
G01*
X12402500Y-5621020D02*
G75*
G03*
X12362500Y-5621020I-20000J0D01*
G01*
X12362500Y-5621020D02*
G75*
G03*
X12402500Y-5621020I20000J0D01*
G01*
X12483780Y-4889500D02*
G75*
G03*
X12443780Y-4889500I-20000J0D01*
G01*
X12443780Y-4889500D02*
G75*
G03*
X12483780Y-4889500I20000J0D01*
G01*
X12486320Y-8890000D02*
G75*
G03*
X12446320Y-8890000I-20000J0D01*
G01*
X12446320Y-8890000D02*
G75*
G03*
X12486320Y-8890000I20000J0D01*
G01*
X12506640Y-6667500D02*
G75*
G03*
X12466640Y-6667500I-20000J0D01*
G01*
X12466640Y-6667500D02*
G75*
G03*
X12506640Y-6667500I20000J0D01*
G01*
X12595540Y-9431020D02*
G75*
G03*
X12555540Y-9431020I-20000J0D01*
G01*
X12555540Y-9431020D02*
G75*
G03*
X12595540Y-9431020I20000J0D01*
G01*
X12603160Y-8128000D02*
G75*
G03*
X12563160Y-8128000I-20000J0D01*
G01*
X12563160Y-8128000D02*
G75*
G03*
X12603160Y-8128000I20000J0D01*
G01*
X12702220Y-8544560D02*
G75*
G03*
X12662220Y-8544560I-20000J0D01*
G01*
X12662220Y-8544560D02*
G75*
G03*
X12702220Y-8544560I20000J0D01*
G01*
X12737780Y-9110980D02*
G75*
G03*
X12697780Y-9110980I-20000J0D01*
G01*
X12697780Y-9110980D02*
G75*
G03*
X12737780Y-9110980I20000J0D01*
G01*
X12765100Y-9688017D02*
G75*
G03*
X12725100Y-9688017I-20000J0D01*
G01*
X12725100Y-9688017D02*
G75*
G03*
X12765100Y-9688017I20000J0D01*
G01*
X12821600Y-7543800D02*
G75*
G03*
X12781600Y-7543800I-20000J0D01*
G01*
X12781600Y-7543800D02*
G75*
G03*
X12821600Y-7543800I20000J0D01*
G01*
X12837800Y-9771380D02*
G75*
G03*
X12797800Y-9771380I-20000J0D01*
G01*
X12797800Y-9771380D02*
G75*
G03*
X12837800Y-9771380I20000J0D01*
G01*
X12880020Y-12387580D02*
G75*
G03*
X12840020Y-12387580I-20000J0D01*
G01*
X12840020Y-12387580D02*
G75*
G03*
X12880020Y-12387580I20000J0D01*
G01*
X12880020Y-13243560D02*
G75*
G03*
X12840020Y-13243560I-20000J0D01*
G01*
X12840020Y-13243560D02*
G75*
G03*
X12880020Y-13243560I20000J0D01*
G01*
X12910500Y-9860280D02*
G75*
G03*
X12870500Y-9860280I-20000J0D01*
G01*
X12870500Y-9860280D02*
G75*
G03*
X12910500Y-9860280I20000J0D01*
G01*
X13042580Y-12037250D02*
G75*
G03*
X13002580Y-12037250I-20000J0D01*
G01*
X13002580Y-12037250D02*
G75*
G03*
X13042580Y-12037250I20000J0D01*
G01*
X13073060Y-12319000D02*
G75*
G03*
X13033060Y-12319000I-20000J0D01*
G01*
X13033060Y-12319000D02*
G75*
G03*
X13073060Y-12319000I20000J0D01*
G01*
X13073060Y-13342620D02*
G75*
G03*
X13033060Y-13342620I-20000J0D01*
G01*
X13033060Y-13342620D02*
G75*
G03*
X13073060Y-13342620I20000J0D01*
G01*
X13115987Y-5089200D02*
G75*
G03*
X13075987Y-5089200I-20000J0D01*
G01*
X13075987Y-5089200D02*
G75*
G03*
X13115987Y-5089200I20000J0D01*
G01*
X13131480Y-6863080D02*
G75*
G03*
X13091480Y-6863080I-20000J0D01*
G01*
X13091480Y-6863080D02*
G75*
G03*
X13131480Y-6863080I20000J0D01*
G01*
X13182280Y-13591540D02*
G75*
G03*
X13142280Y-13591540I-20000J0D01*
G01*
X13142280Y-13591540D02*
G75*
G03*
X13182280Y-13591540I20000J0D01*
G01*
X13286420Y-5100320D02*
G75*
G03*
X13246420Y-5100320I-20000J0D01*
G01*
X13246420Y-5100320D02*
G75*
G03*
X13286420Y-5100320I20000J0D01*
G01*
X13310270Y-6917410D02*
G75*
G03*
X13270270Y-6917410I-20000J0D01*
G01*
X13270270Y-6917410D02*
G75*
G03*
X13310270Y-6917410I20000J0D01*
G01*
X13370240Y-9791700D02*
G75*
G03*
X13330240Y-9791700I-20000J0D01*
G01*
X13330240Y-9791700D02*
G75*
G03*
X13370240Y-9791700I20000J0D01*
G01*
X13469300Y-12047220D02*
G75*
G03*
X13429300Y-12047220I-20000J0D01*
G01*
X13429300Y-12047220D02*
G75*
G03*
X13469300Y-12047220I20000J0D01*
G01*
X13522640Y-6032500D02*
G75*
G03*
X13482640Y-6032500I-20000J0D01*
G01*
X13482640Y-6032500D02*
G75*
G03*
X13522640Y-6032500I20000J0D01*
G01*
X13522640Y-6159500D02*
G75*
G03*
X13482640Y-6159500I-20000J0D01*
G01*
X13482640Y-6159500D02*
G75*
G03*
X13522640Y-6159500I20000J0D01*
G01*
X13522640Y-6286500D02*
G75*
G03*
X13482640Y-6286500I-20000J0D01*
G01*
X13482640Y-6286500D02*
G75*
G03*
X13522640Y-6286500I20000J0D01*
G01*
X13522640Y-6413500D02*
G75*
G03*
X13482640Y-6413500I-20000J0D01*
G01*
X13482640Y-6413500D02*
G75*
G03*
X13522640Y-6413500I20000J0D01*
G01*
X13598840Y-9791700D02*
G75*
G03*
X13558840Y-9791700I-20000J0D01*
G01*
X13558840Y-9791700D02*
G75*
G03*
X13598840Y-9791700I20000J0D01*
G01*
X13687079Y-9345960D02*
G75*
G03*
X13647079Y-9345960I-20000J0D01*
G01*
X13647079Y-9345960D02*
G75*
G03*
X13687079Y-9345960I20000J0D01*
G01*
X13766480Y-5692140D02*
G75*
G03*
X13726480Y-5692140I-20000J0D01*
G01*
X13726480Y-5692140D02*
G75*
G03*
X13766480Y-5692140I20000J0D01*
G01*
X13771560Y-9418660D02*
G75*
G03*
X13731560Y-9418660I-20000J0D01*
G01*
X13731560Y-9418660D02*
G75*
G03*
X13771560Y-9418660I20000J0D01*
G01*
X13774100Y-7584440D02*
G75*
G03*
X13734100Y-7584440I-20000J0D01*
G01*
X13734100Y-7584440D02*
G75*
G03*
X13774100Y-7584440I20000J0D01*
G01*
X13776640Y-6032500D02*
G75*
G03*
X13736640Y-6032500I-20000J0D01*
G01*
X13736640Y-6032500D02*
G75*
G03*
X13776640Y-6032500I20000J0D01*
G01*
X13776640Y-6159500D02*
G75*
G03*
X13736640Y-6159500I-20000J0D01*
G01*
X13736640Y-6159500D02*
G75*
G03*
X13776640Y-6159500I20000J0D01*
G01*
X13776640Y-6286500D02*
G75*
G03*
X13736640Y-6286500I-20000J0D01*
G01*
X13736640Y-6286500D02*
G75*
G03*
X13776640Y-6286500I20000J0D01*
G01*
X13776640Y-6921500D02*
G75*
G03*
X13736640Y-6921500I-20000J0D01*
G01*
X13736640Y-6921500D02*
G75*
G03*
X13776640Y-6921500I20000J0D01*
G01*
X13852840Y-9791700D02*
G75*
G03*
X13812840Y-9791700I-20000J0D01*
G01*
X13812840Y-9791700D02*
G75*
G03*
X13852840Y-9791700I20000J0D01*
G01*
X13852840Y-9918700D02*
G75*
G03*
X13812840Y-9918700I-20000J0D01*
G01*
X13812840Y-9918700D02*
G75*
G03*
X13852840Y-9918700I20000J0D01*
G01*
X13868080Y-5219700D02*
G75*
G03*
X13828080Y-5219700I-20000J0D01*
G01*
X13828080Y-5219700D02*
G75*
G03*
X13868080Y-5219700I20000J0D01*
G01*
X13875700Y-9491360D02*
G75*
G03*
X13835700Y-9491360I-20000J0D01*
G01*
X13835700Y-9491360D02*
G75*
G03*
X13875700Y-9491360I20000J0D01*
G01*
X13939200Y-13238480D02*
G75*
G03*
X13899200Y-13238480I-20000J0D01*
G01*
X13899200Y-13238480D02*
G75*
G03*
X13939200Y-13238480I20000J0D01*
G01*
X13944280Y-13081000D02*
G75*
G03*
X13904280Y-13081000I-20000J0D01*
G01*
X13904280Y-13081000D02*
G75*
G03*
X13944280Y-13081000I20000J0D01*
G01*
X13956980Y-9392920D02*
G75*
G03*
X13916980Y-9392920I-20000J0D01*
G01*
X13916980Y-9392920D02*
G75*
G03*
X13956980Y-9392920I20000J0D01*
G01*
X14020480Y-7487920D02*
G75*
G03*
X13980480Y-7487920I-20000J0D01*
G01*
X13980480Y-7487920D02*
G75*
G03*
X14020480Y-7487920I20000J0D01*
G01*
X14030640Y-5905500D02*
G75*
G03*
X13990640Y-5905500I-20000J0D01*
G01*
X13990640Y-5905500D02*
G75*
G03*
X14030640Y-5905500I20000J0D01*
G01*
X14030640Y-6032500D02*
G75*
G03*
X13990640Y-6032500I-20000J0D01*
G01*
X13990640Y-6032500D02*
G75*
G03*
X14030640Y-6032500I20000J0D01*
G01*
X14030640Y-6159500D02*
G75*
G03*
X13990640Y-6159500I-20000J0D01*
G01*
X13990640Y-6159500D02*
G75*
G03*
X14030640Y-6159500I20000J0D01*
G01*
X14030640Y-6286500D02*
G75*
G03*
X13990640Y-6286500I-20000J0D01*
G01*
X13990640Y-6286500D02*
G75*
G03*
X14030640Y-6286500I20000J0D01*
G01*
X14030640Y-6413500D02*
G75*
G03*
X13990640Y-6413500I-20000J0D01*
G01*
X13990640Y-6413500D02*
G75*
G03*
X14030640Y-6413500I20000J0D01*
G01*
X14030640Y-6921500D02*
G75*
G03*
X13990640Y-6921500I-20000J0D01*
G01*
X13990640Y-6921500D02*
G75*
G03*
X14030640Y-6921500I20000J0D01*
G01*
X14106840Y-9791700D02*
G75*
G03*
X14066840Y-9791700I-20000J0D01*
G01*
X14066840Y-9791700D02*
G75*
G03*
X14106840Y-9791700I20000J0D01*
G01*
X14106840Y-9918700D02*
G75*
G03*
X14066840Y-9918700I-20000J0D01*
G01*
X14066840Y-9918700D02*
G75*
G03*
X14106840Y-9918700I20000J0D01*
G01*
X14190660Y-6916420D02*
G75*
G03*
X14150660Y-6916420I-20000J0D01*
G01*
X14150660Y-6916420D02*
G75*
G03*
X14190660Y-6916420I20000J0D01*
G01*
X14244000Y-10668000D02*
G75*
G03*
X14204000Y-10668000I-20000J0D01*
G01*
X14204000Y-10668000D02*
G75*
G03*
X14244000Y-10668000I20000J0D01*
G01*
X14244000Y-10922000D02*
G75*
G03*
X14204000Y-10922000I-20000J0D01*
G01*
X14204000Y-10922000D02*
G75*
G03*
X14244000Y-10922000I20000J0D01*
G01*
X14244000Y-11176000D02*
G75*
G03*
X14204000Y-11176000I-20000J0D01*
G01*
X14204000Y-11176000D02*
G75*
G03*
X14244000Y-11176000I20000J0D01*
G01*
X14264320Y-5476240D02*
G75*
G03*
X14224320Y-5476240I-20000J0D01*
G01*
X14224320Y-5476240D02*
G75*
G03*
X14264320Y-5476240I20000J0D01*
G01*
X14284640Y-5905500D02*
G75*
G03*
X14244640Y-5905500I-20000J0D01*
G01*
X14244640Y-5905500D02*
G75*
G03*
X14284640Y-5905500I20000J0D01*
G01*
X14284640Y-7429500D02*
G75*
G03*
X14244640Y-7429500I-20000J0D01*
G01*
X14244640Y-7429500D02*
G75*
G03*
X14284640Y-7429500I20000J0D01*
G01*
X14284640Y-13525500D02*
G75*
G03*
X14244640Y-13525500I-20000J0D01*
G01*
X14244640Y-13525500D02*
G75*
G03*
X14284640Y-13525500I20000J0D01*
G01*
X14401480Y-9763760D02*
G75*
G03*
X14361480Y-9763760I-20000J0D01*
G01*
X14361480Y-9763760D02*
G75*
G03*
X14401480Y-9763760I20000J0D01*
G01*
X14440668Y-8695788D02*
G75*
G03*
X14400668Y-8695788I-20000J0D01*
G01*
X14400668Y-8695788D02*
G75*
G03*
X14440668Y-8695788I20000J0D01*
G01*
X14467520Y-8260080D02*
G75*
G03*
X14427520Y-8260080I-20000J0D01*
G01*
X14427520Y-8260080D02*
G75*
G03*
X14467520Y-8260080I20000J0D01*
G01*
X14498000Y-12446000D02*
G75*
G03*
X14458000Y-12446000I-20000J0D01*
G01*
X14458000Y-12446000D02*
G75*
G03*
X14498000Y-12446000I20000J0D01*
G01*
X14514468Y-8621988D02*
G75*
G03*
X14474468Y-8621988I-20000J0D01*
G01*
X14474468Y-8621988D02*
G75*
G03*
X14514468Y-8621988I20000J0D01*
G01*
X14533000Y-9047000D02*
G75*
G03*
X14493000Y-9047000I-20000J0D01*
G01*
X14493000Y-9047000D02*
G75*
G03*
X14533000Y-9047000I20000J0D01*
G01*
X14533560Y-8943340D02*
G75*
G03*
X14493560Y-8943340I-20000J0D01*
G01*
X14493560Y-8943340D02*
G75*
G03*
X14533560Y-8943340I20000J0D01*
G01*
X14538640Y-6413500D02*
G75*
G03*
X14498640Y-6413500I-20000J0D01*
G01*
X14498640Y-6413500D02*
G75*
G03*
X14538640Y-6413500I20000J0D01*
G01*
X14538640Y-7429500D02*
G75*
G03*
X14498640Y-7429500I-20000J0D01*
G01*
X14498640Y-7429500D02*
G75*
G03*
X14538640Y-7429500I20000J0D01*
G01*
X14538640Y-7683500D02*
G75*
G03*
X14498640Y-7683500I-20000J0D01*
G01*
X14498640Y-7683500D02*
G75*
G03*
X14538640Y-7683500I20000J0D01*
G01*
X14538640Y-7937500D02*
G75*
G03*
X14498640Y-7937500I-20000J0D01*
G01*
X14498640Y-7937500D02*
G75*
G03*
X14538640Y-7937500I20000J0D01*
G01*
X14593282Y-8543174D02*
G75*
G03*
X14553282Y-8543174I-20000J0D01*
G01*
X14553282Y-8543174D02*
G75*
G03*
X14593282Y-8543174I20000J0D01*
G01*
X14645320Y-5924860D02*
G75*
G03*
X14605320Y-5924860I-20000J0D01*
G01*
X14605320Y-5924860D02*
G75*
G03*
X14645320Y-5924860I20000J0D01*
G01*
X14650400Y-10165080D02*
G75*
G03*
X14610400Y-10165080I-20000J0D01*
G01*
X14610400Y-10165080D02*
G75*
G03*
X14650400Y-10165080I20000J0D01*
G01*
X14660560Y-9453880D02*
G75*
G03*
X14620560Y-9453880I-20000J0D01*
G01*
X14620560Y-9453880D02*
G75*
G03*
X14660560Y-9453880I20000J0D01*
G01*
X14691040Y-8801100D02*
G75*
G03*
X14651040Y-8801100I-20000J0D01*
G01*
X14651040Y-8801100D02*
G75*
G03*
X14691040Y-8801100I20000J0D01*
G01*
X14718980Y-5397500D02*
G75*
G03*
X14678980Y-5397500I-20000J0D01*
G01*
X14678980Y-5397500D02*
G75*
G03*
X14718980Y-5397500I20000J0D01*
G01*
X14812960Y-6136640D02*
G75*
G03*
X14772960Y-6136640I-20000J0D01*
G01*
X14772960Y-6136640D02*
G75*
G03*
X14812960Y-6136640I20000J0D01*
G01*
X14955200Y-5864860D02*
G75*
G03*
X14915200Y-5864860I-20000J0D01*
G01*
X14915200Y-5864860D02*
G75*
G03*
X14955200Y-5864860I20000J0D01*
G01*
X15167000Y-4688840D02*
G75*
G03*
X15127000Y-4688840I-20000J0D01*
G01*
X15127000Y-4688840D02*
G75*
G03*
X15167000Y-4688840I20000J0D01*
G01*
X15167000Y-4942840D02*
G75*
G03*
X15127000Y-4942840I-20000J0D01*
G01*
X15127000Y-4942840D02*
G75*
G03*
X15167000Y-4942840I20000J0D01*
G01*
X15229520Y-7668260D02*
G75*
G03*
X15189520Y-7668260I-20000J0D01*
G01*
X15189520Y-7668260D02*
G75*
G03*
X15229520Y-7668260I20000J0D01*
G01*
X15421000Y-4688840D02*
G75*
G03*
X15381000Y-4688840I-20000J0D01*
G01*
X15381000Y-4688840D02*
G75*
G03*
X15421000Y-4688840I20000J0D01*
G01*
X15421000Y-4942840D02*
G75*
G03*
X15381000Y-4942840I-20000J0D01*
G01*
X15381000Y-4942840D02*
G75*
G03*
X15421000Y-4942840I20000J0D01*
G01*
X15506380Y-6530340D02*
G75*
G03*
X15466380Y-6530340I-20000J0D01*
G01*
X15466380Y-6530340D02*
G75*
G03*
X15506380Y-6530340I20000J0D01*
G01*
X15516540Y-9047480D02*
G75*
G03*
X15476540Y-9047480I-20000J0D01*
G01*
X15476540Y-9047480D02*
G75*
G03*
X15516540Y-9047480I20000J0D01*
G01*
X15658780Y-6281420D02*
G75*
G03*
X15618780Y-6281420I-20000J0D01*
G01*
X15618780Y-6281420D02*
G75*
G03*
X15658780Y-6281420I20000J0D01*
G01*
X15675000Y-4688840D02*
G75*
G03*
X15635000Y-4688840I-20000J0D01*
G01*
X15635000Y-4688840D02*
G75*
G03*
X15675000Y-4688840I20000J0D01*
G01*
X15675000Y-4942840D02*
G75*
G03*
X15635000Y-4942840I-20000J0D01*
G01*
X15635000Y-4942840D02*
G75*
G03*
X15675000Y-4942840I20000J0D01*
G01*
X15798480Y-8605520D02*
G75*
G03*
X15758480Y-8605520I-20000J0D01*
G01*
X15758480Y-8605520D02*
G75*
G03*
X15798480Y-8605520I20000J0D01*
G01*
X15808640Y-6159500D02*
G75*
G03*
X15768640Y-6159500I-20000J0D01*
G01*
X15768640Y-6159500D02*
G75*
G03*
X15808640Y-6159500I20000J0D01*
G01*
X15808640Y-6413500D02*
G75*
G03*
X15768640Y-6413500I-20000J0D01*
G01*
X15768640Y-6413500D02*
G75*
G03*
X15808640Y-6413500I20000J0D01*
G01*
X15808640Y-6667500D02*
G75*
G03*
X15768640Y-6667500I-20000J0D01*
G01*
X15768640Y-6667500D02*
G75*
G03*
X15808640Y-6667500I20000J0D01*
G01*
X15808640Y-6921500D02*
G75*
G03*
X15768640Y-6921500I-20000J0D01*
G01*
X15768640Y-6921500D02*
G75*
G03*
X15808640Y-6921500I20000J0D01*
G01*
X15808640Y-7175500D02*
G75*
G03*
X15768640Y-7175500I-20000J0D01*
G01*
X15768640Y-7175500D02*
G75*
G03*
X15808640Y-7175500I20000J0D01*
G01*
X15808640Y-7683500D02*
G75*
G03*
X15768640Y-7683500I-20000J0D01*
G01*
X15768640Y-7683500D02*
G75*
G03*
X15808640Y-7683500I20000J0D01*
G01*
X15808640Y-7937500D02*
G75*
G03*
X15768640Y-7937500I-20000J0D01*
G01*
X15768640Y-7937500D02*
G75*
G03*
X15808640Y-7937500I20000J0D01*
G01*
X15808640Y-8191500D02*
G75*
G03*
X15768640Y-8191500I-20000J0D01*
G01*
X15768640Y-8191500D02*
G75*
G03*
X15808640Y-8191500I20000J0D01*
G01*
X15808640Y-8445500D02*
G75*
G03*
X15768640Y-8445500I-20000J0D01*
G01*
X15768640Y-8445500D02*
G75*
G03*
X15808640Y-8445500I20000J0D01*
G01*
X15961040Y-8862060D02*
G75*
G03*
X15921040Y-8862060I-20000J0D01*
G01*
X15921040Y-8862060D02*
G75*
G03*
X15961040Y-8862060I20000J0D01*
G01*
X16022000Y-10160000D02*
G75*
G03*
X15982000Y-10160000I-20000J0D01*
G01*
X15982000Y-10160000D02*
G75*
G03*
X16022000Y-10160000I20000J0D01*
G01*
X16022000Y-10414000D02*
G75*
G03*
X15982000Y-10414000I-20000J0D01*
G01*
X15982000Y-10414000D02*
G75*
G03*
X16022000Y-10414000I20000J0D01*
G01*
X16022000Y-10668000D02*
G75*
G03*
X15982000Y-10668000I-20000J0D01*
G01*
X15982000Y-10668000D02*
G75*
G03*
X16022000Y-10668000I20000J0D01*
G01*
X16022000Y-10922000D02*
G75*
G03*
X15982000Y-10922000I-20000J0D01*
G01*
X15982000Y-10922000D02*
G75*
G03*
X16022000Y-10922000I20000J0D01*
G01*
X16062640Y-4635500D02*
G75*
G03*
X16022640Y-4635500I-20000J0D01*
G01*
X16022640Y-4635500D02*
G75*
G03*
X16062640Y-4635500I20000J0D01*
G01*
X16116282Y-9327182D02*
G75*
G03*
X16076282Y-9327182I-20000J0D01*
G01*
X16076282Y-9327182D02*
G75*
G03*
X16116282Y-9327182I20000J0D01*
G01*
X16276000Y-9652000D02*
G75*
G03*
X16236000Y-9652000I-20000J0D01*
G01*
X16236000Y-9652000D02*
G75*
G03*
X16276000Y-9652000I20000J0D01*
G01*
X16276000Y-9906000D02*
G75*
G03*
X16236000Y-9906000I-20000J0D01*
G01*
X16236000Y-9906000D02*
G75*
G03*
X16276000Y-9906000I20000J0D01*
G01*
X16276000Y-10160000D02*
G75*
G03*
X16236000Y-10160000I-20000J0D01*
G01*
X16236000Y-10160000D02*
G75*
G03*
X16276000Y-10160000I20000J0D01*
G01*
X16276000Y-10414000D02*
G75*
G03*
X16236000Y-10414000I-20000J0D01*
G01*
X16236000Y-10414000D02*
G75*
G03*
X16276000Y-10414000I20000J0D01*
G01*
X16276000Y-10922000D02*
G75*
G03*
X16236000Y-10922000I-20000J0D01*
G01*
X16236000Y-10922000D02*
G75*
G03*
X16276000Y-10922000I20000J0D01*
G01*
X16443640Y-6545580D02*
G75*
G03*
X16403640Y-6545580I-20000J0D01*
G01*
X16403640Y-6545580D02*
G75*
G03*
X16443640Y-6545580I20000J0D01*
G01*
X16448720Y-7978140D02*
G75*
G03*
X16408720Y-7978140I-20000J0D01*
G01*
X16408720Y-7978140D02*
G75*
G03*
X16448720Y-7978140I20000J0D01*
G01*
X16530000Y-9398000D02*
G75*
G03*
X16490000Y-9398000I-20000J0D01*
G01*
X16490000Y-9398000D02*
G75*
G03*
X16530000Y-9398000I20000J0D01*
G01*
X16530000Y-9652000D02*
G75*
G03*
X16490000Y-9652000I-20000J0D01*
G01*
X16490000Y-9652000D02*
G75*
G03*
X16530000Y-9652000I20000J0D01*
G01*
X16530000Y-9906000D02*
G75*
G03*
X16490000Y-9906000I-20000J0D01*
G01*
X16490000Y-9906000D02*
G75*
G03*
X16530000Y-9906000I20000J0D01*
G01*
X16530000Y-10160000D02*
G75*
G03*
X16490000Y-10160000I-20000J0D01*
G01*
X16490000Y-10160000D02*
G75*
G03*
X16530000Y-10160000I20000J0D01*
G01*
X16570640Y-5651500D02*
G75*
G03*
X16530640Y-5651500I-20000J0D01*
G01*
X16530640Y-5651500D02*
G75*
G03*
X16570640Y-5651500I20000J0D01*
G01*
X16570640Y-5905500D02*
G75*
G03*
X16530640Y-5905500I-20000J0D01*
G01*
X16530640Y-5905500D02*
G75*
G03*
X16570640Y-5905500I20000J0D01*
G01*
X16784000Y-9144000D02*
G75*
G03*
X16744000Y-9144000I-20000J0D01*
G01*
X16744000Y-9144000D02*
G75*
G03*
X16784000Y-9144000I20000J0D01*
G01*
X16784000Y-9398000D02*
G75*
G03*
X16744000Y-9398000I-20000J0D01*
G01*
X16744000Y-9398000D02*
G75*
G03*
X16784000Y-9398000I20000J0D01*
G01*
X16784000Y-9652000D02*
G75*
G03*
X16744000Y-9652000I-20000J0D01*
G01*
X16744000Y-9652000D02*
G75*
G03*
X16784000Y-9652000I20000J0D01*
G01*
X16784000Y-9906000D02*
G75*
G03*
X16744000Y-9906000I-20000J0D01*
G01*
X16744000Y-9906000D02*
G75*
G03*
X16784000Y-9906000I20000J0D01*
G01*
X16784000Y-10160000D02*
G75*
G03*
X16744000Y-10160000I-20000J0D01*
G01*
X16744000Y-10160000D02*
G75*
G03*
X16784000Y-10160000I20000J0D01*
G01*
X16824640Y-5651500D02*
G75*
G03*
X16784640Y-5651500I-20000J0D01*
G01*
X16784640Y-5651500D02*
G75*
G03*
X16824640Y-5651500I20000J0D01*
G01*
X16824640Y-5905500D02*
G75*
G03*
X16784640Y-5905500I-20000J0D01*
G01*
X16784640Y-5905500D02*
G75*
G03*
X16824640Y-5905500I20000J0D01*
G01*
X16824640Y-6159500D02*
G75*
G03*
X16784640Y-6159500I-20000J0D01*
G01*
X16784640Y-6159500D02*
G75*
G03*
X16824640Y-6159500I20000J0D01*
G01*
X14052900Y-4620580D02*
X14052900Y-4675580D01*
X14025400Y-4648080D02*
X14080400Y-4648080D01*
X14080400Y-4680580D02*
X14080400Y-4615580D01*
X14080400Y-4615580D02*
G75*
G03*
X14025400Y-4615580I-27500J0D01*
G01*
X14025400Y-4615580D02*
X14025400Y-4680580D01*
X14025400Y-4680580D02*
G75*
G03*
X14080400Y-4680580I27500J0D01*
G01*
X14827900Y-4620580D02*
X14827900Y-4675580D01*
X14800400Y-4648080D02*
X14855400Y-4648080D01*
X14855400Y-4680580D02*
X14855400Y-4615580D01*
X14855400Y-4615580D02*
G75*
G03*
X14800400Y-4615580I-27500J0D01*
G01*
X14800400Y-4615580D02*
X14800400Y-4680580D01*
X14800400Y-4680580D02*
G75*
G03*
X14855400Y-4680580I27500J0D01*
G01*
X11711204Y-11404964D02*
X11711204Y-11348395D01*
X11654635Y-11348395D01*
X11654635Y-11404964D01*
X11711204Y-11404964D01*
X11711204Y-11724964D02*
X11711204Y-11668395D01*
X11654635Y-11668395D01*
X11654635Y-11724964D01*
X11711204Y-11724964D01*
X11861334Y-10262425D02*
X11861334Y-10205856D01*
X11804765Y-10205856D01*
X11804765Y-10262425D01*
X11861334Y-10262425D01*
X11961204Y-11404964D02*
X11961204Y-11348395D01*
X11904635Y-11348395D01*
X11904635Y-11404964D01*
X11961204Y-11404964D01*
X11961204Y-11724964D02*
X11961204Y-11668395D01*
X11904635Y-11668395D01*
X11904635Y-11724964D01*
X11961204Y-11724964D01*
X12161334Y-10262425D02*
X12161334Y-10205856D01*
X12104765Y-10205856D01*
X12104765Y-10262425D01*
X12161334Y-10262425D01*
X12211204Y-11404964D02*
X12211204Y-11348395D01*
X12154635Y-11348395D01*
X12154635Y-11404964D01*
X12211204Y-11404964D01*
X12211204Y-11724964D02*
X12211204Y-11668395D01*
X12154635Y-11668395D01*
X12154635Y-11724964D01*
X12211204Y-11724964D01*
X14067900Y-5070580D02*
X14110400Y-5028080D01*
X14067900Y-4985580D01*
X14025400Y-5028080D01*
X14067900Y-5070580D01*
X14110400Y-5055580D02*
X14110400Y-5000580D01*
X14110400Y-5000580D02*
G75*
G03*
X14025400Y-5000580I-42500J0D01*
G01*
X14025400Y-5000580D02*
X14025400Y-5055580D01*
X14025400Y-5055580D02*
G75*
G03*
X14110400Y-5055580I42500J0D01*
G01*
X14812900Y-5070580D02*
X14855400Y-5028080D01*
X14812900Y-4985580D01*
X14770400Y-5028080D01*
X14812900Y-5070580D01*
X14855400Y-5055580D02*
X14855400Y-5000580D01*
X14855400Y-5000580D02*
G75*
G03*
X14770400Y-5000580I-42500J0D01*
G01*
X14770400Y-5000580D02*
X14770400Y-5055580D01*
X14770400Y-5055580D02*
G75*
G03*
X14855400Y-5055580I42500J0D01*
G01*
X10528540Y-12157240D02*
X10628540Y-12257240D01*
X10628540Y-12157240D02*
X10528540Y-12257240D01*
X10628540Y-12207240D02*
G75*
G03*
X10528540Y-12207240I-50000J0D01*
G01*
X10528540Y-12207240D02*
G75*
G03*
X10628540Y-12207240I50000J0D01*
G01*
X10528540Y-12107240D02*
X10528540Y-12307240D01*
X10528540Y-12307240D02*
G75*
G03*
X10628540Y-12307240I50000J0D01*
G01*
X10628540Y-12307240D02*
X10628540Y-12107240D01*
X10628540Y-12107240D02*
G75*
G03*
X10528540Y-12107240I-50000J0D01*
G01*
X10828540Y-12627240D02*
X10928540Y-12727240D01*
X10928540Y-12627240D02*
X10828540Y-12727240D01*
X10928540Y-12677240D02*
G75*
G03*
X10828540Y-12677240I-50000J0D01*
G01*
X10828540Y-12677240D02*
G75*
G03*
X10928540Y-12677240I50000J0D01*
G01*
X10778540Y-12727240D02*
X10978540Y-12727240D01*
X10978540Y-12727240D02*
G75*
G03*
X10978540Y-12627240I0J50000D01*
G01*
X10978540Y-12627240D02*
X10778540Y-12627240D01*
X10778540Y-12627240D02*
G75*
G03*
X10778540Y-12727240I0J-50000D01*
G01*
X11128540Y-12157240D02*
X11228540Y-12257240D01*
X11228540Y-12157240D02*
X11128540Y-12257240D01*
X11228540Y-12207240D02*
G75*
G03*
X11128540Y-12207240I-50000J0D01*
G01*
X11128540Y-12207240D02*
G75*
G03*
X11228540Y-12207240I50000J0D01*
G01*
X11128540Y-12082240D02*
X11128540Y-12332240D01*
X11128540Y-12332240D02*
G75*
G03*
X11228540Y-12332240I50000J0D01*
G01*
X11228540Y-12332240D02*
X11228540Y-12082240D01*
X11228540Y-12082240D02*
G75*
G03*
X11128540Y-12082240I-50000J0D01*
G01*
X12429020Y-6929920D02*
X12529020Y-7029920D01*
X12529020Y-6929920D02*
X12429020Y-7029920D01*
X12529020Y-6979920D02*
G75*
G03*
X12429020Y-6979920I-50000J0D01*
G01*
X12429020Y-6979920D02*
G75*
G03*
X12529020Y-6979920I50000J0D01*
G01*
X12429020Y-7183920D02*
X12529020Y-7283920D01*
X12529020Y-7183920D02*
X12429020Y-7283920D01*
X12529020Y-7233920D02*
G75*
G03*
X12429020Y-7233920I-50000J0D01*
G01*
X12429020Y-7233920D02*
G75*
G03*
X12529020Y-7233920I50000J0D01*
G01*
X12429020Y-7437920D02*
X12529020Y-7537920D01*
X12529020Y-7437920D02*
X12429020Y-7537920D01*
X12529020Y-7487920D02*
G75*
G03*
X12429020Y-7487920I-50000J0D01*
G01*
X12429020Y-7487920D02*
G75*
G03*
X12529020Y-7487920I50000J0D01*
G01*
X13807240Y-7173760D02*
X13907240Y-7273760D01*
X13907240Y-7173760D02*
X13807240Y-7273760D01*
X13907240Y-7223760D02*
G75*
G03*
X13807240Y-7223760I-50000J0D01*
G01*
X13807240Y-7223760D02*
G75*
G03*
X13907240Y-7223760I50000J0D01*
G01*
X14061240Y-7173760D02*
X14161240Y-7273760D01*
X14161240Y-7173760D02*
X14061240Y-7273760D01*
X14161240Y-7223760D02*
G75*
G03*
X14061240Y-7223760I-50000J0D01*
G01*
X14061240Y-7223760D02*
G75*
G03*
X14161240Y-7223760I50000J0D01*
G01*
X14315240Y-7173760D02*
X14415240Y-7273760D01*
X14415240Y-7173760D02*
X14315240Y-7273760D01*
X14415240Y-7223760D02*
G75*
G03*
X14315240Y-7223760I-50000J0D01*
G01*
X14315240Y-7223760D02*
G75*
G03*
X14415240Y-7223760I50000J0D01*
G01*
X14569240Y-7173760D02*
X14669240Y-7273760D01*
X14669240Y-7173760D02*
X14569240Y-7273760D01*
X14669240Y-7223760D02*
G75*
G03*
X14569240Y-7223760I-50000J0D01*
G01*
X14569240Y-7223760D02*
G75*
G03*
X14669240Y-7223760I50000J0D01*
G01*
D12*
X15022496Y-13531494D02*
X15132496Y-13641494D01*
X15132496Y-13531494D02*
X15022496Y-13641494D01*
X15077496Y-13531494D02*
X15077496Y-13641494D01*
X15022496Y-13586494D02*
X15132496Y-13586494D01*
X15403496Y-13531494D02*
X15513496Y-13641494D01*
X15513496Y-13531494D02*
X15403496Y-13641494D01*
X15458496Y-13531494D02*
X15458496Y-13641494D01*
X15403496Y-13586494D02*
X15513496Y-13586494D01*
X16264500Y-12879680D02*
X16374500Y-12989680D01*
X16374500Y-12879680D02*
X16264500Y-12989680D01*
X16319500Y-12879680D02*
X16319500Y-12989680D01*
X16264500Y-12934680D02*
X16374500Y-12934680D01*
X16324008Y-13531494D02*
X16434008Y-13641494D01*
X16434008Y-13531494D02*
X16324008Y-13641494D01*
X16379008Y-13531494D02*
X16379008Y-13641494D01*
X16324008Y-13586494D02*
X16434008Y-13586494D01*
X16705008Y-13531494D02*
X16815008Y-13641494D01*
X16815008Y-13531494D02*
X16705008Y-13641494D01*
X16760008Y-13531494D02*
X16760008Y-13641494D01*
X16705008Y-13586494D02*
X16815008Y-13586494D01*
X16764500Y-12879680D02*
X16874500Y-12989680D01*
X16874500Y-12879680D02*
X16764500Y-12989680D01*
X16819500Y-12879680D02*
X16819500Y-12989680D01*
X16764500Y-12934680D02*
X16874500Y-12934680D01*
D13*
X14718180Y-11887180D02*
X14848180Y-12017180D01*
X14848180Y-11887180D02*
X14718180Y-12017180D01*
X14829142Y-11998142D02*
X14829142Y-11906218D01*
X14737218Y-11906218D01*
X14737218Y-11998142D01*
X14829142Y-11998142D01*
X14718180Y-12907180D02*
X14848180Y-13037180D01*
X14848180Y-12907180D02*
X14718180Y-13037180D01*
X14829142Y-13018142D02*
X14829142Y-12926218D01*
X14737218Y-12926218D01*
X14737218Y-13018142D01*
X14829142Y-13018142D01*
X15218180Y-11637180D02*
X15348180Y-11767180D01*
X15348180Y-11637180D02*
X15218180Y-11767180D01*
X15329142Y-11748142D02*
X15329142Y-11656218D01*
X15237218Y-11656218D01*
X15237218Y-11748142D01*
X15329142Y-11748142D01*
X15718180Y-11887180D02*
X15848180Y-12017180D01*
X15848180Y-11887180D02*
X15718180Y-12017180D01*
X15829142Y-11998142D02*
X15829142Y-11906218D01*
X15737218Y-11906218D01*
X15737218Y-11998142D01*
X15829142Y-11998142D01*
X15718180Y-12907180D02*
X15848180Y-13037180D01*
X15848180Y-12907180D02*
X15718180Y-13037180D01*
X15829142Y-13018142D02*
X15829142Y-12926218D01*
X15737218Y-12926218D01*
X15737218Y-13018142D01*
X15829142Y-13018142D01*
D14*
X10170180Y-13139440D02*
X10490180Y-13459440D01*
X10490180Y-13139440D02*
X10170180Y-13459440D01*
X10330180Y-13459440D02*
X10490180Y-13299440D01*
X10330180Y-13139440D01*
X10170180Y-13299440D01*
X10330180Y-13459440D01*
X16507480Y-10495960D02*
X16827480Y-10815960D01*
X16827480Y-10495960D02*
X16507480Y-10815960D01*
X16667480Y-10815960D02*
X16827480Y-10655960D01*
X16667480Y-10495960D01*
X16507480Y-10655960D01*
X16667480Y-10815960D01*
X16525260Y-4696000D02*
X16845260Y-5016000D01*
X16845260Y-4696000D02*
X16525260Y-5016000D01*
X16685260Y-5016000D02*
X16845260Y-4856000D01*
X16685260Y-4696000D01*
X16525260Y-4856000D01*
X16685260Y-5016000D01*
D11*
X10022077Y-14055344D02*
X10022077Y-13855344D01*
X10022077Y-13855344D02*
X10069696Y-13855344D01*
X10069696Y-13855344D02*
X10098267Y-13864868D01*
X10098267Y-13864868D02*
X10117315Y-13883915D01*
X10117315Y-13883915D02*
X10126839Y-13902963D01*
X10126839Y-13902963D02*
X10136363Y-13941058D01*
X10136363Y-13941058D02*
X10136363Y-13969629D01*
X10136363Y-13969629D02*
X10126839Y-14007725D01*
X10126839Y-14007725D02*
X10117315Y-14026772D01*
X10117315Y-14026772D02*
X10098267Y-14045820D01*
X10098267Y-14045820D02*
X10069696Y-14055344D01*
X10069696Y-14055344D02*
X10022077Y-14055344D01*
X10222077Y-14055344D02*
X10222077Y-13922010D01*
X10222077Y-13960106D02*
X10231601Y-13941058D01*
X10231601Y-13941058D02*
X10241124Y-13931534D01*
X10241124Y-13931534D02*
X10260172Y-13922010D01*
X10260172Y-13922010D02*
X10279220Y-13922010D01*
X10345886Y-14055344D02*
X10345886Y-13922010D01*
X10345886Y-13855344D02*
X10336363Y-13864868D01*
X10336363Y-13864868D02*
X10345886Y-13874391D01*
X10345886Y-13874391D02*
X10355410Y-13864868D01*
X10355410Y-13864868D02*
X10345886Y-13855344D01*
X10345886Y-13855344D02*
X10345886Y-13874391D01*
X10469696Y-14055344D02*
X10450648Y-14045820D01*
X10450648Y-14045820D02*
X10441124Y-14026772D01*
X10441124Y-14026772D02*
X10441124Y-13855344D01*
X10574458Y-14055344D02*
X10555410Y-14045820D01*
X10555410Y-14045820D02*
X10545886Y-14026772D01*
X10545886Y-14026772D02*
X10545886Y-13855344D01*
X10803029Y-14055344D02*
X10803029Y-13855344D01*
X10803029Y-13855344D02*
X10869696Y-13998201D01*
X10869696Y-13998201D02*
X10936363Y-13855344D01*
X10936363Y-13855344D02*
X10936363Y-14055344D01*
X11117315Y-14055344D02*
X11117315Y-13950582D01*
X11117315Y-13950582D02*
X11107791Y-13931534D01*
X11107791Y-13931534D02*
X11088744Y-13922010D01*
X11088744Y-13922010D02*
X11050648Y-13922010D01*
X11050648Y-13922010D02*
X11031601Y-13931534D01*
X11117315Y-14045820D02*
X11098267Y-14055344D01*
X11098267Y-14055344D02*
X11050648Y-14055344D01*
X11050648Y-14055344D02*
X11031601Y-14045820D01*
X11031601Y-14045820D02*
X11022077Y-14026772D01*
X11022077Y-14026772D02*
X11022077Y-14007725D01*
X11022077Y-14007725D02*
X11031601Y-13988677D01*
X11031601Y-13988677D02*
X11050648Y-13979153D01*
X11050648Y-13979153D02*
X11098267Y-13979153D01*
X11098267Y-13979153D02*
X11117315Y-13969629D01*
X11212553Y-13922010D02*
X11212553Y-14122010D01*
X11212553Y-13931534D02*
X11231601Y-13922010D01*
X11231601Y-13922010D02*
X11269696Y-13922010D01*
X11269696Y-13922010D02*
X11288743Y-13931534D01*
X11288743Y-13931534D02*
X11298267Y-13941058D01*
X11298267Y-13941058D02*
X11307791Y-13960106D01*
X11307791Y-13960106D02*
X11307791Y-14017248D01*
X11307791Y-14017248D02*
X11298267Y-14036296D01*
X11298267Y-14036296D02*
X11288743Y-14045820D01*
X11288743Y-14045820D02*
X11269696Y-14055344D01*
X11269696Y-14055344D02*
X11231601Y-14055344D01*
X11231601Y-14055344D02*
X11212553Y-14045820D01*
X11393505Y-14036296D02*
X11403029Y-14045820D01*
X11403029Y-14045820D02*
X11393505Y-14055344D01*
X11393505Y-14055344D02*
X11383982Y-14045820D01*
X11383982Y-14045820D02*
X11393505Y-14036296D01*
X11393505Y-14036296D02*
X11393505Y-14055344D01*
X11393505Y-13931534D02*
X11403029Y-13941058D01*
X11403029Y-13941058D02*
X11393505Y-13950582D01*
X11393505Y-13950582D02*
X11383982Y-13941058D01*
X11383982Y-13941058D02*
X11393505Y-13931534D01*
X11393505Y-13931534D02*
X11393505Y-13950582D01*
D10*
X9741300Y-14373860D02*
X9761300Y-14393860D01*
X9761300Y-14373860D02*
X9741300Y-14393860D01*
D11*
X10060172Y-14275344D02*
X10079220Y-14275344D01*
X10079220Y-14275344D02*
X10098267Y-14284868D01*
X10098267Y-14284868D02*
X10107791Y-14294391D01*
X10107791Y-14294391D02*
X10117315Y-14313439D01*
X10117315Y-14313439D02*
X10126839Y-14351534D01*
X10126839Y-14351534D02*
X10126839Y-14399153D01*
X10126839Y-14399153D02*
X10117315Y-14437248D01*
X10117315Y-14437248D02*
X10107791Y-14456296D01*
X10107791Y-14456296D02*
X10098267Y-14465820D01*
X10098267Y-14465820D02*
X10079220Y-14475344D01*
X10079220Y-14475344D02*
X10060172Y-14475344D01*
X10060172Y-14475344D02*
X10041124Y-14465820D01*
X10041124Y-14465820D02*
X10031601Y-14456296D01*
X10031601Y-14456296D02*
X10022077Y-14437248D01*
X10022077Y-14437248D02*
X10012553Y-14399153D01*
X10012553Y-14399153D02*
X10012553Y-14351534D01*
X10012553Y-14351534D02*
X10022077Y-14313439D01*
X10022077Y-14313439D02*
X10031601Y-14294391D01*
X10031601Y-14294391D02*
X10041124Y-14284868D01*
X10041124Y-14284868D02*
X10060172Y-14275344D01*
X10212553Y-14456296D02*
X10222077Y-14465820D01*
X10222077Y-14465820D02*
X10212553Y-14475344D01*
X10212553Y-14475344D02*
X10203029Y-14465820D01*
X10203029Y-14465820D02*
X10212553Y-14456296D01*
X10212553Y-14456296D02*
X10212553Y-14475344D01*
X10298267Y-14294391D02*
X10307791Y-14284868D01*
X10307791Y-14284868D02*
X10326839Y-14275344D01*
X10326839Y-14275344D02*
X10374458Y-14275344D01*
X10374458Y-14275344D02*
X10393505Y-14284868D01*
X10393505Y-14284868D02*
X10403029Y-14294391D01*
X10403029Y-14294391D02*
X10412553Y-14313439D01*
X10412553Y-14313439D02*
X10412553Y-14332487D01*
X10412553Y-14332487D02*
X10403029Y-14361058D01*
X10403029Y-14361058D02*
X10288744Y-14475344D01*
X10288744Y-14475344D02*
X10412553Y-14475344D01*
X10536363Y-14275344D02*
X10555410Y-14275344D01*
X10555410Y-14275344D02*
X10574458Y-14284868D01*
X10574458Y-14284868D02*
X10583982Y-14294391D01*
X10583982Y-14294391D02*
X10593505Y-14313439D01*
X10593505Y-14313439D02*
X10603029Y-14351534D01*
X10603029Y-14351534D02*
X10603029Y-14399153D01*
X10603029Y-14399153D02*
X10593505Y-14437248D01*
X10593505Y-14437248D02*
X10583982Y-14456296D01*
X10583982Y-14456296D02*
X10574458Y-14465820D01*
X10574458Y-14465820D02*
X10555410Y-14475344D01*
X10555410Y-14475344D02*
X10536363Y-14475344D01*
X10536363Y-14475344D02*
X10517315Y-14465820D01*
X10517315Y-14465820D02*
X10507791Y-14456296D01*
X10507791Y-14456296D02*
X10498267Y-14437248D01*
X10498267Y-14437248D02*
X10488744Y-14399153D01*
X10488744Y-14399153D02*
X10488744Y-14351534D01*
X10488744Y-14351534D02*
X10498267Y-14313439D01*
X10498267Y-14313439D02*
X10507791Y-14294391D01*
X10507791Y-14294391D02*
X10517315Y-14284868D01*
X10517315Y-14284868D02*
X10536363Y-14275344D01*
X10726839Y-14275344D02*
X10745886Y-14275344D01*
X10745886Y-14275344D02*
X10764934Y-14284868D01*
X10764934Y-14284868D02*
X10774458Y-14294391D01*
X10774458Y-14294391D02*
X10783982Y-14313439D01*
X10783982Y-14313439D02*
X10793505Y-14351534D01*
X10793505Y-14351534D02*
X10793505Y-14399153D01*
X10793505Y-14399153D02*
X10783982Y-14437248D01*
X10783982Y-14437248D02*
X10774458Y-14456296D01*
X10774458Y-14456296D02*
X10764934Y-14465820D01*
X10764934Y-14465820D02*
X10745886Y-14475344D01*
X10745886Y-14475344D02*
X10726839Y-14475344D01*
X10726839Y-14475344D02*
X10707791Y-14465820D01*
X10707791Y-14465820D02*
X10698267Y-14456296D01*
X10698267Y-14456296D02*
X10688744Y-14437248D01*
X10688744Y-14437248D02*
X10679220Y-14399153D01*
X10679220Y-14399153D02*
X10679220Y-14351534D01*
X10679220Y-14351534D02*
X10688744Y-14313439D01*
X10688744Y-14313439D02*
X10698267Y-14294391D01*
X10698267Y-14294391D02*
X10707791Y-14284868D01*
X10707791Y-14284868D02*
X10726839Y-14275344D01*
X10879220Y-14475344D02*
X10879220Y-14342010D01*
X10879220Y-14361058D02*
X10888744Y-14351534D01*
X10888744Y-14351534D02*
X10907791Y-14342010D01*
X10907791Y-14342010D02*
X10936363Y-14342010D01*
X10936363Y-14342010D02*
X10955410Y-14351534D01*
X10955410Y-14351534D02*
X10964934Y-14370582D01*
X10964934Y-14370582D02*
X10964934Y-14475344D01*
X10964934Y-14370582D02*
X10974458Y-14351534D01*
X10974458Y-14351534D02*
X10993505Y-14342010D01*
X10993505Y-14342010D02*
X11022077Y-14342010D01*
X11022077Y-14342010D02*
X11041125Y-14351534D01*
X11041125Y-14351534D02*
X11050648Y-14370582D01*
X11050648Y-14370582D02*
X11050648Y-14475344D01*
X11145886Y-14475344D02*
X11145886Y-14342010D01*
X11145886Y-14361058D02*
X11155410Y-14351534D01*
X11155410Y-14351534D02*
X11174458Y-14342010D01*
X11174458Y-14342010D02*
X11203029Y-14342010D01*
X11203029Y-14342010D02*
X11222077Y-14351534D01*
X11222077Y-14351534D02*
X11231601Y-14370582D01*
X11231601Y-14370582D02*
X11231601Y-14475344D01*
X11231601Y-14370582D02*
X11241124Y-14351534D01*
X11241124Y-14351534D02*
X11260172Y-14342010D01*
X11260172Y-14342010D02*
X11288743Y-14342010D01*
X11288743Y-14342010D02*
X11307791Y-14351534D01*
X11307791Y-14351534D02*
X11317315Y-14370582D01*
X11317315Y-14370582D02*
X11317315Y-14475344D01*
X11707791Y-14265820D02*
X11536363Y-14522963D01*
X11964934Y-14275344D02*
X11983982Y-14275344D01*
X11983982Y-14275344D02*
X12003029Y-14284868D01*
X12003029Y-14284868D02*
X12012553Y-14294391D01*
X12012553Y-14294391D02*
X12022077Y-14313439D01*
X12022077Y-14313439D02*
X12031601Y-14351534D01*
X12031601Y-14351534D02*
X12031601Y-14399153D01*
X12031601Y-14399153D02*
X12022077Y-14437248D01*
X12022077Y-14437248D02*
X12012553Y-14456296D01*
X12012553Y-14456296D02*
X12003029Y-14465820D01*
X12003029Y-14465820D02*
X11983982Y-14475344D01*
X11983982Y-14475344D02*
X11964934Y-14475344D01*
X11964934Y-14475344D02*
X11945886Y-14465820D01*
X11945886Y-14465820D02*
X11936363Y-14456296D01*
X11936363Y-14456296D02*
X11926839Y-14437248D01*
X11926839Y-14437248D02*
X11917315Y-14399153D01*
X11917315Y-14399153D02*
X11917315Y-14351534D01*
X11917315Y-14351534D02*
X11926839Y-14313439D01*
X11926839Y-14313439D02*
X11936363Y-14294391D01*
X11936363Y-14294391D02*
X11945886Y-14284868D01*
X11945886Y-14284868D02*
X11964934Y-14275344D01*
X12117315Y-14456296D02*
X12126839Y-14465820D01*
X12126839Y-14465820D02*
X12117315Y-14475344D01*
X12117315Y-14475344D02*
X12107791Y-14465820D01*
X12107791Y-14465820D02*
X12117315Y-14456296D01*
X12117315Y-14456296D02*
X12117315Y-14475344D01*
X12250648Y-14275344D02*
X12269696Y-14275344D01*
X12269696Y-14275344D02*
X12288744Y-14284868D01*
X12288744Y-14284868D02*
X12298267Y-14294391D01*
X12298267Y-14294391D02*
X12307791Y-14313439D01*
X12307791Y-14313439D02*
X12317315Y-14351534D01*
X12317315Y-14351534D02*
X12317315Y-14399153D01*
X12317315Y-14399153D02*
X12307791Y-14437248D01*
X12307791Y-14437248D02*
X12298267Y-14456296D01*
X12298267Y-14456296D02*
X12288744Y-14465820D01*
X12288744Y-14465820D02*
X12269696Y-14475344D01*
X12269696Y-14475344D02*
X12250648Y-14475344D01*
X12250648Y-14475344D02*
X12231601Y-14465820D01*
X12231601Y-14465820D02*
X12222077Y-14456296D01*
X12222077Y-14456296D02*
X12212553Y-14437248D01*
X12212553Y-14437248D02*
X12203029Y-14399153D01*
X12203029Y-14399153D02*
X12203029Y-14351534D01*
X12203029Y-14351534D02*
X12212553Y-14313439D01*
X12212553Y-14313439D02*
X12222077Y-14294391D01*
X12222077Y-14294391D02*
X12231601Y-14284868D01*
X12231601Y-14284868D02*
X12250648Y-14275344D01*
X12441125Y-14275344D02*
X12460172Y-14275344D01*
X12460172Y-14275344D02*
X12479220Y-14284868D01*
X12479220Y-14284868D02*
X12488744Y-14294391D01*
X12488744Y-14294391D02*
X12498267Y-14313439D01*
X12498267Y-14313439D02*
X12507791Y-14351534D01*
X12507791Y-14351534D02*
X12507791Y-14399153D01*
X12507791Y-14399153D02*
X12498267Y-14437248D01*
X12498267Y-14437248D02*
X12488744Y-14456296D01*
X12488744Y-14456296D02*
X12479220Y-14465820D01*
X12479220Y-14465820D02*
X12460172Y-14475344D01*
X12460172Y-14475344D02*
X12441125Y-14475344D01*
X12441125Y-14475344D02*
X12422077Y-14465820D01*
X12422077Y-14465820D02*
X12412553Y-14456296D01*
X12412553Y-14456296D02*
X12403029Y-14437248D01*
X12403029Y-14437248D02*
X12393506Y-14399153D01*
X12393506Y-14399153D02*
X12393506Y-14351534D01*
X12393506Y-14351534D02*
X12403029Y-14313439D01*
X12403029Y-14313439D02*
X12412553Y-14294391D01*
X12412553Y-14294391D02*
X12422077Y-14284868D01*
X12422077Y-14284868D02*
X12441125Y-14275344D01*
X12574458Y-14275344D02*
X12707791Y-14275344D01*
X12707791Y-14275344D02*
X12622077Y-14475344D01*
X12793506Y-14475344D02*
X12831601Y-14475344D01*
X12831601Y-14475344D02*
X12850648Y-14465820D01*
X12850648Y-14465820D02*
X12860172Y-14456296D01*
X12860172Y-14456296D02*
X12879220Y-14427725D01*
X12879220Y-14427725D02*
X12888744Y-14389629D01*
X12888744Y-14389629D02*
X12888744Y-14313439D01*
X12888744Y-14313439D02*
X12879220Y-14294391D01*
X12879220Y-14294391D02*
X12869696Y-14284868D01*
X12869696Y-14284868D02*
X12850648Y-14275344D01*
X12850648Y-14275344D02*
X12812553Y-14275344D01*
X12812553Y-14275344D02*
X12793506Y-14284868D01*
X12793506Y-14284868D02*
X12783982Y-14294391D01*
X12783982Y-14294391D02*
X12774458Y-14313439D01*
X12774458Y-14313439D02*
X12774458Y-14361058D01*
X12774458Y-14361058D02*
X12783982Y-14380106D01*
X12783982Y-14380106D02*
X12793506Y-14389629D01*
X12793506Y-14389629D02*
X12812553Y-14399153D01*
X12812553Y-14399153D02*
X12850648Y-14399153D01*
X12850648Y-14399153D02*
X12869696Y-14389629D01*
X12869696Y-14389629D02*
X12879220Y-14380106D01*
X12879220Y-14380106D02*
X12888744Y-14361058D01*
X12964934Y-14275344D02*
X12964934Y-14313439D01*
X13041125Y-14275344D02*
X13041125Y-14313439D01*
X13336363Y-14551534D02*
X13326839Y-14542010D01*
X13326839Y-14542010D02*
X13307791Y-14513439D01*
X13307791Y-14513439D02*
X13298268Y-14494391D01*
X13298268Y-14494391D02*
X13288744Y-14465820D01*
X13288744Y-14465820D02*
X13279220Y-14418201D01*
X13279220Y-14418201D02*
X13279220Y-14380106D01*
X13279220Y-14380106D02*
X13288744Y-14332487D01*
X13288744Y-14332487D02*
X13298268Y-14303915D01*
X13298268Y-14303915D02*
X13307791Y-14284868D01*
X13307791Y-14284868D02*
X13326839Y-14256296D01*
X13326839Y-14256296D02*
X13336363Y-14246772D01*
X13517315Y-14475344D02*
X13403029Y-14475344D01*
X13460172Y-14475344D02*
X13460172Y-14275344D01*
X13460172Y-14275344D02*
X13441125Y-14303915D01*
X13441125Y-14303915D02*
X13422077Y-14322963D01*
X13422077Y-14322963D02*
X13403029Y-14332487D01*
X13593506Y-14294391D02*
X13603029Y-14284868D01*
X13603029Y-14284868D02*
X13622077Y-14275344D01*
X13622077Y-14275344D02*
X13669696Y-14275344D01*
X13669696Y-14275344D02*
X13688744Y-14284868D01*
X13688744Y-14284868D02*
X13698268Y-14294391D01*
X13698268Y-14294391D02*
X13707791Y-14313439D01*
X13707791Y-14313439D02*
X13707791Y-14332487D01*
X13707791Y-14332487D02*
X13698268Y-14361058D01*
X13698268Y-14361058D02*
X13583982Y-14475344D01*
X13583982Y-14475344D02*
X13707791Y-14475344D01*
X13945887Y-14475344D02*
X13945887Y-14275344D01*
X14031601Y-14475344D02*
X14031601Y-14370582D01*
X14031601Y-14370582D02*
X14022077Y-14351534D01*
X14022077Y-14351534D02*
X14003030Y-14342010D01*
X14003030Y-14342010D02*
X13974458Y-14342010D01*
X13974458Y-14342010D02*
X13955410Y-14351534D01*
X13955410Y-14351534D02*
X13945887Y-14361058D01*
X14155410Y-14475344D02*
X14136363Y-14465820D01*
X14136363Y-14465820D02*
X14126839Y-14456296D01*
X14126839Y-14456296D02*
X14117315Y-14437248D01*
X14117315Y-14437248D02*
X14117315Y-14380106D01*
X14117315Y-14380106D02*
X14126839Y-14361058D01*
X14126839Y-14361058D02*
X14136363Y-14351534D01*
X14136363Y-14351534D02*
X14155410Y-14342010D01*
X14155410Y-14342010D02*
X14183982Y-14342010D01*
X14183982Y-14342010D02*
X14203030Y-14351534D01*
X14203030Y-14351534D02*
X14212553Y-14361058D01*
X14212553Y-14361058D02*
X14222077Y-14380106D01*
X14222077Y-14380106D02*
X14222077Y-14437248D01*
X14222077Y-14437248D02*
X14212553Y-14456296D01*
X14212553Y-14456296D02*
X14203030Y-14465820D01*
X14203030Y-14465820D02*
X14183982Y-14475344D01*
X14183982Y-14475344D02*
X14155410Y-14475344D01*
X14336363Y-14475344D02*
X14317315Y-14465820D01*
X14317315Y-14465820D02*
X14307791Y-14446772D01*
X14307791Y-14446772D02*
X14307791Y-14275344D01*
X14488744Y-14465820D02*
X14469696Y-14475344D01*
X14469696Y-14475344D02*
X14431601Y-14475344D01*
X14431601Y-14475344D02*
X14412553Y-14465820D01*
X14412553Y-14465820D02*
X14403030Y-14446772D01*
X14403030Y-14446772D02*
X14403030Y-14370582D01*
X14403030Y-14370582D02*
X14412553Y-14351534D01*
X14412553Y-14351534D02*
X14431601Y-14342010D01*
X14431601Y-14342010D02*
X14469696Y-14342010D01*
X14469696Y-14342010D02*
X14488744Y-14351534D01*
X14488744Y-14351534D02*
X14498268Y-14370582D01*
X14498268Y-14370582D02*
X14498268Y-14389629D01*
X14498268Y-14389629D02*
X14403030Y-14408677D01*
X14574458Y-14465820D02*
X14593506Y-14475344D01*
X14593506Y-14475344D02*
X14631601Y-14475344D01*
X14631601Y-14475344D02*
X14650649Y-14465820D01*
X14650649Y-14465820D02*
X14660172Y-14446772D01*
X14660172Y-14446772D02*
X14660172Y-14437248D01*
X14660172Y-14437248D02*
X14650649Y-14418201D01*
X14650649Y-14418201D02*
X14631601Y-14408677D01*
X14631601Y-14408677D02*
X14603030Y-14408677D01*
X14603030Y-14408677D02*
X14583982Y-14399153D01*
X14583982Y-14399153D02*
X14574458Y-14380106D01*
X14574458Y-14380106D02*
X14574458Y-14370582D01*
X14574458Y-14370582D02*
X14583982Y-14351534D01*
X14583982Y-14351534D02*
X14603030Y-14342010D01*
X14603030Y-14342010D02*
X14631601Y-14342010D01*
X14631601Y-14342010D02*
X14650649Y-14351534D01*
X14726839Y-14551534D02*
X14736363Y-14542010D01*
X14736363Y-14542010D02*
X14755411Y-14513439D01*
X14755411Y-14513439D02*
X14764934Y-14494391D01*
X14764934Y-14494391D02*
X14774458Y-14465820D01*
X14774458Y-14465820D02*
X14783982Y-14418201D01*
X14783982Y-14418201D02*
X14783982Y-14380106D01*
X14783982Y-14380106D02*
X14774458Y-14332487D01*
X14774458Y-14332487D02*
X14764934Y-14303915D01*
X14764934Y-14303915D02*
X14755411Y-14284868D01*
X14755411Y-14284868D02*
X14736363Y-14256296D01*
X14736363Y-14256296D02*
X14726839Y-14246772D01*
D10*
X9761300Y-14647860D02*
G75*
G03*
X9721300Y-14647860I-20000J0D01*
G01*
X9721300Y-14647860D02*
G75*
G03*
X9761300Y-14647860I20000J0D01*
G01*
D11*
X10060172Y-14539344D02*
X10079220Y-14539344D01*
X10079220Y-14539344D02*
X10098267Y-14548868D01*
X10098267Y-14548868D02*
X10107791Y-14558391D01*
X10107791Y-14558391D02*
X10117315Y-14577439D01*
X10117315Y-14577439D02*
X10126839Y-14615534D01*
X10126839Y-14615534D02*
X10126839Y-14663153D01*
X10126839Y-14663153D02*
X10117315Y-14701248D01*
X10117315Y-14701248D02*
X10107791Y-14720296D01*
X10107791Y-14720296D02*
X10098267Y-14729820D01*
X10098267Y-14729820D02*
X10079220Y-14739344D01*
X10079220Y-14739344D02*
X10060172Y-14739344D01*
X10060172Y-14739344D02*
X10041124Y-14729820D01*
X10041124Y-14729820D02*
X10031601Y-14720296D01*
X10031601Y-14720296D02*
X10022077Y-14701248D01*
X10022077Y-14701248D02*
X10012553Y-14663153D01*
X10012553Y-14663153D02*
X10012553Y-14615534D01*
X10012553Y-14615534D02*
X10022077Y-14577439D01*
X10022077Y-14577439D02*
X10031601Y-14558391D01*
X10031601Y-14558391D02*
X10041124Y-14548868D01*
X10041124Y-14548868D02*
X10060172Y-14539344D01*
X10212553Y-14720296D02*
X10222077Y-14729820D01*
X10222077Y-14729820D02*
X10212553Y-14739344D01*
X10212553Y-14739344D02*
X10203029Y-14729820D01*
X10203029Y-14729820D02*
X10212553Y-14720296D01*
X10212553Y-14720296D02*
X10212553Y-14739344D01*
X10393505Y-14606010D02*
X10393505Y-14739344D01*
X10345886Y-14529820D02*
X10298267Y-14672677D01*
X10298267Y-14672677D02*
X10422077Y-14672677D01*
X10536363Y-14539344D02*
X10555410Y-14539344D01*
X10555410Y-14539344D02*
X10574458Y-14548868D01*
X10574458Y-14548868D02*
X10583982Y-14558391D01*
X10583982Y-14558391D02*
X10593505Y-14577439D01*
X10593505Y-14577439D02*
X10603029Y-14615534D01*
X10603029Y-14615534D02*
X10603029Y-14663153D01*
X10603029Y-14663153D02*
X10593505Y-14701248D01*
X10593505Y-14701248D02*
X10583982Y-14720296D01*
X10583982Y-14720296D02*
X10574458Y-14729820D01*
X10574458Y-14729820D02*
X10555410Y-14739344D01*
X10555410Y-14739344D02*
X10536363Y-14739344D01*
X10536363Y-14739344D02*
X10517315Y-14729820D01*
X10517315Y-14729820D02*
X10507791Y-14720296D01*
X10507791Y-14720296D02*
X10498267Y-14701248D01*
X10498267Y-14701248D02*
X10488744Y-14663153D01*
X10488744Y-14663153D02*
X10488744Y-14615534D01*
X10488744Y-14615534D02*
X10498267Y-14577439D01*
X10498267Y-14577439D02*
X10507791Y-14558391D01*
X10507791Y-14558391D02*
X10517315Y-14548868D01*
X10517315Y-14548868D02*
X10536363Y-14539344D01*
X10726839Y-14539344D02*
X10745886Y-14539344D01*
X10745886Y-14539344D02*
X10764934Y-14548868D01*
X10764934Y-14548868D02*
X10774458Y-14558391D01*
X10774458Y-14558391D02*
X10783982Y-14577439D01*
X10783982Y-14577439D02*
X10793505Y-14615534D01*
X10793505Y-14615534D02*
X10793505Y-14663153D01*
X10793505Y-14663153D02*
X10783982Y-14701248D01*
X10783982Y-14701248D02*
X10774458Y-14720296D01*
X10774458Y-14720296D02*
X10764934Y-14729820D01*
X10764934Y-14729820D02*
X10745886Y-14739344D01*
X10745886Y-14739344D02*
X10726839Y-14739344D01*
X10726839Y-14739344D02*
X10707791Y-14729820D01*
X10707791Y-14729820D02*
X10698267Y-14720296D01*
X10698267Y-14720296D02*
X10688744Y-14701248D01*
X10688744Y-14701248D02*
X10679220Y-14663153D01*
X10679220Y-14663153D02*
X10679220Y-14615534D01*
X10679220Y-14615534D02*
X10688744Y-14577439D01*
X10688744Y-14577439D02*
X10698267Y-14558391D01*
X10698267Y-14558391D02*
X10707791Y-14548868D01*
X10707791Y-14548868D02*
X10726839Y-14539344D01*
X10879220Y-14739344D02*
X10879220Y-14606010D01*
X10879220Y-14625058D02*
X10888744Y-14615534D01*
X10888744Y-14615534D02*
X10907791Y-14606010D01*
X10907791Y-14606010D02*
X10936363Y-14606010D01*
X10936363Y-14606010D02*
X10955410Y-14615534D01*
X10955410Y-14615534D02*
X10964934Y-14634582D01*
X10964934Y-14634582D02*
X10964934Y-14739344D01*
X10964934Y-14634582D02*
X10974458Y-14615534D01*
X10974458Y-14615534D02*
X10993505Y-14606010D01*
X10993505Y-14606010D02*
X11022077Y-14606010D01*
X11022077Y-14606010D02*
X11041125Y-14615534D01*
X11041125Y-14615534D02*
X11050648Y-14634582D01*
X11050648Y-14634582D02*
X11050648Y-14739344D01*
X11145886Y-14739344D02*
X11145886Y-14606010D01*
X11145886Y-14625058D02*
X11155410Y-14615534D01*
X11155410Y-14615534D02*
X11174458Y-14606010D01*
X11174458Y-14606010D02*
X11203029Y-14606010D01*
X11203029Y-14606010D02*
X11222077Y-14615534D01*
X11222077Y-14615534D02*
X11231601Y-14634582D01*
X11231601Y-14634582D02*
X11231601Y-14739344D01*
X11231601Y-14634582D02*
X11241124Y-14615534D01*
X11241124Y-14615534D02*
X11260172Y-14606010D01*
X11260172Y-14606010D02*
X11288743Y-14606010D01*
X11288743Y-14606010D02*
X11307791Y-14615534D01*
X11307791Y-14615534D02*
X11317315Y-14634582D01*
X11317315Y-14634582D02*
X11317315Y-14739344D01*
X11707791Y-14529820D02*
X11536363Y-14786963D01*
X11964934Y-14539344D02*
X11983982Y-14539344D01*
X11983982Y-14539344D02*
X12003029Y-14548868D01*
X12003029Y-14548868D02*
X12012553Y-14558391D01*
X12012553Y-14558391D02*
X12022077Y-14577439D01*
X12022077Y-14577439D02*
X12031601Y-14615534D01*
X12031601Y-14615534D02*
X12031601Y-14663153D01*
X12031601Y-14663153D02*
X12022077Y-14701248D01*
X12022077Y-14701248D02*
X12012553Y-14720296D01*
X12012553Y-14720296D02*
X12003029Y-14729820D01*
X12003029Y-14729820D02*
X11983982Y-14739344D01*
X11983982Y-14739344D02*
X11964934Y-14739344D01*
X11964934Y-14739344D02*
X11945886Y-14729820D01*
X11945886Y-14729820D02*
X11936363Y-14720296D01*
X11936363Y-14720296D02*
X11926839Y-14701248D01*
X11926839Y-14701248D02*
X11917315Y-14663153D01*
X11917315Y-14663153D02*
X11917315Y-14615534D01*
X11917315Y-14615534D02*
X11926839Y-14577439D01*
X11926839Y-14577439D02*
X11936363Y-14558391D01*
X11936363Y-14558391D02*
X11945886Y-14548868D01*
X11945886Y-14548868D02*
X11964934Y-14539344D01*
X12117315Y-14720296D02*
X12126839Y-14729820D01*
X12126839Y-14729820D02*
X12117315Y-14739344D01*
X12117315Y-14739344D02*
X12107791Y-14729820D01*
X12107791Y-14729820D02*
X12117315Y-14720296D01*
X12117315Y-14720296D02*
X12117315Y-14739344D01*
X12250648Y-14539344D02*
X12269696Y-14539344D01*
X12269696Y-14539344D02*
X12288744Y-14548868D01*
X12288744Y-14548868D02*
X12298267Y-14558391D01*
X12298267Y-14558391D02*
X12307791Y-14577439D01*
X12307791Y-14577439D02*
X12317315Y-14615534D01*
X12317315Y-14615534D02*
X12317315Y-14663153D01*
X12317315Y-14663153D02*
X12307791Y-14701248D01*
X12307791Y-14701248D02*
X12298267Y-14720296D01*
X12298267Y-14720296D02*
X12288744Y-14729820D01*
X12288744Y-14729820D02*
X12269696Y-14739344D01*
X12269696Y-14739344D02*
X12250648Y-14739344D01*
X12250648Y-14739344D02*
X12231601Y-14729820D01*
X12231601Y-14729820D02*
X12222077Y-14720296D01*
X12222077Y-14720296D02*
X12212553Y-14701248D01*
X12212553Y-14701248D02*
X12203029Y-14663153D01*
X12203029Y-14663153D02*
X12203029Y-14615534D01*
X12203029Y-14615534D02*
X12212553Y-14577439D01*
X12212553Y-14577439D02*
X12222077Y-14558391D01*
X12222077Y-14558391D02*
X12231601Y-14548868D01*
X12231601Y-14548868D02*
X12250648Y-14539344D01*
X12507791Y-14739344D02*
X12393506Y-14739344D01*
X12450648Y-14739344D02*
X12450648Y-14539344D01*
X12450648Y-14539344D02*
X12431601Y-14567915D01*
X12431601Y-14567915D02*
X12412553Y-14586963D01*
X12412553Y-14586963D02*
X12393506Y-14596487D01*
X12688744Y-14539344D02*
X12593506Y-14539344D01*
X12593506Y-14539344D02*
X12583982Y-14634582D01*
X12583982Y-14634582D02*
X12593506Y-14625058D01*
X12593506Y-14625058D02*
X12612553Y-14615534D01*
X12612553Y-14615534D02*
X12660172Y-14615534D01*
X12660172Y-14615534D02*
X12679220Y-14625058D01*
X12679220Y-14625058D02*
X12688744Y-14634582D01*
X12688744Y-14634582D02*
X12698267Y-14653629D01*
X12698267Y-14653629D02*
X12698267Y-14701248D01*
X12698267Y-14701248D02*
X12688744Y-14720296D01*
X12688744Y-14720296D02*
X12679220Y-14729820D01*
X12679220Y-14729820D02*
X12660172Y-14739344D01*
X12660172Y-14739344D02*
X12612553Y-14739344D01*
X12612553Y-14739344D02*
X12593506Y-14729820D01*
X12593506Y-14729820D02*
X12583982Y-14720296D01*
X12764934Y-14539344D02*
X12898267Y-14539344D01*
X12898267Y-14539344D02*
X12812553Y-14739344D01*
X12964934Y-14539344D02*
X12964934Y-14577439D01*
X13041125Y-14539344D02*
X13041125Y-14577439D01*
X13336363Y-14815534D02*
X13326839Y-14806010D01*
X13326839Y-14806010D02*
X13307791Y-14777439D01*
X13307791Y-14777439D02*
X13298268Y-14758391D01*
X13298268Y-14758391D02*
X13288744Y-14729820D01*
X13288744Y-14729820D02*
X13279220Y-14682201D01*
X13279220Y-14682201D02*
X13279220Y-14644106D01*
X13279220Y-14644106D02*
X13288744Y-14596487D01*
X13288744Y-14596487D02*
X13298268Y-14567915D01*
X13298268Y-14567915D02*
X13307791Y-14548868D01*
X13307791Y-14548868D02*
X13326839Y-14520296D01*
X13326839Y-14520296D02*
X13336363Y-14510772D01*
X13517315Y-14739344D02*
X13403029Y-14739344D01*
X13460172Y-14739344D02*
X13460172Y-14539344D01*
X13460172Y-14539344D02*
X13441125Y-14567915D01*
X13441125Y-14567915D02*
X13422077Y-14586963D01*
X13422077Y-14586963D02*
X13403029Y-14596487D01*
X13631601Y-14625058D02*
X13612553Y-14615534D01*
X13612553Y-14615534D02*
X13603029Y-14606010D01*
X13603029Y-14606010D02*
X13593506Y-14586963D01*
X13593506Y-14586963D02*
X13593506Y-14577439D01*
X13593506Y-14577439D02*
X13603029Y-14558391D01*
X13603029Y-14558391D02*
X13612553Y-14548868D01*
X13612553Y-14548868D02*
X13631601Y-14539344D01*
X13631601Y-14539344D02*
X13669696Y-14539344D01*
X13669696Y-14539344D02*
X13688744Y-14548868D01*
X13688744Y-14548868D02*
X13698268Y-14558391D01*
X13698268Y-14558391D02*
X13707791Y-14577439D01*
X13707791Y-14577439D02*
X13707791Y-14586963D01*
X13707791Y-14586963D02*
X13698268Y-14606010D01*
X13698268Y-14606010D02*
X13688744Y-14615534D01*
X13688744Y-14615534D02*
X13669696Y-14625058D01*
X13669696Y-14625058D02*
X13631601Y-14625058D01*
X13631601Y-14625058D02*
X13612553Y-14634582D01*
X13612553Y-14634582D02*
X13603029Y-14644106D01*
X13603029Y-14644106D02*
X13593506Y-14663153D01*
X13593506Y-14663153D02*
X13593506Y-14701248D01*
X13593506Y-14701248D02*
X13603029Y-14720296D01*
X13603029Y-14720296D02*
X13612553Y-14729820D01*
X13612553Y-14729820D02*
X13631601Y-14739344D01*
X13631601Y-14739344D02*
X13669696Y-14739344D01*
X13669696Y-14739344D02*
X13688744Y-14729820D01*
X13688744Y-14729820D02*
X13698268Y-14720296D01*
X13698268Y-14720296D02*
X13707791Y-14701248D01*
X13707791Y-14701248D02*
X13707791Y-14663153D01*
X13707791Y-14663153D02*
X13698268Y-14644106D01*
X13698268Y-14644106D02*
X13688744Y-14634582D01*
X13688744Y-14634582D02*
X13669696Y-14625058D01*
X13888744Y-14539344D02*
X13793506Y-14539344D01*
X13793506Y-14539344D02*
X13783982Y-14634582D01*
X13783982Y-14634582D02*
X13793506Y-14625058D01*
X13793506Y-14625058D02*
X13812553Y-14615534D01*
X13812553Y-14615534D02*
X13860172Y-14615534D01*
X13860172Y-14615534D02*
X13879220Y-14625058D01*
X13879220Y-14625058D02*
X13888744Y-14634582D01*
X13888744Y-14634582D02*
X13898268Y-14653629D01*
X13898268Y-14653629D02*
X13898268Y-14701248D01*
X13898268Y-14701248D02*
X13888744Y-14720296D01*
X13888744Y-14720296D02*
X13879220Y-14729820D01*
X13879220Y-14729820D02*
X13860172Y-14739344D01*
X13860172Y-14739344D02*
X13812553Y-14739344D01*
X13812553Y-14739344D02*
X13793506Y-14729820D01*
X13793506Y-14729820D02*
X13783982Y-14720296D01*
X14136363Y-14739344D02*
X14136363Y-14539344D01*
X14222077Y-14739344D02*
X14222077Y-14634582D01*
X14222077Y-14634582D02*
X14212553Y-14615534D01*
X14212553Y-14615534D02*
X14193506Y-14606010D01*
X14193506Y-14606010D02*
X14164934Y-14606010D01*
X14164934Y-14606010D02*
X14145887Y-14615534D01*
X14145887Y-14615534D02*
X14136363Y-14625058D01*
X14345887Y-14739344D02*
X14326839Y-14729820D01*
X14326839Y-14729820D02*
X14317315Y-14720296D01*
X14317315Y-14720296D02*
X14307791Y-14701248D01*
X14307791Y-14701248D02*
X14307791Y-14644106D01*
X14307791Y-14644106D02*
X14317315Y-14625058D01*
X14317315Y-14625058D02*
X14326839Y-14615534D01*
X14326839Y-14615534D02*
X14345887Y-14606010D01*
X14345887Y-14606010D02*
X14374458Y-14606010D01*
X14374458Y-14606010D02*
X14393506Y-14615534D01*
X14393506Y-14615534D02*
X14403030Y-14625058D01*
X14403030Y-14625058D02*
X14412553Y-14644106D01*
X14412553Y-14644106D02*
X14412553Y-14701248D01*
X14412553Y-14701248D02*
X14403030Y-14720296D01*
X14403030Y-14720296D02*
X14393506Y-14729820D01*
X14393506Y-14729820D02*
X14374458Y-14739344D01*
X14374458Y-14739344D02*
X14345887Y-14739344D01*
X14526839Y-14739344D02*
X14507791Y-14729820D01*
X14507791Y-14729820D02*
X14498268Y-14710772D01*
X14498268Y-14710772D02*
X14498268Y-14539344D01*
X14679220Y-14729820D02*
X14660172Y-14739344D01*
X14660172Y-14739344D02*
X14622077Y-14739344D01*
X14622077Y-14739344D02*
X14603030Y-14729820D01*
X14603030Y-14729820D02*
X14593506Y-14710772D01*
X14593506Y-14710772D02*
X14593506Y-14634582D01*
X14593506Y-14634582D02*
X14603030Y-14615534D01*
X14603030Y-14615534D02*
X14622077Y-14606010D01*
X14622077Y-14606010D02*
X14660172Y-14606010D01*
X14660172Y-14606010D02*
X14679220Y-14615534D01*
X14679220Y-14615534D02*
X14688744Y-14634582D01*
X14688744Y-14634582D02*
X14688744Y-14653629D01*
X14688744Y-14653629D02*
X14593506Y-14672677D01*
X14764934Y-14729820D02*
X14783982Y-14739344D01*
X14783982Y-14739344D02*
X14822077Y-14739344D01*
X14822077Y-14739344D02*
X14841125Y-14729820D01*
X14841125Y-14729820D02*
X14850649Y-14710772D01*
X14850649Y-14710772D02*
X14850649Y-14701248D01*
X14850649Y-14701248D02*
X14841125Y-14682201D01*
X14841125Y-14682201D02*
X14822077Y-14672677D01*
X14822077Y-14672677D02*
X14793506Y-14672677D01*
X14793506Y-14672677D02*
X14774458Y-14663153D01*
X14774458Y-14663153D02*
X14764934Y-14644106D01*
X14764934Y-14644106D02*
X14764934Y-14634582D01*
X14764934Y-14634582D02*
X14774458Y-14615534D01*
X14774458Y-14615534D02*
X14793506Y-14606010D01*
X14793506Y-14606010D02*
X14822077Y-14606010D01*
X14822077Y-14606010D02*
X14841125Y-14615534D01*
X14917315Y-14815534D02*
X14926839Y-14806010D01*
X14926839Y-14806010D02*
X14945887Y-14777439D01*
X14945887Y-14777439D02*
X14955411Y-14758391D01*
X14955411Y-14758391D02*
X14964934Y-14729820D01*
X14964934Y-14729820D02*
X14974458Y-14682201D01*
X14974458Y-14682201D02*
X14974458Y-14644106D01*
X14974458Y-14644106D02*
X14964934Y-14596487D01*
X14964934Y-14596487D02*
X14955411Y-14567915D01*
X14955411Y-14567915D02*
X14945887Y-14548868D01*
X14945887Y-14548868D02*
X14926839Y-14520296D01*
X14926839Y-14520296D02*
X14917315Y-14510772D01*
D10*
X9733800Y-14884360D02*
X9733800Y-14939360D01*
X9706300Y-14911860D02*
X9761300Y-14911860D01*
D11*
X10060172Y-14803344D02*
X10079220Y-14803344D01*
X10079220Y-14803344D02*
X10098267Y-14812868D01*
X10098267Y-14812868D02*
X10107791Y-14822391D01*
X10107791Y-14822391D02*
X10117315Y-14841439D01*
X10117315Y-14841439D02*
X10126839Y-14879534D01*
X10126839Y-14879534D02*
X10126839Y-14927153D01*
X10126839Y-14927153D02*
X10117315Y-14965248D01*
X10117315Y-14965248D02*
X10107791Y-14984296D01*
X10107791Y-14984296D02*
X10098267Y-14993820D01*
X10098267Y-14993820D02*
X10079220Y-15003344D01*
X10079220Y-15003344D02*
X10060172Y-15003344D01*
X10060172Y-15003344D02*
X10041124Y-14993820D01*
X10041124Y-14993820D02*
X10031601Y-14984296D01*
X10031601Y-14984296D02*
X10022077Y-14965248D01*
X10022077Y-14965248D02*
X10012553Y-14927153D01*
X10012553Y-14927153D02*
X10012553Y-14879534D01*
X10012553Y-14879534D02*
X10022077Y-14841439D01*
X10022077Y-14841439D02*
X10031601Y-14822391D01*
X10031601Y-14822391D02*
X10041124Y-14812868D01*
X10041124Y-14812868D02*
X10060172Y-14803344D01*
X10212553Y-14984296D02*
X10222077Y-14993820D01*
X10222077Y-14993820D02*
X10212553Y-15003344D01*
X10212553Y-15003344D02*
X10203029Y-14993820D01*
X10203029Y-14993820D02*
X10212553Y-14984296D01*
X10212553Y-14984296D02*
X10212553Y-15003344D01*
X10403029Y-14803344D02*
X10307791Y-14803344D01*
X10307791Y-14803344D02*
X10298267Y-14898582D01*
X10298267Y-14898582D02*
X10307791Y-14889058D01*
X10307791Y-14889058D02*
X10326839Y-14879534D01*
X10326839Y-14879534D02*
X10374458Y-14879534D01*
X10374458Y-14879534D02*
X10393505Y-14889058D01*
X10393505Y-14889058D02*
X10403029Y-14898582D01*
X10403029Y-14898582D02*
X10412553Y-14917629D01*
X10412553Y-14917629D02*
X10412553Y-14965248D01*
X10412553Y-14965248D02*
X10403029Y-14984296D01*
X10403029Y-14984296D02*
X10393505Y-14993820D01*
X10393505Y-14993820D02*
X10374458Y-15003344D01*
X10374458Y-15003344D02*
X10326839Y-15003344D01*
X10326839Y-15003344D02*
X10307791Y-14993820D01*
X10307791Y-14993820D02*
X10298267Y-14984296D01*
X10593505Y-14803344D02*
X10498267Y-14803344D01*
X10498267Y-14803344D02*
X10488744Y-14898582D01*
X10488744Y-14898582D02*
X10498267Y-14889058D01*
X10498267Y-14889058D02*
X10517315Y-14879534D01*
X10517315Y-14879534D02*
X10564934Y-14879534D01*
X10564934Y-14879534D02*
X10583982Y-14889058D01*
X10583982Y-14889058D02*
X10593505Y-14898582D01*
X10593505Y-14898582D02*
X10603029Y-14917629D01*
X10603029Y-14917629D02*
X10603029Y-14965248D01*
X10603029Y-14965248D02*
X10593505Y-14984296D01*
X10593505Y-14984296D02*
X10583982Y-14993820D01*
X10583982Y-14993820D02*
X10564934Y-15003344D01*
X10564934Y-15003344D02*
X10517315Y-15003344D01*
X10517315Y-15003344D02*
X10498267Y-14993820D01*
X10498267Y-14993820D02*
X10488744Y-14984296D01*
X10726839Y-14803344D02*
X10745886Y-14803344D01*
X10745886Y-14803344D02*
X10764934Y-14812868D01*
X10764934Y-14812868D02*
X10774458Y-14822391D01*
X10774458Y-14822391D02*
X10783982Y-14841439D01*
X10783982Y-14841439D02*
X10793505Y-14879534D01*
X10793505Y-14879534D02*
X10793505Y-14927153D01*
X10793505Y-14927153D02*
X10783982Y-14965248D01*
X10783982Y-14965248D02*
X10774458Y-14984296D01*
X10774458Y-14984296D02*
X10764934Y-14993820D01*
X10764934Y-14993820D02*
X10745886Y-15003344D01*
X10745886Y-15003344D02*
X10726839Y-15003344D01*
X10726839Y-15003344D02*
X10707791Y-14993820D01*
X10707791Y-14993820D02*
X10698267Y-14984296D01*
X10698267Y-14984296D02*
X10688744Y-14965248D01*
X10688744Y-14965248D02*
X10679220Y-14927153D01*
X10679220Y-14927153D02*
X10679220Y-14879534D01*
X10679220Y-14879534D02*
X10688744Y-14841439D01*
X10688744Y-14841439D02*
X10698267Y-14822391D01*
X10698267Y-14822391D02*
X10707791Y-14812868D01*
X10707791Y-14812868D02*
X10726839Y-14803344D01*
X10879220Y-15003344D02*
X10879220Y-14870010D01*
X10879220Y-14889058D02*
X10888744Y-14879534D01*
X10888744Y-14879534D02*
X10907791Y-14870010D01*
X10907791Y-14870010D02*
X10936363Y-14870010D01*
X10936363Y-14870010D02*
X10955410Y-14879534D01*
X10955410Y-14879534D02*
X10964934Y-14898582D01*
X10964934Y-14898582D02*
X10964934Y-15003344D01*
X10964934Y-14898582D02*
X10974458Y-14879534D01*
X10974458Y-14879534D02*
X10993505Y-14870010D01*
X10993505Y-14870010D02*
X11022077Y-14870010D01*
X11022077Y-14870010D02*
X11041125Y-14879534D01*
X11041125Y-14879534D02*
X11050648Y-14898582D01*
X11050648Y-14898582D02*
X11050648Y-15003344D01*
X11145886Y-15003344D02*
X11145886Y-14870010D01*
X11145886Y-14889058D02*
X11155410Y-14879534D01*
X11155410Y-14879534D02*
X11174458Y-14870010D01*
X11174458Y-14870010D02*
X11203029Y-14870010D01*
X11203029Y-14870010D02*
X11222077Y-14879534D01*
X11222077Y-14879534D02*
X11231601Y-14898582D01*
X11231601Y-14898582D02*
X11231601Y-15003344D01*
X11231601Y-14898582D02*
X11241124Y-14879534D01*
X11241124Y-14879534D02*
X11260172Y-14870010D01*
X11260172Y-14870010D02*
X11288743Y-14870010D01*
X11288743Y-14870010D02*
X11307791Y-14879534D01*
X11307791Y-14879534D02*
X11317315Y-14898582D01*
X11317315Y-14898582D02*
X11317315Y-15003344D01*
X11707791Y-14793820D02*
X11536363Y-15050963D01*
X11964934Y-14803344D02*
X11983982Y-14803344D01*
X11983982Y-14803344D02*
X12003029Y-14812868D01*
X12003029Y-14812868D02*
X12012553Y-14822391D01*
X12012553Y-14822391D02*
X12022077Y-14841439D01*
X12022077Y-14841439D02*
X12031601Y-14879534D01*
X12031601Y-14879534D02*
X12031601Y-14927153D01*
X12031601Y-14927153D02*
X12022077Y-14965248D01*
X12022077Y-14965248D02*
X12012553Y-14984296D01*
X12012553Y-14984296D02*
X12003029Y-14993820D01*
X12003029Y-14993820D02*
X11983982Y-15003344D01*
X11983982Y-15003344D02*
X11964934Y-15003344D01*
X11964934Y-15003344D02*
X11945886Y-14993820D01*
X11945886Y-14993820D02*
X11936363Y-14984296D01*
X11936363Y-14984296D02*
X11926839Y-14965248D01*
X11926839Y-14965248D02*
X11917315Y-14927153D01*
X11917315Y-14927153D02*
X11917315Y-14879534D01*
X11917315Y-14879534D02*
X11926839Y-14841439D01*
X11926839Y-14841439D02*
X11936363Y-14822391D01*
X11936363Y-14822391D02*
X11945886Y-14812868D01*
X11945886Y-14812868D02*
X11964934Y-14803344D01*
X12117315Y-14984296D02*
X12126839Y-14993820D01*
X12126839Y-14993820D02*
X12117315Y-15003344D01*
X12117315Y-15003344D02*
X12107791Y-14993820D01*
X12107791Y-14993820D02*
X12117315Y-14984296D01*
X12117315Y-14984296D02*
X12117315Y-15003344D01*
X12250648Y-14803344D02*
X12269696Y-14803344D01*
X12269696Y-14803344D02*
X12288744Y-14812868D01*
X12288744Y-14812868D02*
X12298267Y-14822391D01*
X12298267Y-14822391D02*
X12307791Y-14841439D01*
X12307791Y-14841439D02*
X12317315Y-14879534D01*
X12317315Y-14879534D02*
X12317315Y-14927153D01*
X12317315Y-14927153D02*
X12307791Y-14965248D01*
X12307791Y-14965248D02*
X12298267Y-14984296D01*
X12298267Y-14984296D02*
X12288744Y-14993820D01*
X12288744Y-14993820D02*
X12269696Y-15003344D01*
X12269696Y-15003344D02*
X12250648Y-15003344D01*
X12250648Y-15003344D02*
X12231601Y-14993820D01*
X12231601Y-14993820D02*
X12222077Y-14984296D01*
X12222077Y-14984296D02*
X12212553Y-14965248D01*
X12212553Y-14965248D02*
X12203029Y-14927153D01*
X12203029Y-14927153D02*
X12203029Y-14879534D01*
X12203029Y-14879534D02*
X12212553Y-14841439D01*
X12212553Y-14841439D02*
X12222077Y-14822391D01*
X12222077Y-14822391D02*
X12231601Y-14812868D01*
X12231601Y-14812868D02*
X12250648Y-14803344D01*
X12393506Y-14822391D02*
X12403029Y-14812868D01*
X12403029Y-14812868D02*
X12422077Y-14803344D01*
X12422077Y-14803344D02*
X12469696Y-14803344D01*
X12469696Y-14803344D02*
X12488744Y-14812868D01*
X12488744Y-14812868D02*
X12498267Y-14822391D01*
X12498267Y-14822391D02*
X12507791Y-14841439D01*
X12507791Y-14841439D02*
X12507791Y-14860487D01*
X12507791Y-14860487D02*
X12498267Y-14889058D01*
X12498267Y-14889058D02*
X12383982Y-15003344D01*
X12383982Y-15003344D02*
X12507791Y-15003344D01*
X12698267Y-15003344D02*
X12583982Y-15003344D01*
X12641125Y-15003344D02*
X12641125Y-14803344D01*
X12641125Y-14803344D02*
X12622077Y-14831915D01*
X12622077Y-14831915D02*
X12603029Y-14850963D01*
X12603029Y-14850963D02*
X12583982Y-14860487D01*
X12764934Y-14803344D02*
X12898267Y-14803344D01*
X12898267Y-14803344D02*
X12812553Y-15003344D01*
X12964934Y-14803344D02*
X12964934Y-14841439D01*
X13041125Y-14803344D02*
X13041125Y-14841439D01*
X13336363Y-15079534D02*
X13326839Y-15070010D01*
X13326839Y-15070010D02*
X13307791Y-15041439D01*
X13307791Y-15041439D02*
X13298268Y-15022391D01*
X13298268Y-15022391D02*
X13288744Y-14993820D01*
X13288744Y-14993820D02*
X13279220Y-14946201D01*
X13279220Y-14946201D02*
X13279220Y-14908106D01*
X13279220Y-14908106D02*
X13288744Y-14860487D01*
X13288744Y-14860487D02*
X13298268Y-14831915D01*
X13298268Y-14831915D02*
X13307791Y-14812868D01*
X13307791Y-14812868D02*
X13326839Y-14784296D01*
X13326839Y-14784296D02*
X13336363Y-14774772D01*
X13450648Y-14803344D02*
X13469696Y-14803344D01*
X13469696Y-14803344D02*
X13488744Y-14812868D01*
X13488744Y-14812868D02*
X13498268Y-14822391D01*
X13498268Y-14822391D02*
X13507791Y-14841439D01*
X13507791Y-14841439D02*
X13517315Y-14879534D01*
X13517315Y-14879534D02*
X13517315Y-14927153D01*
X13517315Y-14927153D02*
X13507791Y-14965248D01*
X13507791Y-14965248D02*
X13498268Y-14984296D01*
X13498268Y-14984296D02*
X13488744Y-14993820D01*
X13488744Y-14993820D02*
X13469696Y-15003344D01*
X13469696Y-15003344D02*
X13450648Y-15003344D01*
X13450648Y-15003344D02*
X13431601Y-14993820D01*
X13431601Y-14993820D02*
X13422077Y-14984296D01*
X13422077Y-14984296D02*
X13412553Y-14965248D01*
X13412553Y-14965248D02*
X13403029Y-14927153D01*
X13403029Y-14927153D02*
X13403029Y-14879534D01*
X13403029Y-14879534D02*
X13412553Y-14841439D01*
X13412553Y-14841439D02*
X13422077Y-14822391D01*
X13422077Y-14822391D02*
X13431601Y-14812868D01*
X13431601Y-14812868D02*
X13450648Y-14803344D01*
X13755410Y-15003344D02*
X13755410Y-14803344D01*
X13841125Y-15003344D02*
X13841125Y-14898582D01*
X13841125Y-14898582D02*
X13831601Y-14879534D01*
X13831601Y-14879534D02*
X13812553Y-14870010D01*
X13812553Y-14870010D02*
X13783982Y-14870010D01*
X13783982Y-14870010D02*
X13764934Y-14879534D01*
X13764934Y-14879534D02*
X13755410Y-14889058D01*
X13964934Y-15003344D02*
X13945887Y-14993820D01*
X13945887Y-14993820D02*
X13936363Y-14984296D01*
X13936363Y-14984296D02*
X13926839Y-14965248D01*
X13926839Y-14965248D02*
X13926839Y-14908106D01*
X13926839Y-14908106D02*
X13936363Y-14889058D01*
X13936363Y-14889058D02*
X13945887Y-14879534D01*
X13945887Y-14879534D02*
X13964934Y-14870010D01*
X13964934Y-14870010D02*
X13993506Y-14870010D01*
X13993506Y-14870010D02*
X14012553Y-14879534D01*
X14012553Y-14879534D02*
X14022077Y-14889058D01*
X14022077Y-14889058D02*
X14031601Y-14908106D01*
X14031601Y-14908106D02*
X14031601Y-14965248D01*
X14031601Y-14965248D02*
X14022077Y-14984296D01*
X14022077Y-14984296D02*
X14012553Y-14993820D01*
X14012553Y-14993820D02*
X13993506Y-15003344D01*
X13993506Y-15003344D02*
X13964934Y-15003344D01*
X14145887Y-15003344D02*
X14126839Y-14993820D01*
X14126839Y-14993820D02*
X14117315Y-14974772D01*
X14117315Y-14974772D02*
X14117315Y-14803344D01*
X14298268Y-14993820D02*
X14279220Y-15003344D01*
X14279220Y-15003344D02*
X14241125Y-15003344D01*
X14241125Y-15003344D02*
X14222077Y-14993820D01*
X14222077Y-14993820D02*
X14212553Y-14974772D01*
X14212553Y-14974772D02*
X14212553Y-14898582D01*
X14212553Y-14898582D02*
X14222077Y-14879534D01*
X14222077Y-14879534D02*
X14241125Y-14870010D01*
X14241125Y-14870010D02*
X14279220Y-14870010D01*
X14279220Y-14870010D02*
X14298268Y-14879534D01*
X14298268Y-14879534D02*
X14307791Y-14898582D01*
X14307791Y-14898582D02*
X14307791Y-14917629D01*
X14307791Y-14917629D02*
X14212553Y-14936677D01*
X14383982Y-14993820D02*
X14403030Y-15003344D01*
X14403030Y-15003344D02*
X14441125Y-15003344D01*
X14441125Y-15003344D02*
X14460172Y-14993820D01*
X14460172Y-14993820D02*
X14469696Y-14974772D01*
X14469696Y-14974772D02*
X14469696Y-14965248D01*
X14469696Y-14965248D02*
X14460172Y-14946201D01*
X14460172Y-14946201D02*
X14441125Y-14936677D01*
X14441125Y-14936677D02*
X14412553Y-14936677D01*
X14412553Y-14936677D02*
X14393506Y-14927153D01*
X14393506Y-14927153D02*
X14383982Y-14908106D01*
X14383982Y-14908106D02*
X14383982Y-14898582D01*
X14383982Y-14898582D02*
X14393506Y-14879534D01*
X14393506Y-14879534D02*
X14412553Y-14870010D01*
X14412553Y-14870010D02*
X14441125Y-14870010D01*
X14441125Y-14870010D02*
X14460172Y-14879534D01*
X14707792Y-14927153D02*
X14860173Y-14927153D01*
X14783982Y-15003344D02*
X14783982Y-14850963D01*
X15098268Y-14822391D02*
X15107792Y-14812868D01*
X15107792Y-14812868D02*
X15126839Y-14803344D01*
X15126839Y-14803344D02*
X15174458Y-14803344D01*
X15174458Y-14803344D02*
X15193506Y-14812868D01*
X15193506Y-14812868D02*
X15203030Y-14822391D01*
X15203030Y-14822391D02*
X15212553Y-14841439D01*
X15212553Y-14841439D02*
X15212553Y-14860487D01*
X15212553Y-14860487D02*
X15203030Y-14889058D01*
X15203030Y-14889058D02*
X15088744Y-15003344D01*
X15088744Y-15003344D02*
X15212553Y-15003344D01*
X15441125Y-14993820D02*
X15460173Y-15003344D01*
X15460173Y-15003344D02*
X15498268Y-15003344D01*
X15498268Y-15003344D02*
X15517315Y-14993820D01*
X15517315Y-14993820D02*
X15526839Y-14974772D01*
X15526839Y-14974772D02*
X15526839Y-14965248D01*
X15526839Y-14965248D02*
X15517315Y-14946201D01*
X15517315Y-14946201D02*
X15498268Y-14936677D01*
X15498268Y-14936677D02*
X15469696Y-14936677D01*
X15469696Y-14936677D02*
X15450649Y-14927153D01*
X15450649Y-14927153D02*
X15441125Y-14908106D01*
X15441125Y-14908106D02*
X15441125Y-14898582D01*
X15441125Y-14898582D02*
X15450649Y-14879534D01*
X15450649Y-14879534D02*
X15469696Y-14870010D01*
X15469696Y-14870010D02*
X15498268Y-14870010D01*
X15498268Y-14870010D02*
X15517315Y-14879534D01*
X15641125Y-15003344D02*
X15622077Y-14993820D01*
X15622077Y-14993820D02*
X15612554Y-14974772D01*
X15612554Y-14974772D02*
X15612554Y-14803344D01*
X15745887Y-15003344D02*
X15726839Y-14993820D01*
X15726839Y-14993820D02*
X15717315Y-14984296D01*
X15717315Y-14984296D02*
X15707792Y-14965248D01*
X15707792Y-14965248D02*
X15707792Y-14908106D01*
X15707792Y-14908106D02*
X15717315Y-14889058D01*
X15717315Y-14889058D02*
X15726839Y-14879534D01*
X15726839Y-14879534D02*
X15745887Y-14870010D01*
X15745887Y-14870010D02*
X15774458Y-14870010D01*
X15774458Y-14870010D02*
X15793506Y-14879534D01*
X15793506Y-14879534D02*
X15803030Y-14889058D01*
X15803030Y-14889058D02*
X15812554Y-14908106D01*
X15812554Y-14908106D02*
X15812554Y-14965248D01*
X15812554Y-14965248D02*
X15803030Y-14984296D01*
X15803030Y-14984296D02*
X15793506Y-14993820D01*
X15793506Y-14993820D02*
X15774458Y-15003344D01*
X15774458Y-15003344D02*
X15745887Y-15003344D01*
X15869696Y-14870010D02*
X15945887Y-14870010D01*
X15898268Y-14803344D02*
X15898268Y-14974772D01*
X15898268Y-14974772D02*
X15907792Y-14993820D01*
X15907792Y-14993820D02*
X15926839Y-15003344D01*
X15926839Y-15003344D02*
X15945887Y-15003344D01*
X16003030Y-14993820D02*
X16022077Y-15003344D01*
X16022077Y-15003344D02*
X16060173Y-15003344D01*
X16060173Y-15003344D02*
X16079220Y-14993820D01*
X16079220Y-14993820D02*
X16088744Y-14974772D01*
X16088744Y-14974772D02*
X16088744Y-14965248D01*
X16088744Y-14965248D02*
X16079220Y-14946201D01*
X16079220Y-14946201D02*
X16060173Y-14936677D01*
X16060173Y-14936677D02*
X16031601Y-14936677D01*
X16031601Y-14936677D02*
X16012554Y-14927153D01*
X16012554Y-14927153D02*
X16003030Y-14908106D01*
X16003030Y-14908106D02*
X16003030Y-14898582D01*
X16003030Y-14898582D02*
X16012554Y-14879534D01*
X16012554Y-14879534D02*
X16031601Y-14870010D01*
X16031601Y-14870010D02*
X16060173Y-14870010D01*
X16060173Y-14870010D02*
X16079220Y-14879534D01*
X16155411Y-15079534D02*
X16164935Y-15070010D01*
X16164935Y-15070010D02*
X16183982Y-15041439D01*
X16183982Y-15041439D02*
X16193506Y-15022391D01*
X16193506Y-15022391D02*
X16203030Y-14993820D01*
X16203030Y-14993820D02*
X16212554Y-14946201D01*
X16212554Y-14946201D02*
X16212554Y-14908106D01*
X16212554Y-14908106D02*
X16203030Y-14860487D01*
X16203030Y-14860487D02*
X16193506Y-14831915D01*
X16193506Y-14831915D02*
X16183982Y-14812868D01*
X16183982Y-14812868D02*
X16164935Y-14784296D01*
X16164935Y-14784296D02*
X16155411Y-14774772D01*
D10*
X9749585Y-15204144D02*
X9749585Y-15147575D01*
X9693016Y-15147575D01*
X9693016Y-15204144D01*
X9749585Y-15204144D01*
D11*
X10060172Y-15067344D02*
X10079220Y-15067344D01*
X10079220Y-15067344D02*
X10098267Y-15076868D01*
X10098267Y-15076868D02*
X10107791Y-15086391D01*
X10107791Y-15086391D02*
X10117315Y-15105439D01*
X10117315Y-15105439D02*
X10126839Y-15143534D01*
X10126839Y-15143534D02*
X10126839Y-15191153D01*
X10126839Y-15191153D02*
X10117315Y-15229248D01*
X10117315Y-15229248D02*
X10107791Y-15248296D01*
X10107791Y-15248296D02*
X10098267Y-15257820D01*
X10098267Y-15257820D02*
X10079220Y-15267344D01*
X10079220Y-15267344D02*
X10060172Y-15267344D01*
X10060172Y-15267344D02*
X10041124Y-15257820D01*
X10041124Y-15257820D02*
X10031601Y-15248296D01*
X10031601Y-15248296D02*
X10022077Y-15229248D01*
X10022077Y-15229248D02*
X10012553Y-15191153D01*
X10012553Y-15191153D02*
X10012553Y-15143534D01*
X10012553Y-15143534D02*
X10022077Y-15105439D01*
X10022077Y-15105439D02*
X10031601Y-15086391D01*
X10031601Y-15086391D02*
X10041124Y-15076868D01*
X10041124Y-15076868D02*
X10060172Y-15067344D01*
X10212553Y-15248296D02*
X10222077Y-15257820D01*
X10222077Y-15257820D02*
X10212553Y-15267344D01*
X10212553Y-15267344D02*
X10203029Y-15257820D01*
X10203029Y-15257820D02*
X10212553Y-15248296D01*
X10212553Y-15248296D02*
X10212553Y-15267344D01*
X10336363Y-15153058D02*
X10317315Y-15143534D01*
X10317315Y-15143534D02*
X10307791Y-15134010D01*
X10307791Y-15134010D02*
X10298267Y-15114963D01*
X10298267Y-15114963D02*
X10298267Y-15105439D01*
X10298267Y-15105439D02*
X10307791Y-15086391D01*
X10307791Y-15086391D02*
X10317315Y-15076868D01*
X10317315Y-15076868D02*
X10336363Y-15067344D01*
X10336363Y-15067344D02*
X10374458Y-15067344D01*
X10374458Y-15067344D02*
X10393505Y-15076868D01*
X10393505Y-15076868D02*
X10403029Y-15086391D01*
X10403029Y-15086391D02*
X10412553Y-15105439D01*
X10412553Y-15105439D02*
X10412553Y-15114963D01*
X10412553Y-15114963D02*
X10403029Y-15134010D01*
X10403029Y-15134010D02*
X10393505Y-15143534D01*
X10393505Y-15143534D02*
X10374458Y-15153058D01*
X10374458Y-15153058D02*
X10336363Y-15153058D01*
X10336363Y-15153058D02*
X10317315Y-15162582D01*
X10317315Y-15162582D02*
X10307791Y-15172106D01*
X10307791Y-15172106D02*
X10298267Y-15191153D01*
X10298267Y-15191153D02*
X10298267Y-15229248D01*
X10298267Y-15229248D02*
X10307791Y-15248296D01*
X10307791Y-15248296D02*
X10317315Y-15257820D01*
X10317315Y-15257820D02*
X10336363Y-15267344D01*
X10336363Y-15267344D02*
X10374458Y-15267344D01*
X10374458Y-15267344D02*
X10393505Y-15257820D01*
X10393505Y-15257820D02*
X10403029Y-15248296D01*
X10403029Y-15248296D02*
X10412553Y-15229248D01*
X10412553Y-15229248D02*
X10412553Y-15191153D01*
X10412553Y-15191153D02*
X10403029Y-15172106D01*
X10403029Y-15172106D02*
X10393505Y-15162582D01*
X10393505Y-15162582D02*
X10374458Y-15153058D01*
X10536363Y-15067344D02*
X10555410Y-15067344D01*
X10555410Y-15067344D02*
X10574458Y-15076868D01*
X10574458Y-15076868D02*
X10583982Y-15086391D01*
X10583982Y-15086391D02*
X10593505Y-15105439D01*
X10593505Y-15105439D02*
X10603029Y-15143534D01*
X10603029Y-15143534D02*
X10603029Y-15191153D01*
X10603029Y-15191153D02*
X10593505Y-15229248D01*
X10593505Y-15229248D02*
X10583982Y-15248296D01*
X10583982Y-15248296D02*
X10574458Y-15257820D01*
X10574458Y-15257820D02*
X10555410Y-15267344D01*
X10555410Y-15267344D02*
X10536363Y-15267344D01*
X10536363Y-15267344D02*
X10517315Y-15257820D01*
X10517315Y-15257820D02*
X10507791Y-15248296D01*
X10507791Y-15248296D02*
X10498267Y-15229248D01*
X10498267Y-15229248D02*
X10488744Y-15191153D01*
X10488744Y-15191153D02*
X10488744Y-15143534D01*
X10488744Y-15143534D02*
X10498267Y-15105439D01*
X10498267Y-15105439D02*
X10507791Y-15086391D01*
X10507791Y-15086391D02*
X10517315Y-15076868D01*
X10517315Y-15076868D02*
X10536363Y-15067344D01*
X10726839Y-15067344D02*
X10745886Y-15067344D01*
X10745886Y-15067344D02*
X10764934Y-15076868D01*
X10764934Y-15076868D02*
X10774458Y-15086391D01*
X10774458Y-15086391D02*
X10783982Y-15105439D01*
X10783982Y-15105439D02*
X10793505Y-15143534D01*
X10793505Y-15143534D02*
X10793505Y-15191153D01*
X10793505Y-15191153D02*
X10783982Y-15229248D01*
X10783982Y-15229248D02*
X10774458Y-15248296D01*
X10774458Y-15248296D02*
X10764934Y-15257820D01*
X10764934Y-15257820D02*
X10745886Y-15267344D01*
X10745886Y-15267344D02*
X10726839Y-15267344D01*
X10726839Y-15267344D02*
X10707791Y-15257820D01*
X10707791Y-15257820D02*
X10698267Y-15248296D01*
X10698267Y-15248296D02*
X10688744Y-15229248D01*
X10688744Y-15229248D02*
X10679220Y-15191153D01*
X10679220Y-15191153D02*
X10679220Y-15143534D01*
X10679220Y-15143534D02*
X10688744Y-15105439D01*
X10688744Y-15105439D02*
X10698267Y-15086391D01*
X10698267Y-15086391D02*
X10707791Y-15076868D01*
X10707791Y-15076868D02*
X10726839Y-15067344D01*
X10879220Y-15267344D02*
X10879220Y-15134010D01*
X10879220Y-15153058D02*
X10888744Y-15143534D01*
X10888744Y-15143534D02*
X10907791Y-15134010D01*
X10907791Y-15134010D02*
X10936363Y-15134010D01*
X10936363Y-15134010D02*
X10955410Y-15143534D01*
X10955410Y-15143534D02*
X10964934Y-15162582D01*
X10964934Y-15162582D02*
X10964934Y-15267344D01*
X10964934Y-15162582D02*
X10974458Y-15143534D01*
X10974458Y-15143534D02*
X10993505Y-15134010D01*
X10993505Y-15134010D02*
X11022077Y-15134010D01*
X11022077Y-15134010D02*
X11041125Y-15143534D01*
X11041125Y-15143534D02*
X11050648Y-15162582D01*
X11050648Y-15162582D02*
X11050648Y-15267344D01*
X11145886Y-15267344D02*
X11145886Y-15134010D01*
X11145886Y-15153058D02*
X11155410Y-15143534D01*
X11155410Y-15143534D02*
X11174458Y-15134010D01*
X11174458Y-15134010D02*
X11203029Y-15134010D01*
X11203029Y-15134010D02*
X11222077Y-15143534D01*
X11222077Y-15143534D02*
X11231601Y-15162582D01*
X11231601Y-15162582D02*
X11231601Y-15267344D01*
X11231601Y-15162582D02*
X11241124Y-15143534D01*
X11241124Y-15143534D02*
X11260172Y-15134010D01*
X11260172Y-15134010D02*
X11288743Y-15134010D01*
X11288743Y-15134010D02*
X11307791Y-15143534D01*
X11307791Y-15143534D02*
X11317315Y-15162582D01*
X11317315Y-15162582D02*
X11317315Y-15267344D01*
X11707791Y-15057820D02*
X11536363Y-15314963D01*
X11964934Y-15067344D02*
X11983982Y-15067344D01*
X11983982Y-15067344D02*
X12003029Y-15076868D01*
X12003029Y-15076868D02*
X12012553Y-15086391D01*
X12012553Y-15086391D02*
X12022077Y-15105439D01*
X12022077Y-15105439D02*
X12031601Y-15143534D01*
X12031601Y-15143534D02*
X12031601Y-15191153D01*
X12031601Y-15191153D02*
X12022077Y-15229248D01*
X12022077Y-15229248D02*
X12012553Y-15248296D01*
X12012553Y-15248296D02*
X12003029Y-15257820D01*
X12003029Y-15257820D02*
X11983982Y-15267344D01*
X11983982Y-15267344D02*
X11964934Y-15267344D01*
X11964934Y-15267344D02*
X11945886Y-15257820D01*
X11945886Y-15257820D02*
X11936363Y-15248296D01*
X11936363Y-15248296D02*
X11926839Y-15229248D01*
X11926839Y-15229248D02*
X11917315Y-15191153D01*
X11917315Y-15191153D02*
X11917315Y-15143534D01*
X11917315Y-15143534D02*
X11926839Y-15105439D01*
X11926839Y-15105439D02*
X11936363Y-15086391D01*
X11936363Y-15086391D02*
X11945886Y-15076868D01*
X11945886Y-15076868D02*
X11964934Y-15067344D01*
X12117315Y-15248296D02*
X12126839Y-15257820D01*
X12126839Y-15257820D02*
X12117315Y-15267344D01*
X12117315Y-15267344D02*
X12107791Y-15257820D01*
X12107791Y-15257820D02*
X12117315Y-15248296D01*
X12117315Y-15248296D02*
X12117315Y-15267344D01*
X12250648Y-15067344D02*
X12269696Y-15067344D01*
X12269696Y-15067344D02*
X12288744Y-15076868D01*
X12288744Y-15076868D02*
X12298267Y-15086391D01*
X12298267Y-15086391D02*
X12307791Y-15105439D01*
X12307791Y-15105439D02*
X12317315Y-15143534D01*
X12317315Y-15143534D02*
X12317315Y-15191153D01*
X12317315Y-15191153D02*
X12307791Y-15229248D01*
X12307791Y-15229248D02*
X12298267Y-15248296D01*
X12298267Y-15248296D02*
X12288744Y-15257820D01*
X12288744Y-15257820D02*
X12269696Y-15267344D01*
X12269696Y-15267344D02*
X12250648Y-15267344D01*
X12250648Y-15267344D02*
X12231601Y-15257820D01*
X12231601Y-15257820D02*
X12222077Y-15248296D01*
X12222077Y-15248296D02*
X12212553Y-15229248D01*
X12212553Y-15229248D02*
X12203029Y-15191153D01*
X12203029Y-15191153D02*
X12203029Y-15143534D01*
X12203029Y-15143534D02*
X12212553Y-15105439D01*
X12212553Y-15105439D02*
X12222077Y-15086391D01*
X12222077Y-15086391D02*
X12231601Y-15076868D01*
X12231601Y-15076868D02*
X12250648Y-15067344D01*
X12383982Y-15067344D02*
X12507791Y-15067344D01*
X12507791Y-15067344D02*
X12441125Y-15143534D01*
X12441125Y-15143534D02*
X12469696Y-15143534D01*
X12469696Y-15143534D02*
X12488744Y-15153058D01*
X12488744Y-15153058D02*
X12498267Y-15162582D01*
X12498267Y-15162582D02*
X12507791Y-15181629D01*
X12507791Y-15181629D02*
X12507791Y-15229248D01*
X12507791Y-15229248D02*
X12498267Y-15248296D01*
X12498267Y-15248296D02*
X12488744Y-15257820D01*
X12488744Y-15257820D02*
X12469696Y-15267344D01*
X12469696Y-15267344D02*
X12412553Y-15267344D01*
X12412553Y-15267344D02*
X12393506Y-15257820D01*
X12393506Y-15257820D02*
X12383982Y-15248296D01*
X12698267Y-15267344D02*
X12583982Y-15267344D01*
X12641125Y-15267344D02*
X12641125Y-15067344D01*
X12641125Y-15067344D02*
X12622077Y-15095915D01*
X12622077Y-15095915D02*
X12603029Y-15114963D01*
X12603029Y-15114963D02*
X12583982Y-15124487D01*
X12879220Y-15067344D02*
X12783982Y-15067344D01*
X12783982Y-15067344D02*
X12774458Y-15162582D01*
X12774458Y-15162582D02*
X12783982Y-15153058D01*
X12783982Y-15153058D02*
X12803029Y-15143534D01*
X12803029Y-15143534D02*
X12850648Y-15143534D01*
X12850648Y-15143534D02*
X12869696Y-15153058D01*
X12869696Y-15153058D02*
X12879220Y-15162582D01*
X12879220Y-15162582D02*
X12888744Y-15181629D01*
X12888744Y-15181629D02*
X12888744Y-15229248D01*
X12888744Y-15229248D02*
X12879220Y-15248296D01*
X12879220Y-15248296D02*
X12869696Y-15257820D01*
X12869696Y-15257820D02*
X12850648Y-15267344D01*
X12850648Y-15267344D02*
X12803029Y-15267344D01*
X12803029Y-15267344D02*
X12783982Y-15257820D01*
X12783982Y-15257820D02*
X12774458Y-15248296D01*
X12964934Y-15067344D02*
X12964934Y-15105439D01*
X13041125Y-15067344D02*
X13041125Y-15105439D01*
X13336363Y-15343534D02*
X13326839Y-15334010D01*
X13326839Y-15334010D02*
X13307791Y-15305439D01*
X13307791Y-15305439D02*
X13298268Y-15286391D01*
X13298268Y-15286391D02*
X13288744Y-15257820D01*
X13288744Y-15257820D02*
X13279220Y-15210201D01*
X13279220Y-15210201D02*
X13279220Y-15172106D01*
X13279220Y-15172106D02*
X13288744Y-15124487D01*
X13288744Y-15124487D02*
X13298268Y-15095915D01*
X13298268Y-15095915D02*
X13307791Y-15076868D01*
X13307791Y-15076868D02*
X13326839Y-15048296D01*
X13326839Y-15048296D02*
X13336363Y-15038772D01*
X13441125Y-15153058D02*
X13422077Y-15143534D01*
X13422077Y-15143534D02*
X13412553Y-15134010D01*
X13412553Y-15134010D02*
X13403029Y-15114963D01*
X13403029Y-15114963D02*
X13403029Y-15105439D01*
X13403029Y-15105439D02*
X13412553Y-15086391D01*
X13412553Y-15086391D02*
X13422077Y-15076868D01*
X13422077Y-15076868D02*
X13441125Y-15067344D01*
X13441125Y-15067344D02*
X13479220Y-15067344D01*
X13479220Y-15067344D02*
X13498268Y-15076868D01*
X13498268Y-15076868D02*
X13507791Y-15086391D01*
X13507791Y-15086391D02*
X13517315Y-15105439D01*
X13517315Y-15105439D02*
X13517315Y-15114963D01*
X13517315Y-15114963D02*
X13507791Y-15134010D01*
X13507791Y-15134010D02*
X13498268Y-15143534D01*
X13498268Y-15143534D02*
X13479220Y-15153058D01*
X13479220Y-15153058D02*
X13441125Y-15153058D01*
X13441125Y-15153058D02*
X13422077Y-15162582D01*
X13422077Y-15162582D02*
X13412553Y-15172106D01*
X13412553Y-15172106D02*
X13403029Y-15191153D01*
X13403029Y-15191153D02*
X13403029Y-15229248D01*
X13403029Y-15229248D02*
X13412553Y-15248296D01*
X13412553Y-15248296D02*
X13422077Y-15257820D01*
X13422077Y-15257820D02*
X13441125Y-15267344D01*
X13441125Y-15267344D02*
X13479220Y-15267344D01*
X13479220Y-15267344D02*
X13498268Y-15257820D01*
X13498268Y-15257820D02*
X13507791Y-15248296D01*
X13507791Y-15248296D02*
X13517315Y-15229248D01*
X13517315Y-15229248D02*
X13517315Y-15191153D01*
X13517315Y-15191153D02*
X13507791Y-15172106D01*
X13507791Y-15172106D02*
X13498268Y-15162582D01*
X13498268Y-15162582D02*
X13479220Y-15153058D01*
X13755410Y-15267344D02*
X13755410Y-15067344D01*
X13841125Y-15267344D02*
X13841125Y-15162582D01*
X13841125Y-15162582D02*
X13831601Y-15143534D01*
X13831601Y-15143534D02*
X13812553Y-15134010D01*
X13812553Y-15134010D02*
X13783982Y-15134010D01*
X13783982Y-15134010D02*
X13764934Y-15143534D01*
X13764934Y-15143534D02*
X13755410Y-15153058D01*
X13964934Y-15267344D02*
X13945887Y-15257820D01*
X13945887Y-15257820D02*
X13936363Y-15248296D01*
X13936363Y-15248296D02*
X13926839Y-15229248D01*
X13926839Y-15229248D02*
X13926839Y-15172106D01*
X13926839Y-15172106D02*
X13936363Y-15153058D01*
X13936363Y-15153058D02*
X13945887Y-15143534D01*
X13945887Y-15143534D02*
X13964934Y-15134010D01*
X13964934Y-15134010D02*
X13993506Y-15134010D01*
X13993506Y-15134010D02*
X14012553Y-15143534D01*
X14012553Y-15143534D02*
X14022077Y-15153058D01*
X14022077Y-15153058D02*
X14031601Y-15172106D01*
X14031601Y-15172106D02*
X14031601Y-15229248D01*
X14031601Y-15229248D02*
X14022077Y-15248296D01*
X14022077Y-15248296D02*
X14012553Y-15257820D01*
X14012553Y-15257820D02*
X13993506Y-15267344D01*
X13993506Y-15267344D02*
X13964934Y-15267344D01*
X14145887Y-15267344D02*
X14126839Y-15257820D01*
X14126839Y-15257820D02*
X14117315Y-15238772D01*
X14117315Y-15238772D02*
X14117315Y-15067344D01*
X14298268Y-15257820D02*
X14279220Y-15267344D01*
X14279220Y-15267344D02*
X14241125Y-15267344D01*
X14241125Y-15267344D02*
X14222077Y-15257820D01*
X14222077Y-15257820D02*
X14212553Y-15238772D01*
X14212553Y-15238772D02*
X14212553Y-15162582D01*
X14212553Y-15162582D02*
X14222077Y-15143534D01*
X14222077Y-15143534D02*
X14241125Y-15134010D01*
X14241125Y-15134010D02*
X14279220Y-15134010D01*
X14279220Y-15134010D02*
X14298268Y-15143534D01*
X14298268Y-15143534D02*
X14307791Y-15162582D01*
X14307791Y-15162582D02*
X14307791Y-15181629D01*
X14307791Y-15181629D02*
X14212553Y-15200677D01*
X14383982Y-15257820D02*
X14403030Y-15267344D01*
X14403030Y-15267344D02*
X14441125Y-15267344D01*
X14441125Y-15267344D02*
X14460172Y-15257820D01*
X14460172Y-15257820D02*
X14469696Y-15238772D01*
X14469696Y-15238772D02*
X14469696Y-15229248D01*
X14469696Y-15229248D02*
X14460172Y-15210201D01*
X14460172Y-15210201D02*
X14441125Y-15200677D01*
X14441125Y-15200677D02*
X14412553Y-15200677D01*
X14412553Y-15200677D02*
X14393506Y-15191153D01*
X14393506Y-15191153D02*
X14383982Y-15172106D01*
X14383982Y-15172106D02*
X14383982Y-15162582D01*
X14383982Y-15162582D02*
X14393506Y-15143534D01*
X14393506Y-15143534D02*
X14412553Y-15134010D01*
X14412553Y-15134010D02*
X14441125Y-15134010D01*
X14441125Y-15134010D02*
X14460172Y-15143534D01*
X14536363Y-15343534D02*
X14545887Y-15334010D01*
X14545887Y-15334010D02*
X14564934Y-15305439D01*
X14564934Y-15305439D02*
X14574458Y-15286391D01*
X14574458Y-15286391D02*
X14583982Y-15257820D01*
X14583982Y-15257820D02*
X14593506Y-15210201D01*
X14593506Y-15210201D02*
X14593506Y-15172106D01*
X14593506Y-15172106D02*
X14583982Y-15124487D01*
X14583982Y-15124487D02*
X14574458Y-15095915D01*
X14574458Y-15095915D02*
X14564934Y-15076868D01*
X14564934Y-15076868D02*
X14545887Y-15048296D01*
X14545887Y-15048296D02*
X14536363Y-15038772D01*
D10*
X9718800Y-15482360D02*
X9761300Y-15439860D01*
X9718800Y-15397360D01*
X9676300Y-15439860D01*
X9718800Y-15482360D01*
D11*
X10060172Y-15331344D02*
X10079220Y-15331344D01*
X10079220Y-15331344D02*
X10098267Y-15340868D01*
X10098267Y-15340868D02*
X10107791Y-15350391D01*
X10107791Y-15350391D02*
X10117315Y-15369439D01*
X10117315Y-15369439D02*
X10126839Y-15407534D01*
X10126839Y-15407534D02*
X10126839Y-15455153D01*
X10126839Y-15455153D02*
X10117315Y-15493248D01*
X10117315Y-15493248D02*
X10107791Y-15512296D01*
X10107791Y-15512296D02*
X10098267Y-15521820D01*
X10098267Y-15521820D02*
X10079220Y-15531344D01*
X10079220Y-15531344D02*
X10060172Y-15531344D01*
X10060172Y-15531344D02*
X10041124Y-15521820D01*
X10041124Y-15521820D02*
X10031601Y-15512296D01*
X10031601Y-15512296D02*
X10022077Y-15493248D01*
X10022077Y-15493248D02*
X10012553Y-15455153D01*
X10012553Y-15455153D02*
X10012553Y-15407534D01*
X10012553Y-15407534D02*
X10022077Y-15369439D01*
X10022077Y-15369439D02*
X10031601Y-15350391D01*
X10031601Y-15350391D02*
X10041124Y-15340868D01*
X10041124Y-15340868D02*
X10060172Y-15331344D01*
X10212553Y-15512296D02*
X10222077Y-15521820D01*
X10222077Y-15521820D02*
X10212553Y-15531344D01*
X10212553Y-15531344D02*
X10203029Y-15521820D01*
X10203029Y-15521820D02*
X10212553Y-15512296D01*
X10212553Y-15512296D02*
X10212553Y-15531344D01*
X10336363Y-15417058D02*
X10317315Y-15407534D01*
X10317315Y-15407534D02*
X10307791Y-15398010D01*
X10307791Y-15398010D02*
X10298267Y-15378963D01*
X10298267Y-15378963D02*
X10298267Y-15369439D01*
X10298267Y-15369439D02*
X10307791Y-15350391D01*
X10307791Y-15350391D02*
X10317315Y-15340868D01*
X10317315Y-15340868D02*
X10336363Y-15331344D01*
X10336363Y-15331344D02*
X10374458Y-15331344D01*
X10374458Y-15331344D02*
X10393505Y-15340868D01*
X10393505Y-15340868D02*
X10403029Y-15350391D01*
X10403029Y-15350391D02*
X10412553Y-15369439D01*
X10412553Y-15369439D02*
X10412553Y-15378963D01*
X10412553Y-15378963D02*
X10403029Y-15398010D01*
X10403029Y-15398010D02*
X10393505Y-15407534D01*
X10393505Y-15407534D02*
X10374458Y-15417058D01*
X10374458Y-15417058D02*
X10336363Y-15417058D01*
X10336363Y-15417058D02*
X10317315Y-15426582D01*
X10317315Y-15426582D02*
X10307791Y-15436106D01*
X10307791Y-15436106D02*
X10298267Y-15455153D01*
X10298267Y-15455153D02*
X10298267Y-15493248D01*
X10298267Y-15493248D02*
X10307791Y-15512296D01*
X10307791Y-15512296D02*
X10317315Y-15521820D01*
X10317315Y-15521820D02*
X10336363Y-15531344D01*
X10336363Y-15531344D02*
X10374458Y-15531344D01*
X10374458Y-15531344D02*
X10393505Y-15521820D01*
X10393505Y-15521820D02*
X10403029Y-15512296D01*
X10403029Y-15512296D02*
X10412553Y-15493248D01*
X10412553Y-15493248D02*
X10412553Y-15455153D01*
X10412553Y-15455153D02*
X10403029Y-15436106D01*
X10403029Y-15436106D02*
X10393505Y-15426582D01*
X10393505Y-15426582D02*
X10374458Y-15417058D01*
X10593505Y-15331344D02*
X10498267Y-15331344D01*
X10498267Y-15331344D02*
X10488744Y-15426582D01*
X10488744Y-15426582D02*
X10498267Y-15417058D01*
X10498267Y-15417058D02*
X10517315Y-15407534D01*
X10517315Y-15407534D02*
X10564934Y-15407534D01*
X10564934Y-15407534D02*
X10583982Y-15417058D01*
X10583982Y-15417058D02*
X10593505Y-15426582D01*
X10593505Y-15426582D02*
X10603029Y-15445629D01*
X10603029Y-15445629D02*
X10603029Y-15493248D01*
X10603029Y-15493248D02*
X10593505Y-15512296D01*
X10593505Y-15512296D02*
X10583982Y-15521820D01*
X10583982Y-15521820D02*
X10564934Y-15531344D01*
X10564934Y-15531344D02*
X10517315Y-15531344D01*
X10517315Y-15531344D02*
X10498267Y-15521820D01*
X10498267Y-15521820D02*
X10488744Y-15512296D01*
X10726839Y-15331344D02*
X10745886Y-15331344D01*
X10745886Y-15331344D02*
X10764934Y-15340868D01*
X10764934Y-15340868D02*
X10774458Y-15350391D01*
X10774458Y-15350391D02*
X10783982Y-15369439D01*
X10783982Y-15369439D02*
X10793505Y-15407534D01*
X10793505Y-15407534D02*
X10793505Y-15455153D01*
X10793505Y-15455153D02*
X10783982Y-15493248D01*
X10783982Y-15493248D02*
X10774458Y-15512296D01*
X10774458Y-15512296D02*
X10764934Y-15521820D01*
X10764934Y-15521820D02*
X10745886Y-15531344D01*
X10745886Y-15531344D02*
X10726839Y-15531344D01*
X10726839Y-15531344D02*
X10707791Y-15521820D01*
X10707791Y-15521820D02*
X10698267Y-15512296D01*
X10698267Y-15512296D02*
X10688744Y-15493248D01*
X10688744Y-15493248D02*
X10679220Y-15455153D01*
X10679220Y-15455153D02*
X10679220Y-15407534D01*
X10679220Y-15407534D02*
X10688744Y-15369439D01*
X10688744Y-15369439D02*
X10698267Y-15350391D01*
X10698267Y-15350391D02*
X10707791Y-15340868D01*
X10707791Y-15340868D02*
X10726839Y-15331344D01*
X10879220Y-15531344D02*
X10879220Y-15398010D01*
X10879220Y-15417058D02*
X10888744Y-15407534D01*
X10888744Y-15407534D02*
X10907791Y-15398010D01*
X10907791Y-15398010D02*
X10936363Y-15398010D01*
X10936363Y-15398010D02*
X10955410Y-15407534D01*
X10955410Y-15407534D02*
X10964934Y-15426582D01*
X10964934Y-15426582D02*
X10964934Y-15531344D01*
X10964934Y-15426582D02*
X10974458Y-15407534D01*
X10974458Y-15407534D02*
X10993505Y-15398010D01*
X10993505Y-15398010D02*
X11022077Y-15398010D01*
X11022077Y-15398010D02*
X11041125Y-15407534D01*
X11041125Y-15407534D02*
X11050648Y-15426582D01*
X11050648Y-15426582D02*
X11050648Y-15531344D01*
X11145886Y-15531344D02*
X11145886Y-15398010D01*
X11145886Y-15417058D02*
X11155410Y-15407534D01*
X11155410Y-15407534D02*
X11174458Y-15398010D01*
X11174458Y-15398010D02*
X11203029Y-15398010D01*
X11203029Y-15398010D02*
X11222077Y-15407534D01*
X11222077Y-15407534D02*
X11231601Y-15426582D01*
X11231601Y-15426582D02*
X11231601Y-15531344D01*
X11231601Y-15426582D02*
X11241124Y-15407534D01*
X11241124Y-15407534D02*
X11260172Y-15398010D01*
X11260172Y-15398010D02*
X11288743Y-15398010D01*
X11288743Y-15398010D02*
X11307791Y-15407534D01*
X11307791Y-15407534D02*
X11317315Y-15426582D01*
X11317315Y-15426582D02*
X11317315Y-15531344D01*
X11707791Y-15321820D02*
X11536363Y-15578963D01*
X11964934Y-15331344D02*
X11983982Y-15331344D01*
X11983982Y-15331344D02*
X12003029Y-15340868D01*
X12003029Y-15340868D02*
X12012553Y-15350391D01*
X12012553Y-15350391D02*
X12022077Y-15369439D01*
X12022077Y-15369439D02*
X12031601Y-15407534D01*
X12031601Y-15407534D02*
X12031601Y-15455153D01*
X12031601Y-15455153D02*
X12022077Y-15493248D01*
X12022077Y-15493248D02*
X12012553Y-15512296D01*
X12012553Y-15512296D02*
X12003029Y-15521820D01*
X12003029Y-15521820D02*
X11983982Y-15531344D01*
X11983982Y-15531344D02*
X11964934Y-15531344D01*
X11964934Y-15531344D02*
X11945886Y-15521820D01*
X11945886Y-15521820D02*
X11936363Y-15512296D01*
X11936363Y-15512296D02*
X11926839Y-15493248D01*
X11926839Y-15493248D02*
X11917315Y-15455153D01*
X11917315Y-15455153D02*
X11917315Y-15407534D01*
X11917315Y-15407534D02*
X11926839Y-15369439D01*
X11926839Y-15369439D02*
X11936363Y-15350391D01*
X11936363Y-15350391D02*
X11945886Y-15340868D01*
X11945886Y-15340868D02*
X11964934Y-15331344D01*
X12117315Y-15512296D02*
X12126839Y-15521820D01*
X12126839Y-15521820D02*
X12117315Y-15531344D01*
X12117315Y-15531344D02*
X12107791Y-15521820D01*
X12107791Y-15521820D02*
X12117315Y-15512296D01*
X12117315Y-15512296D02*
X12117315Y-15531344D01*
X12250648Y-15331344D02*
X12269696Y-15331344D01*
X12269696Y-15331344D02*
X12288744Y-15340868D01*
X12288744Y-15340868D02*
X12298267Y-15350391D01*
X12298267Y-15350391D02*
X12307791Y-15369439D01*
X12307791Y-15369439D02*
X12317315Y-15407534D01*
X12317315Y-15407534D02*
X12317315Y-15455153D01*
X12317315Y-15455153D02*
X12307791Y-15493248D01*
X12307791Y-15493248D02*
X12298267Y-15512296D01*
X12298267Y-15512296D02*
X12288744Y-15521820D01*
X12288744Y-15521820D02*
X12269696Y-15531344D01*
X12269696Y-15531344D02*
X12250648Y-15531344D01*
X12250648Y-15531344D02*
X12231601Y-15521820D01*
X12231601Y-15521820D02*
X12222077Y-15512296D01*
X12222077Y-15512296D02*
X12212553Y-15493248D01*
X12212553Y-15493248D02*
X12203029Y-15455153D01*
X12203029Y-15455153D02*
X12203029Y-15407534D01*
X12203029Y-15407534D02*
X12212553Y-15369439D01*
X12212553Y-15369439D02*
X12222077Y-15350391D01*
X12222077Y-15350391D02*
X12231601Y-15340868D01*
X12231601Y-15340868D02*
X12250648Y-15331344D01*
X12383982Y-15331344D02*
X12507791Y-15331344D01*
X12507791Y-15331344D02*
X12441125Y-15407534D01*
X12441125Y-15407534D02*
X12469696Y-15407534D01*
X12469696Y-15407534D02*
X12488744Y-15417058D01*
X12488744Y-15417058D02*
X12498267Y-15426582D01*
X12498267Y-15426582D02*
X12507791Y-15445629D01*
X12507791Y-15445629D02*
X12507791Y-15493248D01*
X12507791Y-15493248D02*
X12498267Y-15512296D01*
X12498267Y-15512296D02*
X12488744Y-15521820D01*
X12488744Y-15521820D02*
X12469696Y-15531344D01*
X12469696Y-15531344D02*
X12412553Y-15531344D01*
X12412553Y-15531344D02*
X12393506Y-15521820D01*
X12393506Y-15521820D02*
X12383982Y-15512296D01*
X12574458Y-15331344D02*
X12698267Y-15331344D01*
X12698267Y-15331344D02*
X12631601Y-15407534D01*
X12631601Y-15407534D02*
X12660172Y-15407534D01*
X12660172Y-15407534D02*
X12679220Y-15417058D01*
X12679220Y-15417058D02*
X12688744Y-15426582D01*
X12688744Y-15426582D02*
X12698267Y-15445629D01*
X12698267Y-15445629D02*
X12698267Y-15493248D01*
X12698267Y-15493248D02*
X12688744Y-15512296D01*
X12688744Y-15512296D02*
X12679220Y-15521820D01*
X12679220Y-15521820D02*
X12660172Y-15531344D01*
X12660172Y-15531344D02*
X12603029Y-15531344D01*
X12603029Y-15531344D02*
X12583982Y-15521820D01*
X12583982Y-15521820D02*
X12574458Y-15512296D01*
X12879220Y-15331344D02*
X12783982Y-15331344D01*
X12783982Y-15331344D02*
X12774458Y-15426582D01*
X12774458Y-15426582D02*
X12783982Y-15417058D01*
X12783982Y-15417058D02*
X12803029Y-15407534D01*
X12803029Y-15407534D02*
X12850648Y-15407534D01*
X12850648Y-15407534D02*
X12869696Y-15417058D01*
X12869696Y-15417058D02*
X12879220Y-15426582D01*
X12879220Y-15426582D02*
X12888744Y-15445629D01*
X12888744Y-15445629D02*
X12888744Y-15493248D01*
X12888744Y-15493248D02*
X12879220Y-15512296D01*
X12879220Y-15512296D02*
X12869696Y-15521820D01*
X12869696Y-15521820D02*
X12850648Y-15531344D01*
X12850648Y-15531344D02*
X12803029Y-15531344D01*
X12803029Y-15531344D02*
X12783982Y-15521820D01*
X12783982Y-15521820D02*
X12774458Y-15512296D01*
X12964934Y-15331344D02*
X12964934Y-15369439D01*
X13041125Y-15331344D02*
X13041125Y-15369439D01*
X13336363Y-15607534D02*
X13326839Y-15598010D01*
X13326839Y-15598010D02*
X13307791Y-15569439D01*
X13307791Y-15569439D02*
X13298268Y-15550391D01*
X13298268Y-15550391D02*
X13288744Y-15521820D01*
X13288744Y-15521820D02*
X13279220Y-15474201D01*
X13279220Y-15474201D02*
X13279220Y-15436106D01*
X13279220Y-15436106D02*
X13288744Y-15388487D01*
X13288744Y-15388487D02*
X13298268Y-15359915D01*
X13298268Y-15359915D02*
X13307791Y-15340868D01*
X13307791Y-15340868D02*
X13326839Y-15312296D01*
X13326839Y-15312296D02*
X13336363Y-15302772D01*
X13450648Y-15331344D02*
X13469696Y-15331344D01*
X13469696Y-15331344D02*
X13488744Y-15340868D01*
X13488744Y-15340868D02*
X13498268Y-15350391D01*
X13498268Y-15350391D02*
X13507791Y-15369439D01*
X13507791Y-15369439D02*
X13517315Y-15407534D01*
X13517315Y-15407534D02*
X13517315Y-15455153D01*
X13517315Y-15455153D02*
X13507791Y-15493248D01*
X13507791Y-15493248D02*
X13498268Y-15512296D01*
X13498268Y-15512296D02*
X13488744Y-15521820D01*
X13488744Y-15521820D02*
X13469696Y-15531344D01*
X13469696Y-15531344D02*
X13450648Y-15531344D01*
X13450648Y-15531344D02*
X13431601Y-15521820D01*
X13431601Y-15521820D02*
X13422077Y-15512296D01*
X13422077Y-15512296D02*
X13412553Y-15493248D01*
X13412553Y-15493248D02*
X13403029Y-15455153D01*
X13403029Y-15455153D02*
X13403029Y-15407534D01*
X13403029Y-15407534D02*
X13412553Y-15369439D01*
X13412553Y-15369439D02*
X13422077Y-15350391D01*
X13422077Y-15350391D02*
X13431601Y-15340868D01*
X13431601Y-15340868D02*
X13450648Y-15331344D01*
X13755410Y-15531344D02*
X13755410Y-15331344D01*
X13841125Y-15531344D02*
X13841125Y-15426582D01*
X13841125Y-15426582D02*
X13831601Y-15407534D01*
X13831601Y-15407534D02*
X13812553Y-15398010D01*
X13812553Y-15398010D02*
X13783982Y-15398010D01*
X13783982Y-15398010D02*
X13764934Y-15407534D01*
X13764934Y-15407534D02*
X13755410Y-15417058D01*
X13964934Y-15531344D02*
X13945887Y-15521820D01*
X13945887Y-15521820D02*
X13936363Y-15512296D01*
X13936363Y-15512296D02*
X13926839Y-15493248D01*
X13926839Y-15493248D02*
X13926839Y-15436106D01*
X13926839Y-15436106D02*
X13936363Y-15417058D01*
X13936363Y-15417058D02*
X13945887Y-15407534D01*
X13945887Y-15407534D02*
X13964934Y-15398010D01*
X13964934Y-15398010D02*
X13993506Y-15398010D01*
X13993506Y-15398010D02*
X14012553Y-15407534D01*
X14012553Y-15407534D02*
X14022077Y-15417058D01*
X14022077Y-15417058D02*
X14031601Y-15436106D01*
X14031601Y-15436106D02*
X14031601Y-15493248D01*
X14031601Y-15493248D02*
X14022077Y-15512296D01*
X14022077Y-15512296D02*
X14012553Y-15521820D01*
X14012553Y-15521820D02*
X13993506Y-15531344D01*
X13993506Y-15531344D02*
X13964934Y-15531344D01*
X14145887Y-15531344D02*
X14126839Y-15521820D01*
X14126839Y-15521820D02*
X14117315Y-15502772D01*
X14117315Y-15502772D02*
X14117315Y-15331344D01*
X14298268Y-15521820D02*
X14279220Y-15531344D01*
X14279220Y-15531344D02*
X14241125Y-15531344D01*
X14241125Y-15531344D02*
X14222077Y-15521820D01*
X14222077Y-15521820D02*
X14212553Y-15502772D01*
X14212553Y-15502772D02*
X14212553Y-15426582D01*
X14212553Y-15426582D02*
X14222077Y-15407534D01*
X14222077Y-15407534D02*
X14241125Y-15398010D01*
X14241125Y-15398010D02*
X14279220Y-15398010D01*
X14279220Y-15398010D02*
X14298268Y-15407534D01*
X14298268Y-15407534D02*
X14307791Y-15426582D01*
X14307791Y-15426582D02*
X14307791Y-15445629D01*
X14307791Y-15445629D02*
X14212553Y-15464677D01*
X14383982Y-15521820D02*
X14403030Y-15531344D01*
X14403030Y-15531344D02*
X14441125Y-15531344D01*
X14441125Y-15531344D02*
X14460172Y-15521820D01*
X14460172Y-15521820D02*
X14469696Y-15502772D01*
X14469696Y-15502772D02*
X14469696Y-15493248D01*
X14469696Y-15493248D02*
X14460172Y-15474201D01*
X14460172Y-15474201D02*
X14441125Y-15464677D01*
X14441125Y-15464677D02*
X14412553Y-15464677D01*
X14412553Y-15464677D02*
X14393506Y-15455153D01*
X14393506Y-15455153D02*
X14383982Y-15436106D01*
X14383982Y-15436106D02*
X14383982Y-15426582D01*
X14383982Y-15426582D02*
X14393506Y-15407534D01*
X14393506Y-15407534D02*
X14412553Y-15398010D01*
X14412553Y-15398010D02*
X14441125Y-15398010D01*
X14441125Y-15398010D02*
X14460172Y-15407534D01*
X14707792Y-15455153D02*
X14860173Y-15455153D01*
X14783982Y-15531344D02*
X14783982Y-15378963D01*
X15098268Y-15350391D02*
X15107792Y-15340868D01*
X15107792Y-15340868D02*
X15126839Y-15331344D01*
X15126839Y-15331344D02*
X15174458Y-15331344D01*
X15174458Y-15331344D02*
X15193506Y-15340868D01*
X15193506Y-15340868D02*
X15203030Y-15350391D01*
X15203030Y-15350391D02*
X15212553Y-15369439D01*
X15212553Y-15369439D02*
X15212553Y-15388487D01*
X15212553Y-15388487D02*
X15203030Y-15417058D01*
X15203030Y-15417058D02*
X15088744Y-15531344D01*
X15088744Y-15531344D02*
X15212553Y-15531344D01*
X15441125Y-15521820D02*
X15460173Y-15531344D01*
X15460173Y-15531344D02*
X15498268Y-15531344D01*
X15498268Y-15531344D02*
X15517315Y-15521820D01*
X15517315Y-15521820D02*
X15526839Y-15502772D01*
X15526839Y-15502772D02*
X15526839Y-15493248D01*
X15526839Y-15493248D02*
X15517315Y-15474201D01*
X15517315Y-15474201D02*
X15498268Y-15464677D01*
X15498268Y-15464677D02*
X15469696Y-15464677D01*
X15469696Y-15464677D02*
X15450649Y-15455153D01*
X15450649Y-15455153D02*
X15441125Y-15436106D01*
X15441125Y-15436106D02*
X15441125Y-15426582D01*
X15441125Y-15426582D02*
X15450649Y-15407534D01*
X15450649Y-15407534D02*
X15469696Y-15398010D01*
X15469696Y-15398010D02*
X15498268Y-15398010D01*
X15498268Y-15398010D02*
X15517315Y-15407534D01*
X15641125Y-15531344D02*
X15622077Y-15521820D01*
X15622077Y-15521820D02*
X15612554Y-15502772D01*
X15612554Y-15502772D02*
X15612554Y-15331344D01*
X15745887Y-15531344D02*
X15726839Y-15521820D01*
X15726839Y-15521820D02*
X15717315Y-15512296D01*
X15717315Y-15512296D02*
X15707792Y-15493248D01*
X15707792Y-15493248D02*
X15707792Y-15436106D01*
X15707792Y-15436106D02*
X15717315Y-15417058D01*
X15717315Y-15417058D02*
X15726839Y-15407534D01*
X15726839Y-15407534D02*
X15745887Y-15398010D01*
X15745887Y-15398010D02*
X15774458Y-15398010D01*
X15774458Y-15398010D02*
X15793506Y-15407534D01*
X15793506Y-15407534D02*
X15803030Y-15417058D01*
X15803030Y-15417058D02*
X15812554Y-15436106D01*
X15812554Y-15436106D02*
X15812554Y-15493248D01*
X15812554Y-15493248D02*
X15803030Y-15512296D01*
X15803030Y-15512296D02*
X15793506Y-15521820D01*
X15793506Y-15521820D02*
X15774458Y-15531344D01*
X15774458Y-15531344D02*
X15745887Y-15531344D01*
X15869696Y-15398010D02*
X15945887Y-15398010D01*
X15898268Y-15331344D02*
X15898268Y-15502772D01*
X15898268Y-15502772D02*
X15907792Y-15521820D01*
X15907792Y-15521820D02*
X15926839Y-15531344D01*
X15926839Y-15531344D02*
X15945887Y-15531344D01*
X16003030Y-15521820D02*
X16022077Y-15531344D01*
X16022077Y-15531344D02*
X16060173Y-15531344D01*
X16060173Y-15531344D02*
X16079220Y-15521820D01*
X16079220Y-15521820D02*
X16088744Y-15502772D01*
X16088744Y-15502772D02*
X16088744Y-15493248D01*
X16088744Y-15493248D02*
X16079220Y-15474201D01*
X16079220Y-15474201D02*
X16060173Y-15464677D01*
X16060173Y-15464677D02*
X16031601Y-15464677D01*
X16031601Y-15464677D02*
X16012554Y-15455153D01*
X16012554Y-15455153D02*
X16003030Y-15436106D01*
X16003030Y-15436106D02*
X16003030Y-15426582D01*
X16003030Y-15426582D02*
X16012554Y-15407534D01*
X16012554Y-15407534D02*
X16031601Y-15398010D01*
X16031601Y-15398010D02*
X16060173Y-15398010D01*
X16060173Y-15398010D02*
X16079220Y-15407534D01*
X16155411Y-15607534D02*
X16164935Y-15598010D01*
X16164935Y-15598010D02*
X16183982Y-15569439D01*
X16183982Y-15569439D02*
X16193506Y-15550391D01*
X16193506Y-15550391D02*
X16203030Y-15521820D01*
X16203030Y-15521820D02*
X16212554Y-15474201D01*
X16212554Y-15474201D02*
X16212554Y-15436106D01*
X16212554Y-15436106D02*
X16203030Y-15388487D01*
X16203030Y-15388487D02*
X16193506Y-15359915D01*
X16193506Y-15359915D02*
X16183982Y-15340868D01*
X16183982Y-15340868D02*
X16164935Y-15312296D01*
X16164935Y-15312296D02*
X16155411Y-15302772D01*
D10*
X9661300Y-15653860D02*
X9761300Y-15753860D01*
X9761300Y-15653860D02*
X9661300Y-15753860D01*
X9761300Y-15703860D02*
G75*
G03*
X9661300Y-15703860I-50000J0D01*
G01*
X9661300Y-15703860D02*
G75*
G03*
X9761300Y-15703860I50000J0D01*
G01*
D11*
X10126839Y-15795344D02*
X10012553Y-15795344D01*
X10069696Y-15795344D02*
X10069696Y-15595344D01*
X10069696Y-15595344D02*
X10050648Y-15623915D01*
X10050648Y-15623915D02*
X10031601Y-15642963D01*
X10031601Y-15642963D02*
X10012553Y-15652487D01*
X10212553Y-15776296D02*
X10222077Y-15785820D01*
X10222077Y-15785820D02*
X10212553Y-15795344D01*
X10212553Y-15795344D02*
X10203029Y-15785820D01*
X10203029Y-15785820D02*
X10212553Y-15776296D01*
X10212553Y-15776296D02*
X10212553Y-15795344D01*
X10345886Y-15595344D02*
X10364934Y-15595344D01*
X10364934Y-15595344D02*
X10383982Y-15604868D01*
X10383982Y-15604868D02*
X10393505Y-15614391D01*
X10393505Y-15614391D02*
X10403029Y-15633439D01*
X10403029Y-15633439D02*
X10412553Y-15671534D01*
X10412553Y-15671534D02*
X10412553Y-15719153D01*
X10412553Y-15719153D02*
X10403029Y-15757248D01*
X10403029Y-15757248D02*
X10393505Y-15776296D01*
X10393505Y-15776296D02*
X10383982Y-15785820D01*
X10383982Y-15785820D02*
X10364934Y-15795344D01*
X10364934Y-15795344D02*
X10345886Y-15795344D01*
X10345886Y-15795344D02*
X10326839Y-15785820D01*
X10326839Y-15785820D02*
X10317315Y-15776296D01*
X10317315Y-15776296D02*
X10307791Y-15757248D01*
X10307791Y-15757248D02*
X10298267Y-15719153D01*
X10298267Y-15719153D02*
X10298267Y-15671534D01*
X10298267Y-15671534D02*
X10307791Y-15633439D01*
X10307791Y-15633439D02*
X10317315Y-15614391D01*
X10317315Y-15614391D02*
X10326839Y-15604868D01*
X10326839Y-15604868D02*
X10345886Y-15595344D01*
X10536363Y-15595344D02*
X10555410Y-15595344D01*
X10555410Y-15595344D02*
X10574458Y-15604868D01*
X10574458Y-15604868D02*
X10583982Y-15614391D01*
X10583982Y-15614391D02*
X10593505Y-15633439D01*
X10593505Y-15633439D02*
X10603029Y-15671534D01*
X10603029Y-15671534D02*
X10603029Y-15719153D01*
X10603029Y-15719153D02*
X10593505Y-15757248D01*
X10593505Y-15757248D02*
X10583982Y-15776296D01*
X10583982Y-15776296D02*
X10574458Y-15785820D01*
X10574458Y-15785820D02*
X10555410Y-15795344D01*
X10555410Y-15795344D02*
X10536363Y-15795344D01*
X10536363Y-15795344D02*
X10517315Y-15785820D01*
X10517315Y-15785820D02*
X10507791Y-15776296D01*
X10507791Y-15776296D02*
X10498267Y-15757248D01*
X10498267Y-15757248D02*
X10488744Y-15719153D01*
X10488744Y-15719153D02*
X10488744Y-15671534D01*
X10488744Y-15671534D02*
X10498267Y-15633439D01*
X10498267Y-15633439D02*
X10507791Y-15614391D01*
X10507791Y-15614391D02*
X10517315Y-15604868D01*
X10517315Y-15604868D02*
X10536363Y-15595344D01*
X10726839Y-15595344D02*
X10745886Y-15595344D01*
X10745886Y-15595344D02*
X10764934Y-15604868D01*
X10764934Y-15604868D02*
X10774458Y-15614391D01*
X10774458Y-15614391D02*
X10783982Y-15633439D01*
X10783982Y-15633439D02*
X10793505Y-15671534D01*
X10793505Y-15671534D02*
X10793505Y-15719153D01*
X10793505Y-15719153D02*
X10783982Y-15757248D01*
X10783982Y-15757248D02*
X10774458Y-15776296D01*
X10774458Y-15776296D02*
X10764934Y-15785820D01*
X10764934Y-15785820D02*
X10745886Y-15795344D01*
X10745886Y-15795344D02*
X10726839Y-15795344D01*
X10726839Y-15795344D02*
X10707791Y-15785820D01*
X10707791Y-15785820D02*
X10698267Y-15776296D01*
X10698267Y-15776296D02*
X10688744Y-15757248D01*
X10688744Y-15757248D02*
X10679220Y-15719153D01*
X10679220Y-15719153D02*
X10679220Y-15671534D01*
X10679220Y-15671534D02*
X10688744Y-15633439D01*
X10688744Y-15633439D02*
X10698267Y-15614391D01*
X10698267Y-15614391D02*
X10707791Y-15604868D01*
X10707791Y-15604868D02*
X10726839Y-15595344D01*
X10879220Y-15795344D02*
X10879220Y-15662010D01*
X10879220Y-15681058D02*
X10888744Y-15671534D01*
X10888744Y-15671534D02*
X10907791Y-15662010D01*
X10907791Y-15662010D02*
X10936363Y-15662010D01*
X10936363Y-15662010D02*
X10955410Y-15671534D01*
X10955410Y-15671534D02*
X10964934Y-15690582D01*
X10964934Y-15690582D02*
X10964934Y-15795344D01*
X10964934Y-15690582D02*
X10974458Y-15671534D01*
X10974458Y-15671534D02*
X10993505Y-15662010D01*
X10993505Y-15662010D02*
X11022077Y-15662010D01*
X11022077Y-15662010D02*
X11041125Y-15671534D01*
X11041125Y-15671534D02*
X11050648Y-15690582D01*
X11050648Y-15690582D02*
X11050648Y-15795344D01*
X11145886Y-15795344D02*
X11145886Y-15662010D01*
X11145886Y-15681058D02*
X11155410Y-15671534D01*
X11155410Y-15671534D02*
X11174458Y-15662010D01*
X11174458Y-15662010D02*
X11203029Y-15662010D01*
X11203029Y-15662010D02*
X11222077Y-15671534D01*
X11222077Y-15671534D02*
X11231601Y-15690582D01*
X11231601Y-15690582D02*
X11231601Y-15795344D01*
X11231601Y-15690582D02*
X11241124Y-15671534D01*
X11241124Y-15671534D02*
X11260172Y-15662010D01*
X11260172Y-15662010D02*
X11288743Y-15662010D01*
X11288743Y-15662010D02*
X11307791Y-15671534D01*
X11307791Y-15671534D02*
X11317315Y-15690582D01*
X11317315Y-15690582D02*
X11317315Y-15795344D01*
X11707791Y-15585820D02*
X11536363Y-15842963D01*
X11964934Y-15595344D02*
X11983982Y-15595344D01*
X11983982Y-15595344D02*
X12003029Y-15604868D01*
X12003029Y-15604868D02*
X12012553Y-15614391D01*
X12012553Y-15614391D02*
X12022077Y-15633439D01*
X12022077Y-15633439D02*
X12031601Y-15671534D01*
X12031601Y-15671534D02*
X12031601Y-15719153D01*
X12031601Y-15719153D02*
X12022077Y-15757248D01*
X12022077Y-15757248D02*
X12012553Y-15776296D01*
X12012553Y-15776296D02*
X12003029Y-15785820D01*
X12003029Y-15785820D02*
X11983982Y-15795344D01*
X11983982Y-15795344D02*
X11964934Y-15795344D01*
X11964934Y-15795344D02*
X11945886Y-15785820D01*
X11945886Y-15785820D02*
X11936363Y-15776296D01*
X11936363Y-15776296D02*
X11926839Y-15757248D01*
X11926839Y-15757248D02*
X11917315Y-15719153D01*
X11917315Y-15719153D02*
X11917315Y-15671534D01*
X11917315Y-15671534D02*
X11926839Y-15633439D01*
X11926839Y-15633439D02*
X11936363Y-15614391D01*
X11936363Y-15614391D02*
X11945886Y-15604868D01*
X11945886Y-15604868D02*
X11964934Y-15595344D01*
X12117315Y-15776296D02*
X12126839Y-15785820D01*
X12126839Y-15785820D02*
X12117315Y-15795344D01*
X12117315Y-15795344D02*
X12107791Y-15785820D01*
X12107791Y-15785820D02*
X12117315Y-15776296D01*
X12117315Y-15776296D02*
X12117315Y-15795344D01*
X12250648Y-15595344D02*
X12269696Y-15595344D01*
X12269696Y-15595344D02*
X12288744Y-15604868D01*
X12288744Y-15604868D02*
X12298267Y-15614391D01*
X12298267Y-15614391D02*
X12307791Y-15633439D01*
X12307791Y-15633439D02*
X12317315Y-15671534D01*
X12317315Y-15671534D02*
X12317315Y-15719153D01*
X12317315Y-15719153D02*
X12307791Y-15757248D01*
X12307791Y-15757248D02*
X12298267Y-15776296D01*
X12298267Y-15776296D02*
X12288744Y-15785820D01*
X12288744Y-15785820D02*
X12269696Y-15795344D01*
X12269696Y-15795344D02*
X12250648Y-15795344D01*
X12250648Y-15795344D02*
X12231601Y-15785820D01*
X12231601Y-15785820D02*
X12222077Y-15776296D01*
X12222077Y-15776296D02*
X12212553Y-15757248D01*
X12212553Y-15757248D02*
X12203029Y-15719153D01*
X12203029Y-15719153D02*
X12203029Y-15671534D01*
X12203029Y-15671534D02*
X12212553Y-15633439D01*
X12212553Y-15633439D02*
X12222077Y-15614391D01*
X12222077Y-15614391D02*
X12231601Y-15604868D01*
X12231601Y-15604868D02*
X12250648Y-15595344D01*
X12383982Y-15595344D02*
X12507791Y-15595344D01*
X12507791Y-15595344D02*
X12441125Y-15671534D01*
X12441125Y-15671534D02*
X12469696Y-15671534D01*
X12469696Y-15671534D02*
X12488744Y-15681058D01*
X12488744Y-15681058D02*
X12498267Y-15690582D01*
X12498267Y-15690582D02*
X12507791Y-15709629D01*
X12507791Y-15709629D02*
X12507791Y-15757248D01*
X12507791Y-15757248D02*
X12498267Y-15776296D01*
X12498267Y-15776296D02*
X12488744Y-15785820D01*
X12488744Y-15785820D02*
X12469696Y-15795344D01*
X12469696Y-15795344D02*
X12412553Y-15795344D01*
X12412553Y-15795344D02*
X12393506Y-15785820D01*
X12393506Y-15785820D02*
X12383982Y-15776296D01*
X12603029Y-15795344D02*
X12641125Y-15795344D01*
X12641125Y-15795344D02*
X12660172Y-15785820D01*
X12660172Y-15785820D02*
X12669696Y-15776296D01*
X12669696Y-15776296D02*
X12688744Y-15747725D01*
X12688744Y-15747725D02*
X12698267Y-15709629D01*
X12698267Y-15709629D02*
X12698267Y-15633439D01*
X12698267Y-15633439D02*
X12688744Y-15614391D01*
X12688744Y-15614391D02*
X12679220Y-15604868D01*
X12679220Y-15604868D02*
X12660172Y-15595344D01*
X12660172Y-15595344D02*
X12622077Y-15595344D01*
X12622077Y-15595344D02*
X12603029Y-15604868D01*
X12603029Y-15604868D02*
X12593506Y-15614391D01*
X12593506Y-15614391D02*
X12583982Y-15633439D01*
X12583982Y-15633439D02*
X12583982Y-15681058D01*
X12583982Y-15681058D02*
X12593506Y-15700106D01*
X12593506Y-15700106D02*
X12603029Y-15709629D01*
X12603029Y-15709629D02*
X12622077Y-15719153D01*
X12622077Y-15719153D02*
X12660172Y-15719153D01*
X12660172Y-15719153D02*
X12679220Y-15709629D01*
X12679220Y-15709629D02*
X12688744Y-15700106D01*
X12688744Y-15700106D02*
X12698267Y-15681058D01*
X12869696Y-15662010D02*
X12869696Y-15795344D01*
X12822077Y-15585820D02*
X12774458Y-15728677D01*
X12774458Y-15728677D02*
X12898267Y-15728677D01*
X12964934Y-15595344D02*
X12964934Y-15633439D01*
X13041125Y-15595344D02*
X13041125Y-15633439D01*
X13336363Y-15871534D02*
X13326839Y-15862010D01*
X13326839Y-15862010D02*
X13307791Y-15833439D01*
X13307791Y-15833439D02*
X13298268Y-15814391D01*
X13298268Y-15814391D02*
X13288744Y-15785820D01*
X13288744Y-15785820D02*
X13279220Y-15738201D01*
X13279220Y-15738201D02*
X13279220Y-15700106D01*
X13279220Y-15700106D02*
X13288744Y-15652487D01*
X13288744Y-15652487D02*
X13298268Y-15623915D01*
X13298268Y-15623915D02*
X13307791Y-15604868D01*
X13307791Y-15604868D02*
X13326839Y-15576296D01*
X13326839Y-15576296D02*
X13336363Y-15566772D01*
X13393506Y-15595344D02*
X13526839Y-15595344D01*
X13526839Y-15595344D02*
X13441125Y-15795344D01*
X13755410Y-15795344D02*
X13755410Y-15595344D01*
X13841125Y-15795344D02*
X13841125Y-15690582D01*
X13841125Y-15690582D02*
X13831601Y-15671534D01*
X13831601Y-15671534D02*
X13812553Y-15662010D01*
X13812553Y-15662010D02*
X13783982Y-15662010D01*
X13783982Y-15662010D02*
X13764934Y-15671534D01*
X13764934Y-15671534D02*
X13755410Y-15681058D01*
X13964934Y-15795344D02*
X13945887Y-15785820D01*
X13945887Y-15785820D02*
X13936363Y-15776296D01*
X13936363Y-15776296D02*
X13926839Y-15757248D01*
X13926839Y-15757248D02*
X13926839Y-15700106D01*
X13926839Y-15700106D02*
X13936363Y-15681058D01*
X13936363Y-15681058D02*
X13945887Y-15671534D01*
X13945887Y-15671534D02*
X13964934Y-15662010D01*
X13964934Y-15662010D02*
X13993506Y-15662010D01*
X13993506Y-15662010D02*
X14012553Y-15671534D01*
X14012553Y-15671534D02*
X14022077Y-15681058D01*
X14022077Y-15681058D02*
X14031601Y-15700106D01*
X14031601Y-15700106D02*
X14031601Y-15757248D01*
X14031601Y-15757248D02*
X14022077Y-15776296D01*
X14022077Y-15776296D02*
X14012553Y-15785820D01*
X14012553Y-15785820D02*
X13993506Y-15795344D01*
X13993506Y-15795344D02*
X13964934Y-15795344D01*
X14145887Y-15795344D02*
X14126839Y-15785820D01*
X14126839Y-15785820D02*
X14117315Y-15766772D01*
X14117315Y-15766772D02*
X14117315Y-15595344D01*
X14298268Y-15785820D02*
X14279220Y-15795344D01*
X14279220Y-15795344D02*
X14241125Y-15795344D01*
X14241125Y-15795344D02*
X14222077Y-15785820D01*
X14222077Y-15785820D02*
X14212553Y-15766772D01*
X14212553Y-15766772D02*
X14212553Y-15690582D01*
X14212553Y-15690582D02*
X14222077Y-15671534D01*
X14222077Y-15671534D02*
X14241125Y-15662010D01*
X14241125Y-15662010D02*
X14279220Y-15662010D01*
X14279220Y-15662010D02*
X14298268Y-15671534D01*
X14298268Y-15671534D02*
X14307791Y-15690582D01*
X14307791Y-15690582D02*
X14307791Y-15709629D01*
X14307791Y-15709629D02*
X14212553Y-15728677D01*
X14383982Y-15785820D02*
X14403030Y-15795344D01*
X14403030Y-15795344D02*
X14441125Y-15795344D01*
X14441125Y-15795344D02*
X14460172Y-15785820D01*
X14460172Y-15785820D02*
X14469696Y-15766772D01*
X14469696Y-15766772D02*
X14469696Y-15757248D01*
X14469696Y-15757248D02*
X14460172Y-15738201D01*
X14460172Y-15738201D02*
X14441125Y-15728677D01*
X14441125Y-15728677D02*
X14412553Y-15728677D01*
X14412553Y-15728677D02*
X14393506Y-15719153D01*
X14393506Y-15719153D02*
X14383982Y-15700106D01*
X14383982Y-15700106D02*
X14383982Y-15690582D01*
X14383982Y-15690582D02*
X14393506Y-15671534D01*
X14393506Y-15671534D02*
X14412553Y-15662010D01*
X14412553Y-15662010D02*
X14441125Y-15662010D01*
X14441125Y-15662010D02*
X14460172Y-15671534D01*
X14707792Y-15719153D02*
X14860173Y-15719153D01*
X14783982Y-15795344D02*
X14783982Y-15642963D01*
X15088744Y-15595344D02*
X15212553Y-15595344D01*
X15212553Y-15595344D02*
X15145887Y-15671534D01*
X15145887Y-15671534D02*
X15174458Y-15671534D01*
X15174458Y-15671534D02*
X15193506Y-15681058D01*
X15193506Y-15681058D02*
X15203030Y-15690582D01*
X15203030Y-15690582D02*
X15212553Y-15709629D01*
X15212553Y-15709629D02*
X15212553Y-15757248D01*
X15212553Y-15757248D02*
X15203030Y-15776296D01*
X15203030Y-15776296D02*
X15193506Y-15785820D01*
X15193506Y-15785820D02*
X15174458Y-15795344D01*
X15174458Y-15795344D02*
X15117315Y-15795344D01*
X15117315Y-15795344D02*
X15098268Y-15785820D01*
X15098268Y-15785820D02*
X15088744Y-15776296D01*
X15441125Y-15785820D02*
X15460173Y-15795344D01*
X15460173Y-15795344D02*
X15498268Y-15795344D01*
X15498268Y-15795344D02*
X15517315Y-15785820D01*
X15517315Y-15785820D02*
X15526839Y-15766772D01*
X15526839Y-15766772D02*
X15526839Y-15757248D01*
X15526839Y-15757248D02*
X15517315Y-15738201D01*
X15517315Y-15738201D02*
X15498268Y-15728677D01*
X15498268Y-15728677D02*
X15469696Y-15728677D01*
X15469696Y-15728677D02*
X15450649Y-15719153D01*
X15450649Y-15719153D02*
X15441125Y-15700106D01*
X15441125Y-15700106D02*
X15441125Y-15690582D01*
X15441125Y-15690582D02*
X15450649Y-15671534D01*
X15450649Y-15671534D02*
X15469696Y-15662010D01*
X15469696Y-15662010D02*
X15498268Y-15662010D01*
X15498268Y-15662010D02*
X15517315Y-15671534D01*
X15641125Y-15795344D02*
X15622077Y-15785820D01*
X15622077Y-15785820D02*
X15612554Y-15766772D01*
X15612554Y-15766772D02*
X15612554Y-15595344D01*
X15745887Y-15795344D02*
X15726839Y-15785820D01*
X15726839Y-15785820D02*
X15717315Y-15776296D01*
X15717315Y-15776296D02*
X15707792Y-15757248D01*
X15707792Y-15757248D02*
X15707792Y-15700106D01*
X15707792Y-15700106D02*
X15717315Y-15681058D01*
X15717315Y-15681058D02*
X15726839Y-15671534D01*
X15726839Y-15671534D02*
X15745887Y-15662010D01*
X15745887Y-15662010D02*
X15774458Y-15662010D01*
X15774458Y-15662010D02*
X15793506Y-15671534D01*
X15793506Y-15671534D02*
X15803030Y-15681058D01*
X15803030Y-15681058D02*
X15812554Y-15700106D01*
X15812554Y-15700106D02*
X15812554Y-15757248D01*
X15812554Y-15757248D02*
X15803030Y-15776296D01*
X15803030Y-15776296D02*
X15793506Y-15785820D01*
X15793506Y-15785820D02*
X15774458Y-15795344D01*
X15774458Y-15795344D02*
X15745887Y-15795344D01*
X15869696Y-15662010D02*
X15945887Y-15662010D01*
X15898268Y-15595344D02*
X15898268Y-15766772D01*
X15898268Y-15766772D02*
X15907792Y-15785820D01*
X15907792Y-15785820D02*
X15926839Y-15795344D01*
X15926839Y-15795344D02*
X15945887Y-15795344D01*
X16003030Y-15785820D02*
X16022077Y-15795344D01*
X16022077Y-15795344D02*
X16060173Y-15795344D01*
X16060173Y-15795344D02*
X16079220Y-15785820D01*
X16079220Y-15785820D02*
X16088744Y-15766772D01*
X16088744Y-15766772D02*
X16088744Y-15757248D01*
X16088744Y-15757248D02*
X16079220Y-15738201D01*
X16079220Y-15738201D02*
X16060173Y-15728677D01*
X16060173Y-15728677D02*
X16031601Y-15728677D01*
X16031601Y-15728677D02*
X16012554Y-15719153D01*
X16012554Y-15719153D02*
X16003030Y-15700106D01*
X16003030Y-15700106D02*
X16003030Y-15690582D01*
X16003030Y-15690582D02*
X16012554Y-15671534D01*
X16012554Y-15671534D02*
X16031601Y-15662010D01*
X16031601Y-15662010D02*
X16060173Y-15662010D01*
X16060173Y-15662010D02*
X16079220Y-15671534D01*
X16155411Y-15871534D02*
X16164935Y-15862010D01*
X16164935Y-15862010D02*
X16183982Y-15833439D01*
X16183982Y-15833439D02*
X16193506Y-15814391D01*
X16193506Y-15814391D02*
X16203030Y-15785820D01*
X16203030Y-15785820D02*
X16212554Y-15738201D01*
X16212554Y-15738201D02*
X16212554Y-15700106D01*
X16212554Y-15700106D02*
X16203030Y-15652487D01*
X16203030Y-15652487D02*
X16193506Y-15623915D01*
X16193506Y-15623915D02*
X16183982Y-15604868D01*
X16183982Y-15604868D02*
X16164935Y-15576296D01*
X16164935Y-15576296D02*
X16155411Y-15566772D01*
D12*
X9651300Y-15912860D02*
X9761300Y-16022860D01*
X9761300Y-15912860D02*
X9651300Y-16022860D01*
X9706300Y-15912860D02*
X9706300Y-16022860D01*
X9651300Y-15967860D02*
X9761300Y-15967860D01*
D11*
X10126839Y-16059344D02*
X10012553Y-16059344D01*
X10069696Y-16059344D02*
X10069696Y-15859344D01*
X10069696Y-15859344D02*
X10050648Y-15887915D01*
X10050648Y-15887915D02*
X10031601Y-15906963D01*
X10031601Y-15906963D02*
X10012553Y-15916487D01*
X10212553Y-16040296D02*
X10222077Y-16049820D01*
X10222077Y-16049820D02*
X10212553Y-16059344D01*
X10212553Y-16059344D02*
X10203029Y-16049820D01*
X10203029Y-16049820D02*
X10212553Y-16040296D01*
X10212553Y-16040296D02*
X10212553Y-16059344D01*
X10412553Y-16059344D02*
X10298267Y-16059344D01*
X10355410Y-16059344D02*
X10355410Y-15859344D01*
X10355410Y-15859344D02*
X10336363Y-15887915D01*
X10336363Y-15887915D02*
X10317315Y-15906963D01*
X10317315Y-15906963D02*
X10298267Y-15916487D01*
X10536363Y-15859344D02*
X10555410Y-15859344D01*
X10555410Y-15859344D02*
X10574458Y-15868868D01*
X10574458Y-15868868D02*
X10583982Y-15878391D01*
X10583982Y-15878391D02*
X10593505Y-15897439D01*
X10593505Y-15897439D02*
X10603029Y-15935534D01*
X10603029Y-15935534D02*
X10603029Y-15983153D01*
X10603029Y-15983153D02*
X10593505Y-16021248D01*
X10593505Y-16021248D02*
X10583982Y-16040296D01*
X10583982Y-16040296D02*
X10574458Y-16049820D01*
X10574458Y-16049820D02*
X10555410Y-16059344D01*
X10555410Y-16059344D02*
X10536363Y-16059344D01*
X10536363Y-16059344D02*
X10517315Y-16049820D01*
X10517315Y-16049820D02*
X10507791Y-16040296D01*
X10507791Y-16040296D02*
X10498267Y-16021248D01*
X10498267Y-16021248D02*
X10488744Y-15983153D01*
X10488744Y-15983153D02*
X10488744Y-15935534D01*
X10488744Y-15935534D02*
X10498267Y-15897439D01*
X10498267Y-15897439D02*
X10507791Y-15878391D01*
X10507791Y-15878391D02*
X10517315Y-15868868D01*
X10517315Y-15868868D02*
X10536363Y-15859344D01*
X10726839Y-15859344D02*
X10745886Y-15859344D01*
X10745886Y-15859344D02*
X10764934Y-15868868D01*
X10764934Y-15868868D02*
X10774458Y-15878391D01*
X10774458Y-15878391D02*
X10783982Y-15897439D01*
X10783982Y-15897439D02*
X10793505Y-15935534D01*
X10793505Y-15935534D02*
X10793505Y-15983153D01*
X10793505Y-15983153D02*
X10783982Y-16021248D01*
X10783982Y-16021248D02*
X10774458Y-16040296D01*
X10774458Y-16040296D02*
X10764934Y-16049820D01*
X10764934Y-16049820D02*
X10745886Y-16059344D01*
X10745886Y-16059344D02*
X10726839Y-16059344D01*
X10726839Y-16059344D02*
X10707791Y-16049820D01*
X10707791Y-16049820D02*
X10698267Y-16040296D01*
X10698267Y-16040296D02*
X10688744Y-16021248D01*
X10688744Y-16021248D02*
X10679220Y-15983153D01*
X10679220Y-15983153D02*
X10679220Y-15935534D01*
X10679220Y-15935534D02*
X10688744Y-15897439D01*
X10688744Y-15897439D02*
X10698267Y-15878391D01*
X10698267Y-15878391D02*
X10707791Y-15868868D01*
X10707791Y-15868868D02*
X10726839Y-15859344D01*
X10879220Y-16059344D02*
X10879220Y-15926010D01*
X10879220Y-15945058D02*
X10888744Y-15935534D01*
X10888744Y-15935534D02*
X10907791Y-15926010D01*
X10907791Y-15926010D02*
X10936363Y-15926010D01*
X10936363Y-15926010D02*
X10955410Y-15935534D01*
X10955410Y-15935534D02*
X10964934Y-15954582D01*
X10964934Y-15954582D02*
X10964934Y-16059344D01*
X10964934Y-15954582D02*
X10974458Y-15935534D01*
X10974458Y-15935534D02*
X10993505Y-15926010D01*
X10993505Y-15926010D02*
X11022077Y-15926010D01*
X11022077Y-15926010D02*
X11041125Y-15935534D01*
X11041125Y-15935534D02*
X11050648Y-15954582D01*
X11050648Y-15954582D02*
X11050648Y-16059344D01*
X11145886Y-16059344D02*
X11145886Y-15926010D01*
X11145886Y-15945058D02*
X11155410Y-15935534D01*
X11155410Y-15935534D02*
X11174458Y-15926010D01*
X11174458Y-15926010D02*
X11203029Y-15926010D01*
X11203029Y-15926010D02*
X11222077Y-15935534D01*
X11222077Y-15935534D02*
X11231601Y-15954582D01*
X11231601Y-15954582D02*
X11231601Y-16059344D01*
X11231601Y-15954582D02*
X11241124Y-15935534D01*
X11241124Y-15935534D02*
X11260172Y-15926010D01*
X11260172Y-15926010D02*
X11288743Y-15926010D01*
X11288743Y-15926010D02*
X11307791Y-15935534D01*
X11307791Y-15935534D02*
X11317315Y-15954582D01*
X11317315Y-15954582D02*
X11317315Y-16059344D01*
X11707791Y-15849820D02*
X11536363Y-16106963D01*
X11964934Y-15859344D02*
X11983982Y-15859344D01*
X11983982Y-15859344D02*
X12003029Y-15868868D01*
X12003029Y-15868868D02*
X12012553Y-15878391D01*
X12012553Y-15878391D02*
X12022077Y-15897439D01*
X12022077Y-15897439D02*
X12031601Y-15935534D01*
X12031601Y-15935534D02*
X12031601Y-15983153D01*
X12031601Y-15983153D02*
X12022077Y-16021248D01*
X12022077Y-16021248D02*
X12012553Y-16040296D01*
X12012553Y-16040296D02*
X12003029Y-16049820D01*
X12003029Y-16049820D02*
X11983982Y-16059344D01*
X11983982Y-16059344D02*
X11964934Y-16059344D01*
X11964934Y-16059344D02*
X11945886Y-16049820D01*
X11945886Y-16049820D02*
X11936363Y-16040296D01*
X11936363Y-16040296D02*
X11926839Y-16021248D01*
X11926839Y-16021248D02*
X11917315Y-15983153D01*
X11917315Y-15983153D02*
X11917315Y-15935534D01*
X11917315Y-15935534D02*
X11926839Y-15897439D01*
X11926839Y-15897439D02*
X11936363Y-15878391D01*
X11936363Y-15878391D02*
X11945886Y-15868868D01*
X11945886Y-15868868D02*
X11964934Y-15859344D01*
X12117315Y-16040296D02*
X12126839Y-16049820D01*
X12126839Y-16049820D02*
X12117315Y-16059344D01*
X12117315Y-16059344D02*
X12107791Y-16049820D01*
X12107791Y-16049820D02*
X12117315Y-16040296D01*
X12117315Y-16040296D02*
X12117315Y-16059344D01*
X12250648Y-15859344D02*
X12269696Y-15859344D01*
X12269696Y-15859344D02*
X12288744Y-15868868D01*
X12288744Y-15868868D02*
X12298267Y-15878391D01*
X12298267Y-15878391D02*
X12307791Y-15897439D01*
X12307791Y-15897439D02*
X12317315Y-15935534D01*
X12317315Y-15935534D02*
X12317315Y-15983153D01*
X12317315Y-15983153D02*
X12307791Y-16021248D01*
X12307791Y-16021248D02*
X12298267Y-16040296D01*
X12298267Y-16040296D02*
X12288744Y-16049820D01*
X12288744Y-16049820D02*
X12269696Y-16059344D01*
X12269696Y-16059344D02*
X12250648Y-16059344D01*
X12250648Y-16059344D02*
X12231601Y-16049820D01*
X12231601Y-16049820D02*
X12222077Y-16040296D01*
X12222077Y-16040296D02*
X12212553Y-16021248D01*
X12212553Y-16021248D02*
X12203029Y-15983153D01*
X12203029Y-15983153D02*
X12203029Y-15935534D01*
X12203029Y-15935534D02*
X12212553Y-15897439D01*
X12212553Y-15897439D02*
X12222077Y-15878391D01*
X12222077Y-15878391D02*
X12231601Y-15868868D01*
X12231601Y-15868868D02*
X12250648Y-15859344D01*
X12488744Y-15926010D02*
X12488744Y-16059344D01*
X12441125Y-15849820D02*
X12393506Y-15992677D01*
X12393506Y-15992677D02*
X12517315Y-15992677D01*
X12574458Y-15859344D02*
X12698267Y-15859344D01*
X12698267Y-15859344D02*
X12631601Y-15935534D01*
X12631601Y-15935534D02*
X12660172Y-15935534D01*
X12660172Y-15935534D02*
X12679220Y-15945058D01*
X12679220Y-15945058D02*
X12688744Y-15954582D01*
X12688744Y-15954582D02*
X12698267Y-15973629D01*
X12698267Y-15973629D02*
X12698267Y-16021248D01*
X12698267Y-16021248D02*
X12688744Y-16040296D01*
X12688744Y-16040296D02*
X12679220Y-16049820D01*
X12679220Y-16049820D02*
X12660172Y-16059344D01*
X12660172Y-16059344D02*
X12603029Y-16059344D01*
X12603029Y-16059344D02*
X12583982Y-16049820D01*
X12583982Y-16049820D02*
X12574458Y-16040296D01*
X12764934Y-15859344D02*
X12888744Y-15859344D01*
X12888744Y-15859344D02*
X12822077Y-15935534D01*
X12822077Y-15935534D02*
X12850648Y-15935534D01*
X12850648Y-15935534D02*
X12869696Y-15945058D01*
X12869696Y-15945058D02*
X12879220Y-15954582D01*
X12879220Y-15954582D02*
X12888744Y-15973629D01*
X12888744Y-15973629D02*
X12888744Y-16021248D01*
X12888744Y-16021248D02*
X12879220Y-16040296D01*
X12879220Y-16040296D02*
X12869696Y-16049820D01*
X12869696Y-16049820D02*
X12850648Y-16059344D01*
X12850648Y-16059344D02*
X12793506Y-16059344D01*
X12793506Y-16059344D02*
X12774458Y-16049820D01*
X12774458Y-16049820D02*
X12764934Y-16040296D01*
X12964934Y-15859344D02*
X12964934Y-15897439D01*
X13041125Y-15859344D02*
X13041125Y-15897439D01*
X13336363Y-16135534D02*
X13326839Y-16126010D01*
X13326839Y-16126010D02*
X13307791Y-16097439D01*
X13307791Y-16097439D02*
X13298268Y-16078391D01*
X13298268Y-16078391D02*
X13288744Y-16049820D01*
X13288744Y-16049820D02*
X13279220Y-16002201D01*
X13279220Y-16002201D02*
X13279220Y-15964106D01*
X13279220Y-15964106D02*
X13288744Y-15916487D01*
X13288744Y-15916487D02*
X13298268Y-15887915D01*
X13298268Y-15887915D02*
X13307791Y-15868868D01*
X13307791Y-15868868D02*
X13326839Y-15840296D01*
X13326839Y-15840296D02*
X13336363Y-15830772D01*
X13498268Y-15859344D02*
X13460172Y-15859344D01*
X13460172Y-15859344D02*
X13441125Y-15868868D01*
X13441125Y-15868868D02*
X13431601Y-15878391D01*
X13431601Y-15878391D02*
X13412553Y-15906963D01*
X13412553Y-15906963D02*
X13403029Y-15945058D01*
X13403029Y-15945058D02*
X13403029Y-16021248D01*
X13403029Y-16021248D02*
X13412553Y-16040296D01*
X13412553Y-16040296D02*
X13422077Y-16049820D01*
X13422077Y-16049820D02*
X13441125Y-16059344D01*
X13441125Y-16059344D02*
X13479220Y-16059344D01*
X13479220Y-16059344D02*
X13498268Y-16049820D01*
X13498268Y-16049820D02*
X13507791Y-16040296D01*
X13507791Y-16040296D02*
X13517315Y-16021248D01*
X13517315Y-16021248D02*
X13517315Y-15973629D01*
X13517315Y-15973629D02*
X13507791Y-15954582D01*
X13507791Y-15954582D02*
X13498268Y-15945058D01*
X13498268Y-15945058D02*
X13479220Y-15935534D01*
X13479220Y-15935534D02*
X13441125Y-15935534D01*
X13441125Y-15935534D02*
X13422077Y-15945058D01*
X13422077Y-15945058D02*
X13412553Y-15954582D01*
X13412553Y-15954582D02*
X13403029Y-15973629D01*
X13755410Y-16059344D02*
X13755410Y-15859344D01*
X13841125Y-16059344D02*
X13841125Y-15954582D01*
X13841125Y-15954582D02*
X13831601Y-15935534D01*
X13831601Y-15935534D02*
X13812553Y-15926010D01*
X13812553Y-15926010D02*
X13783982Y-15926010D01*
X13783982Y-15926010D02*
X13764934Y-15935534D01*
X13764934Y-15935534D02*
X13755410Y-15945058D01*
X13964934Y-16059344D02*
X13945887Y-16049820D01*
X13945887Y-16049820D02*
X13936363Y-16040296D01*
X13936363Y-16040296D02*
X13926839Y-16021248D01*
X13926839Y-16021248D02*
X13926839Y-15964106D01*
X13926839Y-15964106D02*
X13936363Y-15945058D01*
X13936363Y-15945058D02*
X13945887Y-15935534D01*
X13945887Y-15935534D02*
X13964934Y-15926010D01*
X13964934Y-15926010D02*
X13993506Y-15926010D01*
X13993506Y-15926010D02*
X14012553Y-15935534D01*
X14012553Y-15935534D02*
X14022077Y-15945058D01*
X14022077Y-15945058D02*
X14031601Y-15964106D01*
X14031601Y-15964106D02*
X14031601Y-16021248D01*
X14031601Y-16021248D02*
X14022077Y-16040296D01*
X14022077Y-16040296D02*
X14012553Y-16049820D01*
X14012553Y-16049820D02*
X13993506Y-16059344D01*
X13993506Y-16059344D02*
X13964934Y-16059344D01*
X14145887Y-16059344D02*
X14126839Y-16049820D01*
X14126839Y-16049820D02*
X14117315Y-16030772D01*
X14117315Y-16030772D02*
X14117315Y-15859344D01*
X14298268Y-16049820D02*
X14279220Y-16059344D01*
X14279220Y-16059344D02*
X14241125Y-16059344D01*
X14241125Y-16059344D02*
X14222077Y-16049820D01*
X14222077Y-16049820D02*
X14212553Y-16030772D01*
X14212553Y-16030772D02*
X14212553Y-15954582D01*
X14212553Y-15954582D02*
X14222077Y-15935534D01*
X14222077Y-15935534D02*
X14241125Y-15926010D01*
X14241125Y-15926010D02*
X14279220Y-15926010D01*
X14279220Y-15926010D02*
X14298268Y-15935534D01*
X14298268Y-15935534D02*
X14307791Y-15954582D01*
X14307791Y-15954582D02*
X14307791Y-15973629D01*
X14307791Y-15973629D02*
X14212553Y-15992677D01*
X14383982Y-16049820D02*
X14403030Y-16059344D01*
X14403030Y-16059344D02*
X14441125Y-16059344D01*
X14441125Y-16059344D02*
X14460172Y-16049820D01*
X14460172Y-16049820D02*
X14469696Y-16030772D01*
X14469696Y-16030772D02*
X14469696Y-16021248D01*
X14469696Y-16021248D02*
X14460172Y-16002201D01*
X14460172Y-16002201D02*
X14441125Y-15992677D01*
X14441125Y-15992677D02*
X14412553Y-15992677D01*
X14412553Y-15992677D02*
X14393506Y-15983153D01*
X14393506Y-15983153D02*
X14383982Y-15964106D01*
X14383982Y-15964106D02*
X14383982Y-15954582D01*
X14383982Y-15954582D02*
X14393506Y-15935534D01*
X14393506Y-15935534D02*
X14412553Y-15926010D01*
X14412553Y-15926010D02*
X14441125Y-15926010D01*
X14441125Y-15926010D02*
X14460172Y-15935534D01*
X14536363Y-16135534D02*
X14545887Y-16126010D01*
X14545887Y-16126010D02*
X14564934Y-16097439D01*
X14564934Y-16097439D02*
X14574458Y-16078391D01*
X14574458Y-16078391D02*
X14583982Y-16049820D01*
X14583982Y-16049820D02*
X14593506Y-16002201D01*
X14593506Y-16002201D02*
X14593506Y-15964106D01*
X14593506Y-15964106D02*
X14583982Y-15916487D01*
X14583982Y-15916487D02*
X14574458Y-15887915D01*
X14574458Y-15887915D02*
X14564934Y-15868868D01*
X14564934Y-15868868D02*
X14545887Y-15840296D01*
X14545887Y-15840296D02*
X14536363Y-15830772D01*
D13*
X9631300Y-16166860D02*
X9761300Y-16296860D01*
X9761300Y-16166860D02*
X9631300Y-16296860D01*
X9742262Y-16277822D02*
X9742262Y-16185898D01*
X9650338Y-16185898D01*
X9650338Y-16277822D01*
X9742262Y-16277822D01*
D11*
X10126839Y-16323344D02*
X10012553Y-16323344D01*
X10069696Y-16323344D02*
X10069696Y-16123344D01*
X10069696Y-16123344D02*
X10050648Y-16151915D01*
X10050648Y-16151915D02*
X10031601Y-16170963D01*
X10031601Y-16170963D02*
X10012553Y-16180487D01*
X10212553Y-16304296D02*
X10222077Y-16313820D01*
X10222077Y-16313820D02*
X10212553Y-16323344D01*
X10212553Y-16323344D02*
X10203029Y-16313820D01*
X10203029Y-16313820D02*
X10212553Y-16304296D01*
X10212553Y-16304296D02*
X10212553Y-16323344D01*
X10288744Y-16123344D02*
X10412553Y-16123344D01*
X10412553Y-16123344D02*
X10345886Y-16199534D01*
X10345886Y-16199534D02*
X10374458Y-16199534D01*
X10374458Y-16199534D02*
X10393505Y-16209058D01*
X10393505Y-16209058D02*
X10403029Y-16218582D01*
X10403029Y-16218582D02*
X10412553Y-16237629D01*
X10412553Y-16237629D02*
X10412553Y-16285248D01*
X10412553Y-16285248D02*
X10403029Y-16304296D01*
X10403029Y-16304296D02*
X10393505Y-16313820D01*
X10393505Y-16313820D02*
X10374458Y-16323344D01*
X10374458Y-16323344D02*
X10317315Y-16323344D01*
X10317315Y-16323344D02*
X10298267Y-16313820D01*
X10298267Y-16313820D02*
X10288744Y-16304296D01*
X10536363Y-16123344D02*
X10555410Y-16123344D01*
X10555410Y-16123344D02*
X10574458Y-16132868D01*
X10574458Y-16132868D02*
X10583982Y-16142391D01*
X10583982Y-16142391D02*
X10593505Y-16161439D01*
X10593505Y-16161439D02*
X10603029Y-16199534D01*
X10603029Y-16199534D02*
X10603029Y-16247153D01*
X10603029Y-16247153D02*
X10593505Y-16285248D01*
X10593505Y-16285248D02*
X10583982Y-16304296D01*
X10583982Y-16304296D02*
X10574458Y-16313820D01*
X10574458Y-16313820D02*
X10555410Y-16323344D01*
X10555410Y-16323344D02*
X10536363Y-16323344D01*
X10536363Y-16323344D02*
X10517315Y-16313820D01*
X10517315Y-16313820D02*
X10507791Y-16304296D01*
X10507791Y-16304296D02*
X10498267Y-16285248D01*
X10498267Y-16285248D02*
X10488744Y-16247153D01*
X10488744Y-16247153D02*
X10488744Y-16199534D01*
X10488744Y-16199534D02*
X10498267Y-16161439D01*
X10498267Y-16161439D02*
X10507791Y-16142391D01*
X10507791Y-16142391D02*
X10517315Y-16132868D01*
X10517315Y-16132868D02*
X10536363Y-16123344D01*
X10726839Y-16123344D02*
X10745886Y-16123344D01*
X10745886Y-16123344D02*
X10764934Y-16132868D01*
X10764934Y-16132868D02*
X10774458Y-16142391D01*
X10774458Y-16142391D02*
X10783982Y-16161439D01*
X10783982Y-16161439D02*
X10793505Y-16199534D01*
X10793505Y-16199534D02*
X10793505Y-16247153D01*
X10793505Y-16247153D02*
X10783982Y-16285248D01*
X10783982Y-16285248D02*
X10774458Y-16304296D01*
X10774458Y-16304296D02*
X10764934Y-16313820D01*
X10764934Y-16313820D02*
X10745886Y-16323344D01*
X10745886Y-16323344D02*
X10726839Y-16323344D01*
X10726839Y-16323344D02*
X10707791Y-16313820D01*
X10707791Y-16313820D02*
X10698267Y-16304296D01*
X10698267Y-16304296D02*
X10688744Y-16285248D01*
X10688744Y-16285248D02*
X10679220Y-16247153D01*
X10679220Y-16247153D02*
X10679220Y-16199534D01*
X10679220Y-16199534D02*
X10688744Y-16161439D01*
X10688744Y-16161439D02*
X10698267Y-16142391D01*
X10698267Y-16142391D02*
X10707791Y-16132868D01*
X10707791Y-16132868D02*
X10726839Y-16123344D01*
X10879220Y-16323344D02*
X10879220Y-16190010D01*
X10879220Y-16209058D02*
X10888744Y-16199534D01*
X10888744Y-16199534D02*
X10907791Y-16190010D01*
X10907791Y-16190010D02*
X10936363Y-16190010D01*
X10936363Y-16190010D02*
X10955410Y-16199534D01*
X10955410Y-16199534D02*
X10964934Y-16218582D01*
X10964934Y-16218582D02*
X10964934Y-16323344D01*
X10964934Y-16218582D02*
X10974458Y-16199534D01*
X10974458Y-16199534D02*
X10993505Y-16190010D01*
X10993505Y-16190010D02*
X11022077Y-16190010D01*
X11022077Y-16190010D02*
X11041125Y-16199534D01*
X11041125Y-16199534D02*
X11050648Y-16218582D01*
X11050648Y-16218582D02*
X11050648Y-16323344D01*
X11145886Y-16323344D02*
X11145886Y-16190010D01*
X11145886Y-16209058D02*
X11155410Y-16199534D01*
X11155410Y-16199534D02*
X11174458Y-16190010D01*
X11174458Y-16190010D02*
X11203029Y-16190010D01*
X11203029Y-16190010D02*
X11222077Y-16199534D01*
X11222077Y-16199534D02*
X11231601Y-16218582D01*
X11231601Y-16218582D02*
X11231601Y-16323344D01*
X11231601Y-16218582D02*
X11241124Y-16199534D01*
X11241124Y-16199534D02*
X11260172Y-16190010D01*
X11260172Y-16190010D02*
X11288743Y-16190010D01*
X11288743Y-16190010D02*
X11307791Y-16199534D01*
X11307791Y-16199534D02*
X11317315Y-16218582D01*
X11317315Y-16218582D02*
X11317315Y-16323344D01*
X11707791Y-16113820D02*
X11536363Y-16370963D01*
X11964934Y-16123344D02*
X11983982Y-16123344D01*
X11983982Y-16123344D02*
X12003029Y-16132868D01*
X12003029Y-16132868D02*
X12012553Y-16142391D01*
X12012553Y-16142391D02*
X12022077Y-16161439D01*
X12022077Y-16161439D02*
X12031601Y-16199534D01*
X12031601Y-16199534D02*
X12031601Y-16247153D01*
X12031601Y-16247153D02*
X12022077Y-16285248D01*
X12022077Y-16285248D02*
X12012553Y-16304296D01*
X12012553Y-16304296D02*
X12003029Y-16313820D01*
X12003029Y-16313820D02*
X11983982Y-16323344D01*
X11983982Y-16323344D02*
X11964934Y-16323344D01*
X11964934Y-16323344D02*
X11945886Y-16313820D01*
X11945886Y-16313820D02*
X11936363Y-16304296D01*
X11936363Y-16304296D02*
X11926839Y-16285248D01*
X11926839Y-16285248D02*
X11917315Y-16247153D01*
X11917315Y-16247153D02*
X11917315Y-16199534D01*
X11917315Y-16199534D02*
X11926839Y-16161439D01*
X11926839Y-16161439D02*
X11936363Y-16142391D01*
X11936363Y-16142391D02*
X11945886Y-16132868D01*
X11945886Y-16132868D02*
X11964934Y-16123344D01*
X12117315Y-16304296D02*
X12126839Y-16313820D01*
X12126839Y-16313820D02*
X12117315Y-16323344D01*
X12117315Y-16323344D02*
X12107791Y-16313820D01*
X12107791Y-16313820D02*
X12117315Y-16304296D01*
X12117315Y-16304296D02*
X12117315Y-16323344D01*
X12250648Y-16123344D02*
X12269696Y-16123344D01*
X12269696Y-16123344D02*
X12288744Y-16132868D01*
X12288744Y-16132868D02*
X12298267Y-16142391D01*
X12298267Y-16142391D02*
X12307791Y-16161439D01*
X12307791Y-16161439D02*
X12317315Y-16199534D01*
X12317315Y-16199534D02*
X12317315Y-16247153D01*
X12317315Y-16247153D02*
X12307791Y-16285248D01*
X12307791Y-16285248D02*
X12298267Y-16304296D01*
X12298267Y-16304296D02*
X12288744Y-16313820D01*
X12288744Y-16313820D02*
X12269696Y-16323344D01*
X12269696Y-16323344D02*
X12250648Y-16323344D01*
X12250648Y-16323344D02*
X12231601Y-16313820D01*
X12231601Y-16313820D02*
X12222077Y-16304296D01*
X12222077Y-16304296D02*
X12212553Y-16285248D01*
X12212553Y-16285248D02*
X12203029Y-16247153D01*
X12203029Y-16247153D02*
X12203029Y-16199534D01*
X12203029Y-16199534D02*
X12212553Y-16161439D01*
X12212553Y-16161439D02*
X12222077Y-16142391D01*
X12222077Y-16142391D02*
X12231601Y-16132868D01*
X12231601Y-16132868D02*
X12250648Y-16123344D01*
X12498267Y-16123344D02*
X12403029Y-16123344D01*
X12403029Y-16123344D02*
X12393506Y-16218582D01*
X12393506Y-16218582D02*
X12403029Y-16209058D01*
X12403029Y-16209058D02*
X12422077Y-16199534D01*
X12422077Y-16199534D02*
X12469696Y-16199534D01*
X12469696Y-16199534D02*
X12488744Y-16209058D01*
X12488744Y-16209058D02*
X12498267Y-16218582D01*
X12498267Y-16218582D02*
X12507791Y-16237629D01*
X12507791Y-16237629D02*
X12507791Y-16285248D01*
X12507791Y-16285248D02*
X12498267Y-16304296D01*
X12498267Y-16304296D02*
X12488744Y-16313820D01*
X12488744Y-16313820D02*
X12469696Y-16323344D01*
X12469696Y-16323344D02*
X12422077Y-16323344D01*
X12422077Y-16323344D02*
X12403029Y-16313820D01*
X12403029Y-16313820D02*
X12393506Y-16304296D01*
X12698267Y-16323344D02*
X12583982Y-16323344D01*
X12641125Y-16323344D02*
X12641125Y-16123344D01*
X12641125Y-16123344D02*
X12622077Y-16151915D01*
X12622077Y-16151915D02*
X12603029Y-16170963D01*
X12603029Y-16170963D02*
X12583982Y-16180487D01*
X12774458Y-16142391D02*
X12783982Y-16132868D01*
X12783982Y-16132868D02*
X12803029Y-16123344D01*
X12803029Y-16123344D02*
X12850648Y-16123344D01*
X12850648Y-16123344D02*
X12869696Y-16132868D01*
X12869696Y-16132868D02*
X12879220Y-16142391D01*
X12879220Y-16142391D02*
X12888744Y-16161439D01*
X12888744Y-16161439D02*
X12888744Y-16180487D01*
X12888744Y-16180487D02*
X12879220Y-16209058D01*
X12879220Y-16209058D02*
X12764934Y-16323344D01*
X12764934Y-16323344D02*
X12888744Y-16323344D01*
X12964934Y-16123344D02*
X12964934Y-16161439D01*
X13041125Y-16123344D02*
X13041125Y-16161439D01*
X13336363Y-16399534D02*
X13326839Y-16390010D01*
X13326839Y-16390010D02*
X13307791Y-16361439D01*
X13307791Y-16361439D02*
X13298268Y-16342391D01*
X13298268Y-16342391D02*
X13288744Y-16313820D01*
X13288744Y-16313820D02*
X13279220Y-16266201D01*
X13279220Y-16266201D02*
X13279220Y-16228106D01*
X13279220Y-16228106D02*
X13288744Y-16180487D01*
X13288744Y-16180487D02*
X13298268Y-16151915D01*
X13298268Y-16151915D02*
X13307791Y-16132868D01*
X13307791Y-16132868D02*
X13326839Y-16104296D01*
X13326839Y-16104296D02*
X13336363Y-16094772D01*
X13507791Y-16123344D02*
X13412553Y-16123344D01*
X13412553Y-16123344D02*
X13403029Y-16218582D01*
X13403029Y-16218582D02*
X13412553Y-16209058D01*
X13412553Y-16209058D02*
X13431601Y-16199534D01*
X13431601Y-16199534D02*
X13479220Y-16199534D01*
X13479220Y-16199534D02*
X13498268Y-16209058D01*
X13498268Y-16209058D02*
X13507791Y-16218582D01*
X13507791Y-16218582D02*
X13517315Y-16237629D01*
X13517315Y-16237629D02*
X13517315Y-16285248D01*
X13517315Y-16285248D02*
X13507791Y-16304296D01*
X13507791Y-16304296D02*
X13498268Y-16313820D01*
X13498268Y-16313820D02*
X13479220Y-16323344D01*
X13479220Y-16323344D02*
X13431601Y-16323344D01*
X13431601Y-16323344D02*
X13412553Y-16313820D01*
X13412553Y-16313820D02*
X13403029Y-16304296D01*
X13755410Y-16323344D02*
X13755410Y-16123344D01*
X13841125Y-16323344D02*
X13841125Y-16218582D01*
X13841125Y-16218582D02*
X13831601Y-16199534D01*
X13831601Y-16199534D02*
X13812553Y-16190010D01*
X13812553Y-16190010D02*
X13783982Y-16190010D01*
X13783982Y-16190010D02*
X13764934Y-16199534D01*
X13764934Y-16199534D02*
X13755410Y-16209058D01*
X13964934Y-16323344D02*
X13945887Y-16313820D01*
X13945887Y-16313820D02*
X13936363Y-16304296D01*
X13936363Y-16304296D02*
X13926839Y-16285248D01*
X13926839Y-16285248D02*
X13926839Y-16228106D01*
X13926839Y-16228106D02*
X13936363Y-16209058D01*
X13936363Y-16209058D02*
X13945887Y-16199534D01*
X13945887Y-16199534D02*
X13964934Y-16190010D01*
X13964934Y-16190010D02*
X13993506Y-16190010D01*
X13993506Y-16190010D02*
X14012553Y-16199534D01*
X14012553Y-16199534D02*
X14022077Y-16209058D01*
X14022077Y-16209058D02*
X14031601Y-16228106D01*
X14031601Y-16228106D02*
X14031601Y-16285248D01*
X14031601Y-16285248D02*
X14022077Y-16304296D01*
X14022077Y-16304296D02*
X14012553Y-16313820D01*
X14012553Y-16313820D02*
X13993506Y-16323344D01*
X13993506Y-16323344D02*
X13964934Y-16323344D01*
X14145887Y-16323344D02*
X14126839Y-16313820D01*
X14126839Y-16313820D02*
X14117315Y-16294772D01*
X14117315Y-16294772D02*
X14117315Y-16123344D01*
X14298268Y-16313820D02*
X14279220Y-16323344D01*
X14279220Y-16323344D02*
X14241125Y-16323344D01*
X14241125Y-16323344D02*
X14222077Y-16313820D01*
X14222077Y-16313820D02*
X14212553Y-16294772D01*
X14212553Y-16294772D02*
X14212553Y-16218582D01*
X14212553Y-16218582D02*
X14222077Y-16199534D01*
X14222077Y-16199534D02*
X14241125Y-16190010D01*
X14241125Y-16190010D02*
X14279220Y-16190010D01*
X14279220Y-16190010D02*
X14298268Y-16199534D01*
X14298268Y-16199534D02*
X14307791Y-16218582D01*
X14307791Y-16218582D02*
X14307791Y-16237629D01*
X14307791Y-16237629D02*
X14212553Y-16256677D01*
X14383982Y-16313820D02*
X14403030Y-16323344D01*
X14403030Y-16323344D02*
X14441125Y-16323344D01*
X14441125Y-16323344D02*
X14460172Y-16313820D01*
X14460172Y-16313820D02*
X14469696Y-16294772D01*
X14469696Y-16294772D02*
X14469696Y-16285248D01*
X14469696Y-16285248D02*
X14460172Y-16266201D01*
X14460172Y-16266201D02*
X14441125Y-16256677D01*
X14441125Y-16256677D02*
X14412553Y-16256677D01*
X14412553Y-16256677D02*
X14393506Y-16247153D01*
X14393506Y-16247153D02*
X14383982Y-16228106D01*
X14383982Y-16228106D02*
X14383982Y-16218582D01*
X14383982Y-16218582D02*
X14393506Y-16199534D01*
X14393506Y-16199534D02*
X14412553Y-16190010D01*
X14412553Y-16190010D02*
X14441125Y-16190010D01*
X14441125Y-16190010D02*
X14460172Y-16199534D01*
X14536363Y-16399534D02*
X14545887Y-16390010D01*
X14545887Y-16390010D02*
X14564934Y-16361439D01*
X14564934Y-16361439D02*
X14574458Y-16342391D01*
X14574458Y-16342391D02*
X14583982Y-16313820D01*
X14583982Y-16313820D02*
X14593506Y-16266201D01*
X14593506Y-16266201D02*
X14593506Y-16228106D01*
X14593506Y-16228106D02*
X14583982Y-16180487D01*
X14583982Y-16180487D02*
X14574458Y-16151915D01*
X14574458Y-16151915D02*
X14564934Y-16132868D01*
X14564934Y-16132868D02*
X14545887Y-16104296D01*
X14545887Y-16104296D02*
X14536363Y-16094772D01*
X9561300Y-16395860D02*
X9761300Y-16595860D01*
X9761300Y-16395860D02*
X9561300Y-16595860D01*
X9661300Y-16595860D02*
X9761300Y-16495860D01*
X9661300Y-16395860D01*
X9561300Y-16495860D01*
X9661300Y-16595860D01*
X10003029Y-16387344D02*
X10126839Y-16387344D01*
X10126839Y-16387344D02*
X10060172Y-16463534D01*
X10060172Y-16463534D02*
X10088744Y-16463534D01*
X10088744Y-16463534D02*
X10107791Y-16473058D01*
X10107791Y-16473058D02*
X10117315Y-16482582D01*
X10117315Y-16482582D02*
X10126839Y-16501629D01*
X10126839Y-16501629D02*
X10126839Y-16549248D01*
X10126839Y-16549248D02*
X10117315Y-16568296D01*
X10117315Y-16568296D02*
X10107791Y-16577820D01*
X10107791Y-16577820D02*
X10088744Y-16587344D01*
X10088744Y-16587344D02*
X10031601Y-16587344D01*
X10031601Y-16587344D02*
X10012553Y-16577820D01*
X10012553Y-16577820D02*
X10003029Y-16568296D01*
X10212553Y-16568296D02*
X10222077Y-16577820D01*
X10222077Y-16577820D02*
X10212553Y-16587344D01*
X10212553Y-16587344D02*
X10203029Y-16577820D01*
X10203029Y-16577820D02*
X10212553Y-16568296D01*
X10212553Y-16568296D02*
X10212553Y-16587344D01*
X10298267Y-16406391D02*
X10307791Y-16396868D01*
X10307791Y-16396868D02*
X10326839Y-16387344D01*
X10326839Y-16387344D02*
X10374458Y-16387344D01*
X10374458Y-16387344D02*
X10393505Y-16396868D01*
X10393505Y-16396868D02*
X10403029Y-16406391D01*
X10403029Y-16406391D02*
X10412553Y-16425439D01*
X10412553Y-16425439D02*
X10412553Y-16444487D01*
X10412553Y-16444487D02*
X10403029Y-16473058D01*
X10403029Y-16473058D02*
X10288744Y-16587344D01*
X10288744Y-16587344D02*
X10412553Y-16587344D01*
X10536363Y-16387344D02*
X10555410Y-16387344D01*
X10555410Y-16387344D02*
X10574458Y-16396868D01*
X10574458Y-16396868D02*
X10583982Y-16406391D01*
X10583982Y-16406391D02*
X10593505Y-16425439D01*
X10593505Y-16425439D02*
X10603029Y-16463534D01*
X10603029Y-16463534D02*
X10603029Y-16511153D01*
X10603029Y-16511153D02*
X10593505Y-16549248D01*
X10593505Y-16549248D02*
X10583982Y-16568296D01*
X10583982Y-16568296D02*
X10574458Y-16577820D01*
X10574458Y-16577820D02*
X10555410Y-16587344D01*
X10555410Y-16587344D02*
X10536363Y-16587344D01*
X10536363Y-16587344D02*
X10517315Y-16577820D01*
X10517315Y-16577820D02*
X10507791Y-16568296D01*
X10507791Y-16568296D02*
X10498267Y-16549248D01*
X10498267Y-16549248D02*
X10488744Y-16511153D01*
X10488744Y-16511153D02*
X10488744Y-16463534D01*
X10488744Y-16463534D02*
X10498267Y-16425439D01*
X10498267Y-16425439D02*
X10507791Y-16406391D01*
X10507791Y-16406391D02*
X10517315Y-16396868D01*
X10517315Y-16396868D02*
X10536363Y-16387344D01*
X10726839Y-16387344D02*
X10745886Y-16387344D01*
X10745886Y-16387344D02*
X10764934Y-16396868D01*
X10764934Y-16396868D02*
X10774458Y-16406391D01*
X10774458Y-16406391D02*
X10783982Y-16425439D01*
X10783982Y-16425439D02*
X10793505Y-16463534D01*
X10793505Y-16463534D02*
X10793505Y-16511153D01*
X10793505Y-16511153D02*
X10783982Y-16549248D01*
X10783982Y-16549248D02*
X10774458Y-16568296D01*
X10774458Y-16568296D02*
X10764934Y-16577820D01*
X10764934Y-16577820D02*
X10745886Y-16587344D01*
X10745886Y-16587344D02*
X10726839Y-16587344D01*
X10726839Y-16587344D02*
X10707791Y-16577820D01*
X10707791Y-16577820D02*
X10698267Y-16568296D01*
X10698267Y-16568296D02*
X10688744Y-16549248D01*
X10688744Y-16549248D02*
X10679220Y-16511153D01*
X10679220Y-16511153D02*
X10679220Y-16463534D01*
X10679220Y-16463534D02*
X10688744Y-16425439D01*
X10688744Y-16425439D02*
X10698267Y-16406391D01*
X10698267Y-16406391D02*
X10707791Y-16396868D01*
X10707791Y-16396868D02*
X10726839Y-16387344D01*
X10879220Y-16587344D02*
X10879220Y-16454010D01*
X10879220Y-16473058D02*
X10888744Y-16463534D01*
X10888744Y-16463534D02*
X10907791Y-16454010D01*
X10907791Y-16454010D02*
X10936363Y-16454010D01*
X10936363Y-16454010D02*
X10955410Y-16463534D01*
X10955410Y-16463534D02*
X10964934Y-16482582D01*
X10964934Y-16482582D02*
X10964934Y-16587344D01*
X10964934Y-16482582D02*
X10974458Y-16463534D01*
X10974458Y-16463534D02*
X10993505Y-16454010D01*
X10993505Y-16454010D02*
X11022077Y-16454010D01*
X11022077Y-16454010D02*
X11041125Y-16463534D01*
X11041125Y-16463534D02*
X11050648Y-16482582D01*
X11050648Y-16482582D02*
X11050648Y-16587344D01*
X11145886Y-16587344D02*
X11145886Y-16454010D01*
X11145886Y-16473058D02*
X11155410Y-16463534D01*
X11155410Y-16463534D02*
X11174458Y-16454010D01*
X11174458Y-16454010D02*
X11203029Y-16454010D01*
X11203029Y-16454010D02*
X11222077Y-16463534D01*
X11222077Y-16463534D02*
X11231601Y-16482582D01*
X11231601Y-16482582D02*
X11231601Y-16587344D01*
X11231601Y-16482582D02*
X11241124Y-16463534D01*
X11241124Y-16463534D02*
X11260172Y-16454010D01*
X11260172Y-16454010D02*
X11288743Y-16454010D01*
X11288743Y-16454010D02*
X11307791Y-16463534D01*
X11307791Y-16463534D02*
X11317315Y-16482582D01*
X11317315Y-16482582D02*
X11317315Y-16587344D01*
X11707791Y-16377820D02*
X11536363Y-16634963D01*
X11964934Y-16387344D02*
X11983982Y-16387344D01*
X11983982Y-16387344D02*
X12003029Y-16396868D01*
X12003029Y-16396868D02*
X12012553Y-16406391D01*
X12012553Y-16406391D02*
X12022077Y-16425439D01*
X12022077Y-16425439D02*
X12031601Y-16463534D01*
X12031601Y-16463534D02*
X12031601Y-16511153D01*
X12031601Y-16511153D02*
X12022077Y-16549248D01*
X12022077Y-16549248D02*
X12012553Y-16568296D01*
X12012553Y-16568296D02*
X12003029Y-16577820D01*
X12003029Y-16577820D02*
X11983982Y-16587344D01*
X11983982Y-16587344D02*
X11964934Y-16587344D01*
X11964934Y-16587344D02*
X11945886Y-16577820D01*
X11945886Y-16577820D02*
X11936363Y-16568296D01*
X11936363Y-16568296D02*
X11926839Y-16549248D01*
X11926839Y-16549248D02*
X11917315Y-16511153D01*
X11917315Y-16511153D02*
X11917315Y-16463534D01*
X11917315Y-16463534D02*
X11926839Y-16425439D01*
X11926839Y-16425439D02*
X11936363Y-16406391D01*
X11936363Y-16406391D02*
X11945886Y-16396868D01*
X11945886Y-16396868D02*
X11964934Y-16387344D01*
X12117315Y-16568296D02*
X12126839Y-16577820D01*
X12126839Y-16577820D02*
X12117315Y-16587344D01*
X12117315Y-16587344D02*
X12107791Y-16577820D01*
X12107791Y-16577820D02*
X12117315Y-16568296D01*
X12117315Y-16568296D02*
X12117315Y-16587344D01*
X12317315Y-16587344D02*
X12203029Y-16587344D01*
X12260172Y-16587344D02*
X12260172Y-16387344D01*
X12260172Y-16387344D02*
X12241125Y-16415915D01*
X12241125Y-16415915D02*
X12222077Y-16434963D01*
X12222077Y-16434963D02*
X12203029Y-16444487D01*
X12393506Y-16406391D02*
X12403029Y-16396868D01*
X12403029Y-16396868D02*
X12422077Y-16387344D01*
X12422077Y-16387344D02*
X12469696Y-16387344D01*
X12469696Y-16387344D02*
X12488744Y-16396868D01*
X12488744Y-16396868D02*
X12498267Y-16406391D01*
X12498267Y-16406391D02*
X12507791Y-16425439D01*
X12507791Y-16425439D02*
X12507791Y-16444487D01*
X12507791Y-16444487D02*
X12498267Y-16473058D01*
X12498267Y-16473058D02*
X12383982Y-16587344D01*
X12383982Y-16587344D02*
X12507791Y-16587344D01*
X12679220Y-16387344D02*
X12641125Y-16387344D01*
X12641125Y-16387344D02*
X12622077Y-16396868D01*
X12622077Y-16396868D02*
X12612553Y-16406391D01*
X12612553Y-16406391D02*
X12593506Y-16434963D01*
X12593506Y-16434963D02*
X12583982Y-16473058D01*
X12583982Y-16473058D02*
X12583982Y-16549248D01*
X12583982Y-16549248D02*
X12593506Y-16568296D01*
X12593506Y-16568296D02*
X12603029Y-16577820D01*
X12603029Y-16577820D02*
X12622077Y-16587344D01*
X12622077Y-16587344D02*
X12660172Y-16587344D01*
X12660172Y-16587344D02*
X12679220Y-16577820D01*
X12679220Y-16577820D02*
X12688744Y-16568296D01*
X12688744Y-16568296D02*
X12698267Y-16549248D01*
X12698267Y-16549248D02*
X12698267Y-16501629D01*
X12698267Y-16501629D02*
X12688744Y-16482582D01*
X12688744Y-16482582D02*
X12679220Y-16473058D01*
X12679220Y-16473058D02*
X12660172Y-16463534D01*
X12660172Y-16463534D02*
X12622077Y-16463534D01*
X12622077Y-16463534D02*
X12603029Y-16473058D01*
X12603029Y-16473058D02*
X12593506Y-16482582D01*
X12593506Y-16482582D02*
X12583982Y-16501629D01*
X12822077Y-16387344D02*
X12841125Y-16387344D01*
X12841125Y-16387344D02*
X12860172Y-16396868D01*
X12860172Y-16396868D02*
X12869696Y-16406391D01*
X12869696Y-16406391D02*
X12879220Y-16425439D01*
X12879220Y-16425439D02*
X12888744Y-16463534D01*
X12888744Y-16463534D02*
X12888744Y-16511153D01*
X12888744Y-16511153D02*
X12879220Y-16549248D01*
X12879220Y-16549248D02*
X12869696Y-16568296D01*
X12869696Y-16568296D02*
X12860172Y-16577820D01*
X12860172Y-16577820D02*
X12841125Y-16587344D01*
X12841125Y-16587344D02*
X12822077Y-16587344D01*
X12822077Y-16587344D02*
X12803029Y-16577820D01*
X12803029Y-16577820D02*
X12793506Y-16568296D01*
X12793506Y-16568296D02*
X12783982Y-16549248D01*
X12783982Y-16549248D02*
X12774458Y-16511153D01*
X12774458Y-16511153D02*
X12774458Y-16463534D01*
X12774458Y-16463534D02*
X12783982Y-16425439D01*
X12783982Y-16425439D02*
X12793506Y-16406391D01*
X12793506Y-16406391D02*
X12803029Y-16396868D01*
X12803029Y-16396868D02*
X12822077Y-16387344D01*
X12964934Y-16387344D02*
X12964934Y-16425439D01*
X13041125Y-16387344D02*
X13041125Y-16425439D01*
X13336363Y-16663534D02*
X13326839Y-16654010D01*
X13326839Y-16654010D02*
X13307791Y-16625439D01*
X13307791Y-16625439D02*
X13298268Y-16606391D01*
X13298268Y-16606391D02*
X13288744Y-16577820D01*
X13288744Y-16577820D02*
X13279220Y-16530201D01*
X13279220Y-16530201D02*
X13279220Y-16492106D01*
X13279220Y-16492106D02*
X13288744Y-16444487D01*
X13288744Y-16444487D02*
X13298268Y-16415915D01*
X13298268Y-16415915D02*
X13307791Y-16396868D01*
X13307791Y-16396868D02*
X13326839Y-16368296D01*
X13326839Y-16368296D02*
X13336363Y-16358772D01*
X13393506Y-16387344D02*
X13517315Y-16387344D01*
X13517315Y-16387344D02*
X13450648Y-16463534D01*
X13450648Y-16463534D02*
X13479220Y-16463534D01*
X13479220Y-16463534D02*
X13498268Y-16473058D01*
X13498268Y-16473058D02*
X13507791Y-16482582D01*
X13507791Y-16482582D02*
X13517315Y-16501629D01*
X13517315Y-16501629D02*
X13517315Y-16549248D01*
X13517315Y-16549248D02*
X13507791Y-16568296D01*
X13507791Y-16568296D02*
X13498268Y-16577820D01*
X13498268Y-16577820D02*
X13479220Y-16587344D01*
X13479220Y-16587344D02*
X13422077Y-16587344D01*
X13422077Y-16587344D02*
X13403029Y-16577820D01*
X13403029Y-16577820D02*
X13393506Y-16568296D01*
X13755410Y-16587344D02*
X13755410Y-16387344D01*
X13841125Y-16587344D02*
X13841125Y-16482582D01*
X13841125Y-16482582D02*
X13831601Y-16463534D01*
X13831601Y-16463534D02*
X13812553Y-16454010D01*
X13812553Y-16454010D02*
X13783982Y-16454010D01*
X13783982Y-16454010D02*
X13764934Y-16463534D01*
X13764934Y-16463534D02*
X13755410Y-16473058D01*
X13964934Y-16587344D02*
X13945887Y-16577820D01*
X13945887Y-16577820D02*
X13936363Y-16568296D01*
X13936363Y-16568296D02*
X13926839Y-16549248D01*
X13926839Y-16549248D02*
X13926839Y-16492106D01*
X13926839Y-16492106D02*
X13936363Y-16473058D01*
X13936363Y-16473058D02*
X13945887Y-16463534D01*
X13945887Y-16463534D02*
X13964934Y-16454010D01*
X13964934Y-16454010D02*
X13993506Y-16454010D01*
X13993506Y-16454010D02*
X14012553Y-16463534D01*
X14012553Y-16463534D02*
X14022077Y-16473058D01*
X14022077Y-16473058D02*
X14031601Y-16492106D01*
X14031601Y-16492106D02*
X14031601Y-16549248D01*
X14031601Y-16549248D02*
X14022077Y-16568296D01*
X14022077Y-16568296D02*
X14012553Y-16577820D01*
X14012553Y-16577820D02*
X13993506Y-16587344D01*
X13993506Y-16587344D02*
X13964934Y-16587344D01*
X14145887Y-16587344D02*
X14126839Y-16577820D01*
X14126839Y-16577820D02*
X14117315Y-16558772D01*
X14117315Y-16558772D02*
X14117315Y-16387344D01*
X14298268Y-16577820D02*
X14279220Y-16587344D01*
X14279220Y-16587344D02*
X14241125Y-16587344D01*
X14241125Y-16587344D02*
X14222077Y-16577820D01*
X14222077Y-16577820D02*
X14212553Y-16558772D01*
X14212553Y-16558772D02*
X14212553Y-16482582D01*
X14212553Y-16482582D02*
X14222077Y-16463534D01*
X14222077Y-16463534D02*
X14241125Y-16454010D01*
X14241125Y-16454010D02*
X14279220Y-16454010D01*
X14279220Y-16454010D02*
X14298268Y-16463534D01*
X14298268Y-16463534D02*
X14307791Y-16482582D01*
X14307791Y-16482582D02*
X14307791Y-16501629D01*
X14307791Y-16501629D02*
X14212553Y-16520677D01*
X14383982Y-16577820D02*
X14403030Y-16587344D01*
X14403030Y-16587344D02*
X14441125Y-16587344D01*
X14441125Y-16587344D02*
X14460172Y-16577820D01*
X14460172Y-16577820D02*
X14469696Y-16558772D01*
X14469696Y-16558772D02*
X14469696Y-16549248D01*
X14469696Y-16549248D02*
X14460172Y-16530201D01*
X14460172Y-16530201D02*
X14441125Y-16520677D01*
X14441125Y-16520677D02*
X14412553Y-16520677D01*
X14412553Y-16520677D02*
X14393506Y-16511153D01*
X14393506Y-16511153D02*
X14383982Y-16492106D01*
X14383982Y-16492106D02*
X14383982Y-16482582D01*
X14383982Y-16482582D02*
X14393506Y-16463534D01*
X14393506Y-16463534D02*
X14412553Y-16454010D01*
X14412553Y-16454010D02*
X14441125Y-16454010D01*
X14441125Y-16454010D02*
X14460172Y-16463534D01*
X14536363Y-16663534D02*
X14545887Y-16654010D01*
X14545887Y-16654010D02*
X14564934Y-16625439D01*
X14564934Y-16625439D02*
X14574458Y-16606391D01*
X14574458Y-16606391D02*
X14583982Y-16577820D01*
X14583982Y-16577820D02*
X14593506Y-16530201D01*
X14593506Y-16530201D02*
X14593506Y-16492106D01*
X14593506Y-16492106D02*
X14583982Y-16444487D01*
X14583982Y-16444487D02*
X14574458Y-16415915D01*
X14574458Y-16415915D02*
X14564934Y-16396868D01*
X14564934Y-16396868D02*
X14545887Y-16368296D01*
X14545887Y-16368296D02*
X14536363Y-16358772D01*
M02*
