%TF.GenerationSoftware,KiCad,Pcbnew,7.0.10*%
%TF.CreationDate,2024-03-23T12:12:33+07:00*%
%TF.ProjectId,BTL_ESD,42544c5f-4553-4442-9e6b-696361645f70,rev?*%
%TF.SameCoordinates,Original*%
%TF.FileFunction,Soldermask,Top*%
%TF.FilePolarity,Negative*%
%FSLAX46Y46*%
G04 Gerber Fmt 4.6, Leading zero omitted, Abs format (unit mm)*
G04 Created by KiCad (PCBNEW 7.0.10) date 2024-03-23 12:12:33*
%MOMM*%
%LPD*%
G01*
G04 APERTURE LIST*
G04 Aperture macros list*
%AMRoundRect*
0 Rectangle with rounded corners*
0 $1 Rounding radius*
0 $2 $3 $4 $5 $6 $7 $8 $9 X,Y pos of 4 corners*
0 Add a 4 corners polygon primitive as box body*
4,1,4,$2,$3,$4,$5,$6,$7,$8,$9,$2,$3,0*
0 Add four circle primitives for the rounded corners*
1,1,$1+$1,$2,$3*
1,1,$1+$1,$4,$5*
1,1,$1+$1,$6,$7*
1,1,$1+$1,$8,$9*
0 Add four rect primitives between the rounded corners*
20,1,$1+$1,$2,$3,$4,$5,0*
20,1,$1+$1,$4,$5,$6,$7,0*
20,1,$1+$1,$6,$7,$8,$9,0*
20,1,$1+$1,$8,$9,$2,$3,0*%
G04 Aperture macros list end*
%ADD10C,0.010000*%
%ADD11RoundRect,0.262900X-0.325400X-0.262900X0.325400X-0.262900X0.325400X0.262900X-0.325400X0.262900X0*%
%ADD12RoundRect,0.102000X-0.605000X-0.365000X0.605000X-0.365000X0.605000X0.365000X-0.605000X0.365000X0*%
%ADD13RoundRect,0.262900X-0.262900X0.325400X-0.262900X-0.325400X0.262900X-0.325400X0.262900X0.325400X0*%
%ADD14RoundRect,0.050800X1.500000X-0.700000X1.500000X0.700000X-1.500000X0.700000X-1.500000X-0.700000X0*%
%ADD15RoundRect,0.050800X1.500000X-0.750000X1.500000X0.750000X-1.500000X0.750000X-1.500000X-0.750000X0*%
%ADD16RoundRect,0.262900X0.262900X-0.325400X0.262900X0.325400X-0.262900X0.325400X-0.262900X-0.325400X0*%
%ADD17RoundRect,0.102000X0.660400X0.279400X-0.660400X0.279400X-0.660400X-0.279400X0.660400X-0.279400X0*%
%ADD18RoundRect,0.525400X0.525400X0.925400X-0.525400X0.925400X-0.525400X-0.925400X0.525400X-0.925400X0*%
%ADD19C,3.701600*%
%ADD20C,6.501600*%
%ADD21RoundRect,0.262900X-0.262900X0.275400X-0.262900X-0.275400X0.262900X-0.275400X0.262900X0.275400X0*%
%ADD22RoundRect,0.262900X-0.275400X-0.262900X0.275400X-0.262900X0.275400X0.262900X-0.275400X0.262900X0*%
%ADD23RoundRect,0.175400X0.175400X-0.850400X0.175400X0.850400X-0.175400X0.850400X-0.175400X-0.850400X0*%
%ADD24RoundRect,0.262900X0.275400X0.262900X-0.275400X0.262900X-0.275400X-0.262900X0.275400X-0.262900X0*%
%ADD25O,1.804000X2.454000*%
%ADD26RoundRect,0.262900X0.325400X0.262900X-0.325400X0.262900X-0.325400X-0.262900X0.325400X-0.262900X0*%
%ADD27RoundRect,0.102000X-0.660400X-0.279400X0.660400X-0.279400X0.660400X0.279400X-0.660400X0.279400X0*%
%ADD28RoundRect,0.272087X0.478713X-0.353713X0.478713X0.353713X-0.478713X0.353713X-0.478713X-0.353713X0*%
%ADD29RoundRect,0.259080X-0.502920X0.747920X-0.502920X-0.747920X0.502920X-0.747920X0.502920X0.747920X0*%
%ADD30RoundRect,0.262900X0.262900X-0.275400X0.262900X0.275400X-0.262900X0.275400X-0.262900X-0.275400X0*%
%ADD31RoundRect,0.272087X-0.353713X-0.478713X0.353713X-0.478713X0.353713X0.478713X-0.353713X0.478713X0*%
%ADD32RoundRect,0.259080X0.747920X0.502920X-0.747920X0.502920X-0.747920X-0.502920X0.747920X-0.502920X0*%
%ADD33RoundRect,0.102000X-0.900000X-0.850000X0.900000X-0.850000X0.900000X0.850000X-0.900000X0.850000X0*%
%ADD34RoundRect,0.055580X1.031420X0.341420X-1.031420X0.341420X-1.031420X-0.341420X1.031420X-0.341420X0*%
%ADD35RoundRect,0.271617X-0.504183X0.366683X-0.504183X-0.366683X0.504183X-0.366683X0.504183X0.366683X0*%
%ADD36RoundRect,0.265875X-0.584925X1.534925X-0.584925X-1.534925X0.584925X-1.534925X0.584925X1.534925X0*%
%ADD37RoundRect,0.385750X-0.540050X-0.540050X0.540050X-0.540050X0.540050X0.540050X-0.540050X0.540050X0*%
%ADD38RoundRect,0.259080X0.502920X-0.747920X0.502920X0.747920X-0.502920X0.747920X-0.502920X-0.747920X0*%
%ADD39C,2.601600*%
%ADD40C,1.701600*%
%ADD41RoundRect,0.259080X-0.747920X-0.502920X0.747920X-0.502920X0.747920X0.502920X-0.747920X0.502920X0*%
%ADD42RoundRect,0.050800X-0.596900X0.596900X-0.596900X-0.596900X0.596900X-0.596900X0.596900X0.596900X0*%
%ADD43RoundRect,0.050800X-0.749300X0.800100X-0.749300X-0.800100X0.749300X-0.800100X0.749300X0.800100X0*%
%ADD44RoundRect,0.050800X-1.000000X-0.750000X1.000000X-0.750000X1.000000X0.750000X-1.000000X0.750000X0*%
%ADD45RoundRect,0.050800X-1.000000X-1.900000X1.000000X-1.900000X1.000000X1.900000X-1.000000X1.900000X0*%
%ADD46C,2.154000*%
%ADD47RoundRect,0.102000X-0.975000X0.975000X-0.975000X-0.975000X0.975000X-0.975000X0.975000X0.975000X0*%
%ADD48RoundRect,0.056280X0.835720X0.345720X-0.835720X0.345720X-0.835720X-0.345720X0.835720X-0.345720X0*%
%ADD49RoundRect,0.102000X-0.750000X-0.450000X0.750000X-0.450000X0.750000X0.450000X-0.750000X0.450000X0*%
%ADD50RoundRect,0.102000X-0.450000X-0.750000X0.450000X-0.750000X0.450000X0.750000X-0.450000X0.750000X0*%
%ADD51RoundRect,0.102000X-0.450000X-0.450000X0.450000X-0.450000X0.450000X0.450000X-0.450000X0.450000X0*%
%ADD52RoundRect,0.102000X-0.654000X0.654000X-0.654000X-0.654000X0.654000X-0.654000X0.654000X0.654000X0*%
%ADD53C,1.512000*%
%ADD54RoundRect,0.102000X0.900000X0.850000X-0.900000X0.850000X-0.900000X-0.850000X0.900000X-0.850000X0*%
%ADD55RoundRect,0.050800X1.100000X0.700000X-1.100000X0.700000X-1.100000X-0.700000X1.100000X-0.700000X0*%
%ADD56RoundRect,0.050800X-0.850000X0.450000X-0.850000X-0.450000X0.850000X-0.450000X0.850000X0.450000X0*%
%ADD57O,3.504000X1.854000*%
%ADD58RoundRect,0.056280X-1.030720X-0.345720X1.030720X-0.345720X1.030720X0.345720X-1.030720X0.345720X0*%
%ADD59RoundRect,0.050800X0.596900X0.596900X-0.596900X0.596900X-0.596900X-0.596900X0.596900X-0.596900X0*%
%ADD60RoundRect,0.050800X0.800100X0.749300X-0.800100X0.749300X-0.800100X-0.749300X0.800100X-0.749300X0*%
%ADD61RoundRect,0.050800X-0.850000X0.850000X-0.850000X-0.850000X0.850000X-0.850000X0.850000X0.850000X0*%
%ADD62O,1.801600X1.801600*%
%ADD63RoundRect,0.272087X-0.478713X0.353713X-0.478713X-0.353713X0.478713X-0.353713X0.478713X0.353713X0*%
%ADD64RoundRect,0.100400X-0.725400X-0.100400X0.725400X-0.100400X0.725400X0.100400X-0.725400X0.100400X0*%
%ADD65RoundRect,0.100400X-0.100400X-0.725400X0.100400X-0.725400X0.100400X0.725400X-0.100400X0.725400X0*%
%ADD66RoundRect,0.056280X0.345720X-1.030720X0.345720X1.030720X-0.345720X1.030720X-0.345720X-1.030720X0*%
%ADD67RoundRect,0.102000X0.825000X0.825000X-0.825000X0.825000X-0.825000X-0.825000X0.825000X-0.825000X0*%
%ADD68C,1.854000*%
%ADD69RoundRect,0.269538X-1.481262X0.431262X-1.481262X-0.431262X1.481262X-0.431262X1.481262X0.431262X0*%
%ADD70RoundRect,0.050800X-0.500000X-0.900000X0.500000X-0.900000X0.500000X0.900000X-0.500000X0.900000X0*%
%ADD71RoundRect,0.050800X0.850000X-0.450000X0.850000X0.450000X-0.850000X0.450000X-0.850000X-0.450000X0*%
%ADD72O,2.404000X4.604000*%
%ADD73O,2.204000X4.204000*%
%ADD74O,4.204000X2.204000*%
%ADD75RoundRect,0.050800X-0.850000X-0.850000X0.850000X-0.850000X0.850000X0.850000X-0.850000X0.850000X0*%
%ADD76O,0.901600X0.901600*%
%ADD77RoundRect,0.050800X0.225000X0.650000X-0.225000X0.650000X-0.225000X-0.650000X0.225000X-0.650000X0*%
%ADD78O,1.251600X1.901600*%
%ADD79O,1.551600X2.101600*%
G04 APERTURE END LIST*
%TO.C,D10*%
D10*
X144229120Y-53339800D02*
X143328420Y-53339800D01*
X143328420Y-52889364D01*
X144229120Y-52889364D01*
X144229120Y-53339800D01*
G36*
X144229120Y-53339800D02*
G01*
X143328420Y-53339800D01*
X143328420Y-52889364D01*
X144229120Y-52889364D01*
X144229120Y-53339800D01*
G37*
X146129120Y-53339800D02*
X145229203Y-53339800D01*
X145229203Y-52889655D01*
X146129120Y-52889655D01*
X146129120Y-53339800D01*
G36*
X146129120Y-53339800D02*
G01*
X145229203Y-53339800D01*
X145229203Y-52889655D01*
X146129120Y-52889655D01*
X146129120Y-53339800D01*
G37*
X146129120Y-53989800D02*
X145229685Y-53989800D01*
X145229685Y-53539546D01*
X146129120Y-53539546D01*
X146129120Y-53989800D01*
G36*
X146129120Y-53989800D02*
G01*
X145229685Y-53989800D01*
X145229685Y-53539546D01*
X146129120Y-53539546D01*
X146129120Y-53989800D01*
G37*
X144229120Y-53989800D02*
X143328300Y-53989800D01*
X143328300Y-53539669D01*
X144229120Y-53539669D01*
X144229120Y-53989800D01*
G36*
X144229120Y-53989800D02*
G01*
X143328300Y-53989800D01*
X143328300Y-53539669D01*
X144229120Y-53539669D01*
X144229120Y-53989800D01*
G37*
X146129120Y-54639800D02*
X145229428Y-54639800D01*
X145229428Y-54190062D01*
X146129120Y-54190062D01*
X146129120Y-54639800D01*
G36*
X146129120Y-54639800D02*
G01*
X145229428Y-54639800D01*
X145229428Y-54190062D01*
X146129120Y-54190062D01*
X146129120Y-54639800D01*
G37*
X144229120Y-54639800D02*
X143327310Y-54639800D01*
X143327310Y-54190351D01*
X144229120Y-54190351D01*
X144229120Y-54639800D01*
G36*
X144229120Y-54639800D02*
G01*
X143327310Y-54639800D01*
X143327310Y-54190351D01*
X144229120Y-54190351D01*
X144229120Y-54639800D01*
G37*
%TD*%
D11*
%TO.C,C49*%
X119202200Y-86385400D03*
X120927200Y-86385400D03*
%TD*%
D12*
%TO.C,D8*%
X115243400Y-88163400D03*
X111883400Y-88163400D03*
%TD*%
D13*
%TO.C,C42*%
X145618200Y-96063900D03*
X145618200Y-97788900D03*
%TD*%
D14*
%TO.C,J5*%
X159895200Y-73264600D03*
X159895200Y-54764600D03*
D15*
X152095200Y-57664600D03*
X152095200Y-60204600D03*
X152095200Y-62744600D03*
X152095200Y-65284600D03*
X152095200Y-67824600D03*
X152095200Y-70364600D03*
%TD*%
D16*
%TO.C,C28*%
X123761500Y-79973800D03*
X123761500Y-78248800D03*
%TD*%
D11*
%TO.C,C54*%
X151461300Y-52273200D03*
X153186300Y-52273200D03*
%TD*%
D17*
%TO.C,Q4*%
X145999200Y-110744000D03*
X145999200Y-108712000D03*
X143967200Y-109728000D03*
%TD*%
D18*
%TO.C,L1*%
X140163400Y-115265200D03*
X132063400Y-115265200D03*
%TD*%
D13*
%TO.C,C44*%
X105996100Y-107184300D03*
X105996100Y-108909300D03*
%TD*%
D19*
%TO.C,H3*%
X166852600Y-48560000D03*
D20*
X166852600Y-48560000D03*
%TD*%
D21*
%TO.C,R35*%
X145999200Y-105030900D03*
X145999200Y-106855900D03*
%TD*%
D22*
%TO.C,R12*%
X129240200Y-73558400D03*
X131065200Y-73558400D03*
%TD*%
D11*
%TO.C,C57*%
X127163900Y-50635000D03*
X128888900Y-50635000D03*
%TD*%
D16*
%TO.C,C52*%
X123698000Y-97640600D03*
X123698000Y-95915600D03*
%TD*%
D11*
%TO.C,C32*%
X129340200Y-77419200D03*
X131065200Y-77419200D03*
%TD*%
D23*
%TO.C,U8*%
X127304800Y-57959800D03*
X128574800Y-57959800D03*
X129844800Y-57959800D03*
X131114800Y-57959800D03*
X132384800Y-57959800D03*
X133654800Y-57959800D03*
X134924800Y-57959800D03*
X136194800Y-57959800D03*
X136194800Y-53009800D03*
X134924800Y-53009800D03*
X133654800Y-53009800D03*
X132384800Y-53009800D03*
X131114800Y-53009800D03*
X129844800Y-53009800D03*
X128574800Y-53009800D03*
X127304800Y-53009800D03*
%TD*%
D24*
%TO.C,R16*%
X140053700Y-67741800D03*
X138228700Y-67741800D03*
%TD*%
D25*
%TO.C,U9*%
X151384000Y-101650800D03*
X148844000Y-101650800D03*
X148844000Y-110150800D03*
X151384000Y-110150800D03*
%TD*%
D26*
%TO.C,C10*%
X135223400Y-131495800D03*
X133498400Y-131495800D03*
%TD*%
D21*
%TO.C,R13*%
X101346000Y-86666800D03*
X101346000Y-88491800D03*
%TD*%
D27*
%TO.C,Q1*%
X142443200Y-62175400D03*
X142443200Y-64207400D03*
X144475200Y-63191400D03*
%TD*%
D28*
%TO.C,D3*%
X128568600Y-136117400D03*
X128568600Y-134067400D03*
%TD*%
D29*
%TO.C,C12*%
X136779000Y-102973400D03*
X136779000Y-105573400D03*
%TD*%
D30*
%TO.C,R4*%
X126365000Y-136118600D03*
X126365000Y-134293600D03*
%TD*%
%TO.C,R19*%
X109118400Y-75359100D03*
X109118400Y-73534100D03*
%TD*%
D31*
%TO.C,D6*%
X133468000Y-135890000D03*
X135518000Y-135890000D03*
%TD*%
D32*
%TO.C,C11*%
X133833400Y-100101400D03*
X131233400Y-100101400D03*
%TD*%
D21*
%TO.C,R21*%
X101346000Y-73434100D03*
X101346000Y-75259100D03*
%TD*%
D33*
%TO.C,D2*%
X144263400Y-121285000D03*
X140163400Y-121285000D03*
%TD*%
D34*
%TO.C,U1*%
X109106400Y-115316000D03*
X109106400Y-114046000D03*
X109106400Y-112776000D03*
X109106400Y-111506000D03*
X104156400Y-111506000D03*
X104156400Y-112776000D03*
X104156400Y-114046000D03*
X104156400Y-115316000D03*
%TD*%
D35*
%TO.C,C3*%
X127711200Y-126522400D03*
X127711200Y-128597400D03*
%TD*%
D16*
%TO.C,C29*%
X125730000Y-79973800D03*
X125730000Y-78248800D03*
%TD*%
D35*
%TO.C,C5*%
X130098800Y-126522400D03*
X130098800Y-128597400D03*
%TD*%
D21*
%TO.C,R23*%
X146608800Y-61366400D03*
X146608800Y-63191400D03*
%TD*%
D13*
%TO.C,C41*%
X107137200Y-73534100D03*
X107137200Y-75259100D03*
%TD*%
D35*
%TO.C,C16*%
X126187200Y-116077700D03*
X126187200Y-118152700D03*
%TD*%
D16*
%TO.C,C20*%
X114294600Y-72974200D03*
X114294600Y-71249200D03*
%TD*%
D22*
%TO.C,R25*%
X107059900Y-98867200D03*
X108884900Y-98867200D03*
%TD*%
D13*
%TO.C,C46*%
X107972400Y-107184300D03*
X107972400Y-108909300D03*
%TD*%
D22*
%TO.C,R24*%
X109677500Y-108900000D03*
X111502500Y-108900000D03*
%TD*%
D13*
%TO.C,C37*%
X142900400Y-91314100D03*
X142900400Y-93039100D03*
%TD*%
D36*
%TO.C,C2*%
X122707400Y-126522400D03*
X122707400Y-132122400D03*
%TD*%
D37*
%TO.C,R18*%
X129802700Y-63688900D03*
X129802700Y-66788900D03*
X132902700Y-63688900D03*
X132902700Y-66788900D03*
%TD*%
D38*
%TO.C,C8*%
X124561600Y-107710000D03*
X124561600Y-105110000D03*
%TD*%
D39*
%TO.C,TP2*%
X110286800Y-135026400D03*
%TD*%
D40*
%TO.C,R29*%
X121330500Y-102341400D03*
X118330500Y-102341400D03*
%TD*%
D21*
%TO.C,R26*%
X115724300Y-101470100D03*
X115724300Y-103295100D03*
%TD*%
D35*
%TO.C,C15*%
X128651000Y-116077700D03*
X128651000Y-118152700D03*
%TD*%
D41*
%TO.C,C7*%
X124561600Y-110693200D03*
X127161600Y-110693200D03*
%TD*%
D13*
%TO.C,C43*%
X147599400Y-96063900D03*
X147599400Y-97788900D03*
%TD*%
D21*
%TO.C,R14*%
X161950400Y-49582700D03*
X161950400Y-51407700D03*
%TD*%
D11*
%TO.C,C35*%
X139990200Y-78511400D03*
X141715200Y-78511400D03*
%TD*%
D22*
%TO.C,R2*%
X140719800Y-133375400D03*
X142544800Y-133375400D03*
%TD*%
D42*
%TO.C,VR1*%
X118185850Y-106294275D03*
D43*
X121437050Y-107294400D03*
D42*
X118185850Y-108294525D03*
%TD*%
D21*
%TO.C,R8*%
X123723400Y-120372500D03*
X123723400Y-122197500D03*
%TD*%
D44*
%TO.C,U2*%
X127533400Y-103110000D03*
X127533400Y-105410000D03*
D45*
X133833400Y-105410000D03*
D44*
X127533400Y-107710000D03*
%TD*%
D21*
%TO.C,R10*%
X128651000Y-120372500D03*
X128651000Y-122197500D03*
%TD*%
D39*
%TO.C,TP1*%
X116230400Y-135026400D03*
%TD*%
D11*
%TO.C,C34*%
X139990200Y-76530200D03*
X141715200Y-76530200D03*
%TD*%
D19*
%TO.C,H1*%
X103301800Y-132994400D03*
D20*
X103301800Y-132994400D03*
%TD*%
D31*
%TO.C,D4*%
X99330400Y-92151200D03*
X101380400Y-92151200D03*
%TD*%
D46*
%TO.C,K1*%
X157831800Y-119521800D03*
X147831800Y-119521800D03*
D47*
X152831800Y-117021800D03*
D46*
X157831800Y-129721800D03*
X147831800Y-129721800D03*
%TD*%
D48*
%TO.C,U6*%
X113312400Y-104902000D03*
X113312400Y-103632000D03*
X113312400Y-102362000D03*
X113312400Y-101092000D03*
X107972400Y-101092000D03*
X107972400Y-102362000D03*
X107972400Y-103632000D03*
X107972400Y-104902000D03*
%TD*%
D49*
%TO.C,U5*%
X103516400Y-49604800D03*
X103516400Y-50874800D03*
X103516400Y-52144800D03*
X103516400Y-53414800D03*
X103516400Y-54684800D03*
X103516400Y-55954800D03*
X103516400Y-57224800D03*
X103516400Y-58494800D03*
X103516400Y-59764800D03*
X103516400Y-61034800D03*
X103516400Y-62304800D03*
X103516400Y-63574800D03*
X103516400Y-64844800D03*
X103516400Y-66114800D03*
D50*
X106551400Y-67364800D03*
X107821400Y-67364800D03*
X109091400Y-67364800D03*
X110361400Y-67364800D03*
X111631400Y-67364800D03*
X112901400Y-67364800D03*
X114171400Y-67364800D03*
X115441400Y-67364800D03*
X116711400Y-67364800D03*
X117981400Y-67364800D03*
D49*
X121016400Y-66114800D03*
X121016400Y-64844800D03*
X121016400Y-63574800D03*
X121016400Y-62304800D03*
X121016400Y-61034800D03*
X121016400Y-59764800D03*
X121016400Y-58494800D03*
X121016400Y-57224800D03*
X121016400Y-55954800D03*
X121016400Y-54684800D03*
X121016400Y-53414800D03*
X121016400Y-52144800D03*
X121016400Y-50874800D03*
X121016400Y-49604800D03*
D51*
X109366400Y-55924800D03*
X110766400Y-55924800D03*
X112166400Y-55924800D03*
X109366400Y-57324800D03*
X110766400Y-57324800D03*
X112166400Y-57324800D03*
X109366400Y-58724800D03*
X110766400Y-58724800D03*
X112166400Y-58724800D03*
%TD*%
D13*
%TO.C,C22*%
X107137200Y-86766800D03*
X107137200Y-88491800D03*
%TD*%
D26*
%TO.C,C56*%
X125026400Y-50635000D03*
X123301400Y-50635000D03*
%TD*%
D52*
%TO.C,SW1*%
X121829200Y-113766800D03*
D53*
X119329200Y-113766800D03*
X116829200Y-113766800D03*
X116829200Y-116966800D03*
X119329200Y-116966800D03*
X121829200Y-116966800D03*
%TD*%
D54*
%TO.C,D11*%
X143967200Y-113258600D03*
X148067200Y-113258600D03*
%TD*%
D11*
%TO.C,C53*%
X151461300Y-54254400D03*
X153186300Y-54254400D03*
%TD*%
D21*
%TO.C,R20*%
X101346000Y-80044600D03*
X101346000Y-81869600D03*
%TD*%
D31*
%TO.C,D5*%
X99330400Y-98526600D03*
X101380400Y-98526600D03*
%TD*%
D38*
%TO.C,C1*%
X112041600Y-114106000D03*
X112041600Y-111506000D03*
%TD*%
D28*
%TO.C,D9*%
X111328200Y-73338800D03*
X111328200Y-71288800D03*
%TD*%
D55*
%TO.C,Y1*%
X118770800Y-79369600D03*
X112470800Y-79369600D03*
X112470800Y-81869600D03*
X118770800Y-81869600D03*
%TD*%
D16*
%TO.C,C30*%
X123761500Y-87898800D03*
X123761500Y-86173800D03*
%TD*%
D56*
%TO.C,SW2*%
X104241600Y-85091800D03*
X104241600Y-88491800D03*
%TD*%
D57*
%TO.C,RV1*%
X163195000Y-129346800D03*
X168195000Y-129346800D03*
%TD*%
D16*
%TO.C,C50*%
X125679200Y-97640600D03*
X125679200Y-95915600D03*
%TD*%
D58*
%TO.C,U3*%
X135223400Y-125252400D03*
X135223400Y-126522400D03*
X135223400Y-127792400D03*
X135223400Y-129062400D03*
X140163400Y-129062400D03*
X140163400Y-127792400D03*
X140163400Y-126522400D03*
X140163400Y-125252400D03*
%TD*%
D59*
%TO.C,VR2*%
X115463638Y-90975600D03*
D60*
X114463513Y-94226800D03*
D59*
X113463388Y-90975600D03*
%TD*%
D54*
%TO.C,D1*%
X112130400Y-130556000D03*
X116230400Y-130556000D03*
%TD*%
D61*
%TO.C,J3*%
X146192400Y-72237600D03*
D62*
X143652400Y-72237600D03*
X141112400Y-72237600D03*
X138572400Y-72237600D03*
%TD*%
D30*
%TO.C,R28*%
X113312400Y-108959300D03*
X113312400Y-107134300D03*
%TD*%
D63*
%TO.C,D7*%
X159740600Y-49582700D03*
X159740600Y-51632700D03*
%TD*%
D16*
%TO.C,C39*%
X99288600Y-50874800D03*
X99288600Y-49149800D03*
%TD*%
D24*
%TO.C,R22*%
X144268200Y-60448200D03*
X142443200Y-60448200D03*
%TD*%
D21*
%TO.C,R34*%
X154152600Y-105030900D03*
X154152600Y-106855900D03*
%TD*%
D16*
%TO.C,C21*%
X109880400Y-81869600D03*
X109880400Y-80144600D03*
%TD*%
D26*
%TO.C,C55*%
X131114800Y-60426600D03*
X129389800Y-60426600D03*
%TD*%
D14*
%TO.C,J4*%
X159895200Y-99281800D03*
X159895200Y-75381800D03*
D15*
X152095200Y-78441800D03*
X152095200Y-80981800D03*
X152095200Y-83521800D03*
X152095200Y-86061800D03*
X152095200Y-88601800D03*
X152095200Y-91141800D03*
X152095200Y-93681800D03*
X152095200Y-96221800D03*
%TD*%
D26*
%TO.C,C26*%
X131565200Y-96215200D03*
X129840200Y-96215200D03*
%TD*%
D16*
%TO.C,C14*%
X142544800Y-125779700D03*
X142544800Y-124054700D03*
%TD*%
D64*
%TO.C,U4*%
X128640200Y-81898800D03*
X128640200Y-82398800D03*
X128640200Y-82898800D03*
X128640200Y-83398800D03*
X128640200Y-83898800D03*
X128640200Y-84398800D03*
X128640200Y-84898800D03*
X128640200Y-85398800D03*
X128640200Y-85898800D03*
X128640200Y-86398800D03*
X128640200Y-86898800D03*
X128640200Y-87398800D03*
X128640200Y-87898800D03*
X128640200Y-88398800D03*
X128640200Y-88898800D03*
X128640200Y-89398800D03*
D65*
X130565200Y-91323800D03*
X131065200Y-91323800D03*
X131565200Y-91323800D03*
X132065200Y-91323800D03*
X132565200Y-91323800D03*
X133065200Y-91323800D03*
X133565200Y-91323800D03*
X134065200Y-91323800D03*
X134565200Y-91323800D03*
X135065200Y-91323800D03*
X135565200Y-91323800D03*
X136065200Y-91323800D03*
X136565200Y-91323800D03*
X137065200Y-91323800D03*
X137565200Y-91323800D03*
X138065200Y-91323800D03*
D64*
X139990200Y-89398800D03*
X139990200Y-88898800D03*
X139990200Y-88398800D03*
X139990200Y-87898800D03*
X139990200Y-87398800D03*
X139990200Y-86898800D03*
X139990200Y-86398800D03*
X139990200Y-85898800D03*
X139990200Y-85398800D03*
X139990200Y-84898800D03*
X139990200Y-84398800D03*
X139990200Y-83898800D03*
X139990200Y-83398800D03*
X139990200Y-82898800D03*
X139990200Y-82398800D03*
X139990200Y-81898800D03*
D65*
X138065200Y-79973800D03*
X137565200Y-79973800D03*
X137065200Y-79973800D03*
X136565200Y-79973800D03*
X136065200Y-79973800D03*
X135565200Y-79973800D03*
X135065200Y-79973800D03*
X134565200Y-79973800D03*
X134065200Y-79973800D03*
X133565200Y-79973800D03*
X133065200Y-79973800D03*
X132565200Y-79973800D03*
X132065200Y-79973800D03*
X131565200Y-79973800D03*
X131065200Y-79973800D03*
X130565200Y-79973800D03*
%TD*%
D13*
%TO.C,C36*%
X140919200Y-91314100D03*
X140919200Y-93039100D03*
%TD*%
D21*
%TO.C,R27*%
X115724300Y-105309300D03*
X115724300Y-107134300D03*
%TD*%
D26*
%TO.C,C9*%
X136948400Y-123317000D03*
X135223400Y-123317000D03*
%TD*%
%TO.C,C47*%
X113312400Y-98867200D03*
X111587400Y-98867200D03*
%TD*%
D39*
%TO.C,TP4*%
X168325800Y-79781400D03*
%TD*%
D30*
%TO.C,R9*%
X126187200Y-122197500D03*
X126187200Y-120372500D03*
%TD*%
D13*
%TO.C,C13*%
X142544800Y-127792400D03*
X142544800Y-129517400D03*
%TD*%
D66*
%TO.C,U7*%
X117932200Y-95915600D03*
X119202200Y-95915600D03*
X120472200Y-95915600D03*
X121742200Y-95915600D03*
X121742200Y-90975600D03*
X120472200Y-90975600D03*
X119202200Y-90975600D03*
X117932200Y-90975600D03*
%TD*%
D11*
%TO.C,C51*%
X119202200Y-88366600D03*
X120927200Y-88366600D03*
%TD*%
D38*
%TO.C,C4*%
X101119600Y-114106000D03*
X101119600Y-111506000D03*
%TD*%
D11*
%TO.C,C31*%
X129340200Y-75438000D03*
X131065200Y-75438000D03*
%TD*%
D67*
%TO.C,XA2*%
X167600080Y-135864941D03*
D68*
X163790080Y-135864941D03*
%TD*%
D26*
%TO.C,C17*%
X118770800Y-76581000D03*
X117045800Y-76581000D03*
%TD*%
D69*
%TO.C,F1*%
X116230400Y-122072400D03*
X116230400Y-126522400D03*
%TD*%
D22*
%TO.C,R6*%
X99330400Y-96316800D03*
X101155400Y-96316800D03*
%TD*%
D24*
%TO.C,R11*%
X131115200Y-69799200D03*
X129290200Y-69799200D03*
%TD*%
D70*
%TO.C,Y2*%
X118795800Y-72974200D03*
X116295800Y-72974200D03*
%TD*%
D71*
%TO.C,SW3*%
X104241600Y-81869600D03*
X104241600Y-78469600D03*
%TD*%
D26*
%TO.C,C27*%
X131565200Y-94234000D03*
X129840200Y-94234000D03*
%TD*%
D71*
%TO.C,SW4*%
X104241600Y-75259100D03*
X104241600Y-71859100D03*
%TD*%
D13*
%TO.C,C40*%
X107137200Y-80144600D03*
X107137200Y-81869600D03*
%TD*%
D16*
%TO.C,C33*%
X125730000Y-87898800D03*
X125730000Y-86173800D03*
%TD*%
D13*
%TO.C,C25*%
X123761500Y-90577500D03*
X123761500Y-92302500D03*
%TD*%
D35*
%TO.C,C6*%
X132486400Y-126522400D03*
X132486400Y-128597400D03*
%TD*%
D72*
%TO.C,J1*%
X111785400Y-122072400D03*
D73*
X105785400Y-122072400D03*
D74*
X108785400Y-126772400D03*
%TD*%
D75*
%TO.C,J2*%
X124790200Y-69799200D03*
D62*
X124790200Y-72339200D03*
X124790200Y-74879200D03*
%TD*%
D67*
%TO.C,XA1*%
X154584960Y-135864941D03*
D68*
X150774960Y-135864941D03*
%TD*%
D26*
%TO.C,C18*%
X118795800Y-70586600D03*
X117070800Y-70586600D03*
%TD*%
D76*
%TO.C,J6*%
X146904000Y-49230800D03*
X141904000Y-49230800D03*
D77*
X145704000Y-50330800D03*
X145054000Y-50330800D03*
X144404000Y-50330800D03*
X143754000Y-50330800D03*
X143104000Y-50330800D03*
D78*
X148279000Y-46480800D03*
D79*
X148129000Y-50280800D03*
X140679000Y-50280800D03*
D78*
X140529000Y-46480800D03*
%TD*%
D16*
%TO.C,C38*%
X101269800Y-50874800D03*
X101269800Y-49149800D03*
%TD*%
D26*
%TO.C,C48*%
X120699700Y-98557200D03*
X118974700Y-98557200D03*
%TD*%
D22*
%TO.C,R1*%
X133498400Y-133375400D03*
X135323400Y-133375400D03*
%TD*%
D39*
%TO.C,TP5*%
X168325800Y-84861400D03*
%TD*%
D26*
%TO.C,C45*%
X113312400Y-96896200D03*
X111587400Y-96896200D03*
%TD*%
D24*
%TO.C,R3*%
X142544800Y-131495800D03*
X140719800Y-131495800D03*
%TD*%
D19*
%TO.C,H2*%
X166674800Y-106559600D03*
D20*
X166674800Y-106559600D03*
%TD*%
D39*
%TO.C,TP3*%
X168325800Y-74701400D03*
%TD*%
D13*
%TO.C,C24*%
X125730000Y-90577500D03*
X125730000Y-92302500D03*
%TD*%
D22*
%TO.C,R5*%
X99330400Y-94344200D03*
X101155400Y-94344200D03*
%TD*%
%TO.C,R7*%
X137593700Y-135890000D03*
X139418700Y-135890000D03*
%TD*%
M02*
