M48
; DRILL file {KiCad 7.0.10} date Sat Mar 23 12:12:28 2024
; FORMAT={-:-/ absolute / metric / decimal}
; #@! TF.CreationDate,2024-03-23T12:12:28+07:00
; #@! TF.GenerationSoftware,Kicad,Pcbnew,7.0.10
; #@! TF.FileFunction,Plated,1,2,PTH
FMAT,2
METRIC
; #@! TA.AperFunction,Plated,PTH,ComponentDrill
T1C0.200
; #@! TA.AperFunction,Plated,PTH,ViaDrill
T2C0.400
; #@! TA.AperFunction,Plated,PTH,ComponentDrill
T3C0.550
; #@! TA.AperFunction,Plated,PTH,ComponentDrill
T4C0.800
; #@! TA.AperFunction,Plated,PTH,ComponentDrill
T5C0.850
; #@! TA.AperFunction,Plated,PTH,ComponentDrill
T6C1.000
; #@! TA.AperFunction,Plated,PTH,ComponentDrill
T7C1.100
; #@! TA.AperFunction,Plated,PTH,ComponentDrill
T8C1.300
; #@! TA.AperFunction,Plated,PTH,ComponentDrill
T9C3.200
%
G90
G05
T1
X109.366Y-56.625
X109.366Y-58.025
X110.066Y-55.925
X110.066Y-57.325
X110.066Y-58.725
X110.766Y-56.625
X110.766Y-58.025
X111.466Y-55.925
X111.466Y-57.325
X111.466Y-58.725
X112.166Y-56.625
X112.166Y-58.025
T2
X98.63Y-54.23
X98.63Y-56.73
X98.63Y-59.23
X98.63Y-61.73
X100.61Y-68.85
X101.117Y-106.121
X101.117Y-108.534
X101.321Y-76.86
X101.346Y-72.161
X101.346Y-78.638
X101.346Y-83.388
X101.346Y-85.166
X101.92Y-66.11
X102.718Y-109.296
X103.48Y-94.717
X103.53Y-102.743
X103.53Y-105.791
X104.8Y-107.163
X104.826Y-96.164
X105.156Y-83.363
X105.181Y-90.17
X105.181Y-91.44
X105.207Y-76.81
X107.086Y-90.17
X107.086Y-91.44
X107.137Y-76.683
X107.137Y-83.261
X107.747Y-131.216
X107.798Y-71.501
X107.848Y-69.15
X108.737Y-93.193
X108.763Y-95.301
X108.991Y-90.17
X108.991Y-91.44
X109.22Y-129.54
X110.287Y-94.234
X110.541Y-86.716
X113.411Y-89.332
X114.706Y-109.855
X114.706Y-111.125
X115.214Y-99.238
X115.468Y-89.357
X115.976Y-108.407
X117.246Y-109.855
X117.246Y-111.125
X117.323Y-89.129
X119.38Y-134.62
X119.786Y-109.855
X119.786Y-111.125
X119.786Y-122.555
X122.326Y-109.855
X122.326Y-111.125
X122.326Y-122.555
X122.809Y-66.115
X123.136Y-99.082
X123.761Y-81.178
X123.774Y-60.554
X123.825Y-56.21
X124.638Y-48.895
X124.663Y-88.9
X124.866Y-66.675
X125.755Y-94.31
X125.832Y-81.28
X126.822Y-85.446
X127.178Y-91.11
X127.451Y-96.88
X128.016Y-75.438
X128.178Y-97.714
X128.6Y-123.876
X128.6Y-132.436
X128.905Y-98.603
X130.226Y-120.372
X130.531Y-123.19
X130.531Y-133.426
X130.96Y-50.892
X131.115Y-68.631
X131.623Y-135.915
X132.664Y-51.003
X132.903Y-69.174
X133.502Y-97.917
X134.493Y-120.472
X135.026Y-60.325
X135.026Y-61.595
X135.026Y-62.865
X135.026Y-64.135
X135.788Y-97.917
X136.671Y-93.46
X137.465Y-56.921
X137.516Y-94.187
X137.541Y-75.844
X137.566Y-60.325
X137.566Y-61.595
X137.566Y-62.865
X137.566Y-69.215
X138.328Y-97.917
X138.328Y-99.187
X138.481Y-52.197
X138.557Y-94.914
X139.192Y-132.385
X139.243Y-130.81
X139.37Y-93.929
X140.005Y-74.879
X140.106Y-59.055
X140.106Y-60.325
X140.106Y-61.595
X140.106Y-62.865
X140.106Y-64.135
X140.106Y-69.215
X140.868Y-97.917
X140.868Y-99.187
X141.707Y-69.164
X142.24Y-106.68
X142.24Y-109.22
X142.24Y-111.76
X142.443Y-54.762
X142.646Y-59.055
X142.646Y-74.295
X142.646Y-135.255
X143.815Y-97.638
X144.207Y-86.958
X144.475Y-82.601
X144.78Y-124.46
X144.945Y-86.22
X145.13Y-90.47
X145.136Y-89.433
X145.186Y-64.135
X145.186Y-74.295
X145.186Y-76.835
X145.186Y-79.375
X145.733Y-85.432
X146.253Y-59.249
X146.304Y-101.651
X146.406Y-94.539
X146.71Y-88.011
X146.99Y-53.975
X147.93Y-61.366
X149.352Y-58.649
X151.47Y-46.888
X151.47Y-49.428
X152.095Y-76.683
X154.01Y-46.888
X154.01Y-49.428
X154.864Y-65.303
X154.965Y-90.475
X156.388Y-62.814
X156.55Y-46.888
X156.55Y-49.428
X157.785Y-86.055
X157.886Y-61.595
X157.886Y-64.135
X157.886Y-66.675
X157.886Y-69.215
X157.886Y-71.755
X157.886Y-76.835
X157.886Y-79.375
X157.886Y-81.915
X157.886Y-84.455
X159.41Y-88.621
X160.02Y-101.6
X160.02Y-104.14
X160.02Y-106.68
X160.02Y-109.22
X160.426Y-46.355
X160.963Y-93.272
X162.56Y-96.52
X162.56Y-99.06
X162.56Y-101.6
X162.56Y-104.14
X162.56Y-109.22
X164.236Y-65.456
X164.287Y-79.781
X165.1Y-93.98
X165.1Y-96.52
X165.1Y-99.06
X165.1Y-101.6
X165.506Y-56.515
X165.506Y-59.055
X167.64Y-91.44
X167.64Y-93.98
X167.64Y-96.52
X167.64Y-99.06
X167.64Y-101.6
X168.046Y-56.515
X168.046Y-59.055
X168.046Y-61.595
T4
X116.829Y-113.767
X116.829Y-116.967
X118.331Y-102.341
X119.329Y-113.767
X119.329Y-116.967
X121.331Y-102.341
X121.829Y-113.767
X121.829Y-116.967
T6
X124.79Y-69.799
X124.79Y-72.339
X124.79Y-74.879
X138.572Y-72.238
X141.112Y-72.238
X143.652Y-72.238
X146.192Y-72.238
T7
X150.775Y-135.865
X154.585Y-135.865
X163.195Y-129.347
X163.79Y-135.865
X167.6Y-135.865
X168.195Y-129.347
T8
X147.832Y-119.522
X147.832Y-129.722
X152.832Y-117.022
X157.832Y-119.522
X157.832Y-129.722
T9
X103.302Y-132.994
X166.675Y-106.56
X166.853Y-48.56
T3
G00X140.529Y-46.806
M15
G01X140.529Y-46.156
M16
G05
G00X148.279Y-46.806
M15
G01X148.279Y-46.156
M16
G05
T5
G00X140.679Y-50.556
M15
G01X140.679Y-50.006
M16
G05
G00X148.129Y-50.556
M15
G01X148.129Y-50.006
M16
G05
T6
G00X105.785Y-121.072
M15
G01X105.785Y-123.072
M16
G05
G00X107.785Y-126.772
M15
G01X109.785Y-126.772
M16
G05
G00X111.785Y-120.822
M15
G01X111.785Y-123.322
M16
G05
M30
